<svg xmlns="http://www.w3.org/2000/svg" width="32" height="26" viewBox="0 0 32 26">
    <g fill="none" fill-rule="evenodd">
        <g fill="#BBB" fill-rule="nonzero">
            <g>
                <g>
                    <g>
                        <path d="M32 3.078c-1.19.522-2.458.868-3.78 1.036 1.36-.812 2.398-2.088 2.886-3.626-1.268.756-2.668 1.29-4.16 1.588C25.742.794 24.026 0 22.154 0c-3.632 0-6.556 2.948-6.556 6.562 0 .52.044 1.02.152 1.496-5.454-.266-10.28-2.88-13.522-6.862-.566.982-.898 2.106-.898 3.316 0 2.272 1.17 4.286 2.914 5.452-1.054-.02-2.088-.326-2.964-.808v.072c0 3.188 2.274 5.836 5.256 6.446-.534.146-1.116.216-1.72.216-.42 0-.844-.024-1.242-.112.85 2.598 3.262 4.508 6.13 4.57-2.232 1.746-5.066 2.798-8.134 2.798-.538 0-1.054-.024-1.57-.09C2.906 24.93 6.35 26 10.064 26c12.072 0 18.672-10 18.672-18.668 0-.29-.01-.57-.024-.848C30.014 5.56 31.108 4.406 32 3.078z" transform="translate(-667 -1392) translate(0 1104) translate(630 288) translate(37)"/>
                    </g>
                </g>
            </g>
        </g>
    </g>
</svg>
