<svg xmlns="http://www.w3.org/2000/svg" width="26" height="26" viewBox="0 0 26 26">
    <g fill="none" fill-rule="evenodd">
        <g fill="#BBB" fill-rule="nonzero">
            <g>
                <g>
                    <g>
                        <path d="M25.994 26v-.001H26v-9.536c0-4.664-1.004-8.258-6.458-8.258-2.621 0-4.38 1.439-5.099 2.803h-.076V8.64h-5.17v17.358h5.384v-8.595c0-2.263.429-4.452 3.231-4.452 2.762 0 2.803 2.583 2.803 4.597V26h5.379zM.429 8.642L5.82 8.642 5.82 26 .429 26zM3.122 0C1.4 0 0 1.399 0 3.122c0 1.724 1.399 3.152 3.122 3.152 1.724 0 3.122-1.428 3.122-3.152C6.244 1.4 4.844 0 3.122 0z" transform="translate(-723 -1392) translate(0 1104) translate(630 288) translate(93)"/>
                    </g>
                </g>
            </g>
        </g>
    </g>
</svg>
