<svg xmlns="http://www.w3.org/2000/svg" width="37" height="26" viewBox="0 0 37 26">
    <g fill="none" fill-rule="evenodd">
        <g fill="#BBB" fill-rule="nonzero">
            <g>
                <g>
                    <g>
                        <path d="M36.216 4.104c-.426-1.584-1.675-2.833-3.26-3.26C30.064.054 18.489.054 18.489.054S6.914.053 4.021.815C2.467 1.24 1.188 2.52.76 4.105 0 6.997 0 12.997 0 12.997s0 6.031.761 8.894c.427 1.584 1.676 2.833 3.26 3.26 2.924.791 14.468.791 14.468.791s11.574 0 14.468-.761c1.584-.427 2.833-1.675 3.26-3.26.76-2.893.76-8.893.76-8.893s.031-6.031-.761-8.925zM14.803 18.542V7.455l9.625 5.543-9.625 5.544z" transform="translate(-773 -1392) translate(0 1104) translate(630 288) translate(143)"/>
                    </g>
                </g>
            </g>
        </g>
    </g>
</svg>
