<svg xmlns="http://www.w3.org/2000/svg" width="32" height="38" viewBox="0 0 32 38">
    <g fill="none" fill-rule="evenodd">
        <g fill="#FFF" fill-rule="nonzero">
            <g>
                <g>
                    <g>
                        <path d="M23.012 0c-1.994.138-4.325 1.414-5.683 3.077C16.089 4.585 15.07 6.824 15.468 9c2.179.068 4.43-1.24 5.735-2.93 1.22-1.573 2.144-3.799 1.81-6.071z" transform="translate(-840 -1546) translate(0 1464) translate(840 40) translate(0 42)"/>
                        <path d="M30.893 12.55c-1.914-2.401-4.605-3.795-7.147-3.795-3.355 0-4.774 1.607-7.105 1.607-2.403 0-4.229-1.602-7.13-1.602-2.85 0-5.885 1.742-7.809 4.72-2.705 4.195-2.242 12.08 2.142 18.797 1.569 2.403 3.663 5.106 6.403 5.13 2.439.023 3.126-1.565 6.43-1.581 3.303-.019 3.93 1.601 6.363 1.576 2.743-.021 4.952-3.016 6.52-5.42 1.125-1.723 1.544-2.59 2.416-4.535-6.343-2.415-7.36-11.435-1.083-14.897z" transform="translate(-840 -1546) translate(0 1464) translate(840 40) translate(0 42)"/>
                    </g>
                </g>
            </g>
        </g>
    </g>
</svg>
