<svg xmlns="http://www.w3.org/2000/svg" width="48" height="48" viewBox="0 0 48 48">
    <g fill="none" fill-rule="evenodd">
        <g>
            <g>
                <g>
                    <g>
                        <g>
                            <path stroke="#9B9B9B" d="M26 1.155l16.785 9.69c1.237.715 2 2.035 2 3.464v19.382c0 1.429-.763 2.75-2 3.464L26 46.845c-1.238.715-2.762.715-4 0l-16.785-9.69c-1.237-.715-2-2.035-2-3.464V14.309c0-1.429.763-2.75 2-3.464L22 1.155c1.238-.715 2.762-.715 4 0z" transform="translate(-346 -1125) translate(100 1057) translate(16 49) translate(220) translate(10 19)"/>
                            <path fill="#9B9B9B" d="M26 4.155l14.187 8.19c1.237.715 2 2.035 2 3.464v16.382c0 1.429-.763 2.75-2 3.464L26 43.845c-1.238.715-2.762.715-4 0l-14.187-8.19c-1.237-.715-2-2.035-2-3.464V15.809c0-1.429.763-2.75 2-3.464L22 4.155c1.238-.715 2.762-.715 4 0z" transform="translate(-346 -1125) translate(100 1057) translate(16 49) translate(220) translate(10 19)"/>
                            <g fill="#FFF" fill-rule="nonzero">
                                <g>
                                    <path d="M7.805 0C3.5 0 0 3.52 0 7.845c0 2.696 1.36 5.078 3.427 6.491v4.99c0 .194.098.376.26.481.163.106.368.122.545.042l3.573-1.616 3.573 1.616c.075.034.154.05.234.05.109 0 .216-.03.31-.092.163-.105.261-.287.261-.482v-4.989c2.067-1.413 3.427-3.795 3.427-6.491C15.61 3.519 12.108 0 7.805 0zm3.236 18.438L8.039 17.08c-.074-.034-.154-.05-.234-.05-.08 0-.16.016-.234.05l-3.002 1.358v-3.453c.287.132.581.245.882.34l.05.016.116.035.085.024c.031.01.063.018.094.026.036.01.073.02.11.028l.077.02.126.029.066.014.14.029.057.01c.049.01.099.019.148.027l.051.009.155.023.048.006.157.02.047.005.158.015.048.004c.052.004.105.008.157.01l.05.004c.053.003.106.005.16.006l.047.002.207.003c.07 0 .138-.001.207-.003l.048-.002.159-.006.05-.003.156-.01.048-.005.158-.015.047-.005.158-.02.048-.006.154-.023.052-.009.148-.026.057-.011.14-.029.066-.014.126-.03.078-.019.11-.028.092-.026.086-.024.115-.035.051-.016c.3-.095.595-.208.882-.34v3.453zm-1.062-4.263l-.068.024-.105.034-.122.037-.087.026c-.054.015-.109.03-.163.043l-.061.015c-.054.013-.107.026-.161.037l-.04.01-.21.04-.021.003c-.063.011-.126.021-.19.03l-.042.006c-.068.01-.135.018-.203.025h-.008c-.07.008-.142.014-.213.02l-.047.002-.167.01-.056.001c-.07.002-.14.004-.21.004-.07 0-.14-.002-.21-.004l-.057-.002-.166-.009c-.016 0-.031-.002-.047-.003-.071-.005-.142-.01-.213-.018l-.008-.001c-.068-.007-.136-.016-.203-.025l-.043-.006-.19-.03-.02-.004c-.07-.012-.14-.025-.21-.04l-.04-.009-.16-.037-.062-.015-.163-.043-.087-.026-.122-.037-.105-.034-.068-.024c-2.61-.908-4.489-3.402-4.489-6.33 0-3.693 2.989-6.697 6.663-6.697 3.674 0 6.663 3.004 6.663 6.697 0 2.928-1.88 5.422-4.489 6.33z" transform="translate(-346 -1125) translate(100 1057) translate(16 49) translate(220) translate(10 19) translate(16 14)"/>
                                    <path d="M10.272 7.745l.762-1.449c.066-.125.063-.275-.007-.398-.07-.122-.197-.2-.337-.205l-1.622-.056-.86-1.393c-.074-.12-.204-.193-.344-.193-.14 0-.27.073-.344.193l-.86 1.393-1.621.056c-.14.005-.267.083-.337.205-.07.123-.073.273-.007.398l.762 1.45-.762 1.448c-.066.125-.063.276.007.398.07.123.197.2.337.205l1.622.057.86 1.392c.073.12.203.193.343.193s.27-.073.345-.193l.86-1.392 1.621-.057c.14-.005.267-.082.337-.205.07-.122.073-.273.007-.398l-.762-1.449zm-1.45 1.412c-.134.005-.257.077-.329.192l-.629 1.018-.628-1.018c-.072-.115-.195-.187-.33-.192L5.72 9.116l.557-1.06c.064-.12.064-.264 0-.384L5.72 6.613l1.186-.041c.135-.005.258-.077.33-.193l.628-1.017.63 1.017c.07.116.194.188.329.193l1.186.041-.557 1.06c-.064.12-.064.264 0 .384l.557 1.059-1.186.041z" transform="translate(-346 -1125) translate(100 1057) translate(16 49) translate(220) translate(10 19) translate(16 14)"/>
                                </g>
                            </g>
                        </g>
                    </g>
                </g>
            </g>
        </g>
    </g>
</svg>
