<svg xmlns="http://www.w3.org/2000/svg" width="48" height="48" viewBox="0 0 48 48">
    <g fill="none" fill-rule="evenodd">
        <g>
            <g>
                <g>
                    <g>
                        <path stroke="#E3A200" d="M26 1.155l16.785 9.69c1.237.715 2 2.035 2 3.464v19.382c0 1.429-.763 2.75-2 3.464L26 46.845c-1.238.715-2.762.715-4 0l-16.785-9.69c-1.237-.715-2-2.035-2-3.464V14.309c0-1.429.763-2.75 2-3.464L22 1.155c1.238-.715 2.762-.715 4 0z" transform="translate(-126 -1125) translate(100 1057) translate(16 49) translate(10 19)"/>
                        <path fill="#E3A200" d="M26 4.155l14.187 8.19c1.237.715 2 2.035 2 3.464v16.382c0 1.429-.763 2.75-2 3.464L26 43.845c-1.238.715-2.762.715-4 0l-14.187-8.19c-1.237-.715-2-2.035-2-3.464V15.809c0-1.429.763-2.75 2-3.464L22 4.155c1.238-.715 2.762-.715 4 0z" transform="translate(-126 -1125) translate(100 1057) translate(16 49) translate(10 19)"/>
                        <path fill="#FFF" fill-rule="nonzero" d="M24.937 19.13l-.322-.653c-.151-.307-.523-.432-.83-.281-.121.06-.22.159-.28.28l-.323.653c-.145.295-.427.5-.752.547l-.722.105c-.338.049-.572.362-.523.7.02.135.083.26.18.354l.521.508c.236.23.344.56.288.885l-.123.717c-.057.336.169.656.505.714.134.023.272.001.393-.062l.646-.34c.291-.152.639-.152.93 0l.646.34c.302.159.676.042.835-.26.064-.12.085-.258.062-.392l-.123-.717c-.055-.324.052-.655.288-.885l.521-.508c.245-.238.25-.63.012-.874-.095-.097-.22-.16-.354-.18l-.722-.105c-.325-.047-.607-.252-.753-.547zm-.298 3.446l-.095-.053c-.301-.166-.667-.166-.968 0l-.096.053c-.155.086-.35.03-.436-.126-.035-.063-.048-.136-.036-.207l.033-.205c.051-.313-.05-.632-.271-.86l-.128-.13c-.13-.133-.127-.346.006-.476.05-.05.115-.081.185-.092l.12-.018c.33-.05.613-.262.754-.564l.063-.134c.075-.16.266-.229.426-.154.067.032.122.086.154.154l.063.134c.141.302.424.513.754.564l.12.018c.184.028.31.2.282.384-.01.07-.043.134-.092.184l-.127.13c-.222.228-.323.547-.271.86l.033.205c.029.175-.09.34-.265.37-.072.01-.145-.002-.208-.037z" transform="translate(-126 -1125) translate(100 1057) translate(16 49) translate(10 19)"/>
                        <path fill="#FFF" fill-rule="nonzero" d="M31.647 23.836c1.066-.745 1.765-1.98 1.765-3.377v-.93c0-1.104-.896-2-2-2h-1.53v-2.353h.177c.552 0 1-.447 1-1V14H16.94v.176c0 .553.448 1 1 1h.177v2.353h-1.53c-1.104 0-2 .896-2 2v.93c0 1.396.699 2.632 1.765 3.377l1.176.57c.344.102.706.16 1.08.17.211.483.487.94.822 1.353.925 1.138 1.483 2.524 1.603 3.953h-.74c-.552 0-1 .448-1 1v1.942h-.588c-.325 0-.588.263-.588.588 0 .325.263.588.588.588h10.588c.325 0 .588-.263.588-.588 0-.325-.263-.588-.588-.588h-.588v-1.942c0-.552-.448-1-1-1h-.74c.12-1.428.678-2.812 1.603-3.95.336-.414.612-.871.823-1.357.374-.008.735-.067 1.079-.17l1.176-.569zm-13.53-.495c-1.34-.273-2.352-1.462-2.352-2.882v-1.753h2.353v4.635zm9.412 9.483h-7.058v-1.765h7.058v1.765zm-1.743-2.942h-3.572c-.122-1.699-.775-3.347-1.87-4.695-.677-.834-1.05-1.886-1.05-2.963v-7.048h9.412v7.048c0 1.079-.373 2.132-1.05 2.966-1.095 1.348-1.748 2.995-1.87 4.692zm4.096-11.176h2.353v1.753c0 1.42-1.012 2.609-2.353 2.882v-4.635z" transform="translate(-126 -1125) translate(100 1057) translate(16 49) translate(10 19)"/>
                    </g>
                </g>
            </g>
        </g>
    </g>
</svg>
