<?xml version="1.0" encoding="utf-8"?>
<!-- Generator: Adobe Illustrator 25.4.0, SVG Export Plug-In . SVG Version: 6.00 Build 0)  -->
<svg version="1.1" id="Layer_1" xmlns="http://www.w3.org/2000/svg" xmlns:xlink="http://www.w3.org/1999/xlink" x="0px" y="0px"
	 viewBox="0 0 427 366" style="enable-background:new 0 0 427 366;" xml:space="preserve">
<style type="text/css">
	.st0{fill-rule:evenodd;clip-rule:evenodd;fill:#FADCD2;}
	.st1{fill:#00BED0;}
	.st2{fill:#FFFFFF;}
	.st3{fill:#0098A7;}
	.st4{fill:#CCCCCC;}
	.st5{fill:#FFB8B8;}
	.st6{fill:#2F2E41;}
	.st7{fill:#FDD35C;}
	.st8{fill:#565D84;}
	.st9{fill:#FFBD24;}
	.st10{fill:#212549;}
	.st11{fill:#FF5814;}
	.st12{fill:#3F3D56;}
	.st13{opacity:0.2;enable-background:new    ;}
</style>
<g>
	<g>
		<g>
			<g>
				<g>
					<path class="st0" d="M75.6,360.9c-58.9-8-44.6-43.6,76.3-43.6s-18.5-15.1,120.1-15.1c138.6,0,176.4,33.3,125.9,48.4
						C347.4,365.7,134.5,368.9,75.6,360.9L75.6,360.9z"/>
					<path class="st1" d="M140.2,240.1c-5.3,4.3-5.4,12.8-0.3,19.1c5.1,6.3,10.7-1.8,16-6.1c5.3-4.3,20.7-7.4,15.6-13.7
						C166.4,233.1,145.5,235.8,140.2,240.1z"/>
					<g transform="translate(-88 -1101) translate(40 956) translate(0 114) translate(48 31)">
						<path class="st2" d="M310,271v59H160.8c-17,0-30.8-13.2-30.8-29.5s13.8-29.5,30.8-29.5H310z"/>
						<path class="st3" d="M313,330.7c0,1.3-1,2.3-2.3,2.3H157.4c-17.3,0-31.4-14.1-31.4-31.5s14.1-31.5,31.4-31.5h153.3
							c1.3,0,2.3,1,2.3,2.3s-1,2.3-2.3,2.3H157.4c-14.8,0-26.8,12-26.8,26.9s12,26.9,26.8,26.9h153.3C312,328.4,313,329.4,313,330.7
							L313,330.7z"/>
						<path class="st4" d="M309.5,286H150.5c-0.3,0-0.5-0.2-0.5-0.5s0.2-0.5,0.5-0.5h159.1c0.3,0,0.5,0.2,0.5,0.5
							S309.8,286,309.5,286z M309.5,297H150.5c-0.3,0-0.5-0.2-0.5-0.5s0.2-0.5,0.5-0.5h159.1c0.3,0,0.5,0.2,0.5,0.5
							S309.8,297,309.5,297z M309.5,308H150.5c-0.3,0-0.5-0.2-0.5-0.5s0.2-0.5,0.5-0.5h159.1c0.3,0,0.5,0.2,0.5,0.5
							S309.8,308,309.5,308z M309.5,319H150.5c-0.3,0-0.5-0.2-0.5-0.5s0.2-0.5,0.5-0.5h159.1c0.3,0,0.5,0.2,0.5,0.5
							S309.8,319,309.5,319z"/>
						<path class="st2" d="M425,282.6L387.7,329l-116-93.6c-13.2-10.7-15.6-29.8-5.3-42.5c10.3-12.8,29.4-14.5,42.6-3.8L425,282.6z"
							/>
						<path class="st1" d="M389.8,331.1c-0.8,1-2.2,1.1-3.2,0.3l-119.8-95.9c-13.6-10.8-15.7-30.5-4.8-44
							c10.9-13.5,30.8-15.6,44.3-4.7l119.8,95.9c0.6,0.5,1,1.3,0.8,2.1c-0.1,0.8-0.7,1.5-1.4,1.8s-1.6,0.2-2.3-0.4l-119.8-95.8
							c-7.5-6-17.6-7.6-26.6-4.1c-9,3.4-15.4,11.4-16.9,20.8c-1.5,9.4,2.2,18.9,9.7,24.9l119.8,95.9
							C390.5,328.7,390.6,330.2,389.8,331.1L389.8,331.1z"/>
						<path class="st4" d="M416.3,292.9L292.2,192.8c-0.1-0.1-0.2-0.3-0.2-0.4c0-0.2,0.1-0.3,0.3-0.4c0.2-0.1,0.3,0,0.5,0.1
							l124.1,100.1c0.1,0.1,0.2,0.3,0.2,0.4c0,0.2-0.1,0.3-0.3,0.4C416.6,293,416.4,293,416.3,292.9L416.3,292.9z M409.3,302.9
							L285.2,202.8c-0.2-0.2-0.2-0.4-0.1-0.6c0.2-0.2,0.4-0.2,0.6-0.1l124.1,100.1c0.1,0.1,0.2,0.3,0.2,0.4c0,0.2-0.1,0.3-0.3,0.4
							C409.6,303,409.4,303,409.3,302.9L409.3,302.9z M402.3,310.9L278.2,210.8c-0.2-0.2-0.2-0.4-0.1-0.6s0.4-0.2,0.6-0.1
							l124.1,100.1c0.1,0.1,0.2,0.3,0.2,0.4c0,0.2-0.1,0.3-0.3,0.4C402.6,311,402.4,311,402.3,310.9L402.3,310.9z M395.3,319.9
							L271.2,219.8c-0.1-0.1-0.2-0.3-0.2-0.4c0-0.2,0.1-0.3,0.3-0.4c0.2-0.1,0.3,0,0.5,0.1l124.1,100.1c0.1,0.1,0.2,0.3,0.2,0.4
							c0,0.2-0.1,0.3-0.3,0.4C395.6,320,395.4,320,395.3,319.9L395.3,319.9z"/>
						<path class="st5" d="M247,266h-5.4l-2.6-20l8,0L247,266z"/>
						<path class="st6" d="M238.2,263h9.8v7h-16c0-1.9,0.7-3.6,1.8-5C235,263.7,236.5,263,238.2,263L238.2,263z"/>
						<path class="st5" d="M195,266h-5.4l-2.6-20l8,0L195,266z"/>
						<path class="st6" d="M185.2,263h9.8v7h-16c0-1.9,0.7-3.6,1.8-5C182,263.7,183.5,263,185.2,263L185.2,263z M211,117.2v-2.3
							c0-8.2,6.7-14.9,15-14.9s15,6.7,15,14.9v2.3c0,5.9-4.8,10.8-10.8,10.8h-8.4c-2.9,0-5.6-1.1-7.6-3.2S211,120.1,211,117.2z"/>
						<circle class="st5" cx="227" cy="117" r="11"/>
						<path class="st5" d="M165.4,155.1c0.9-0.8,2.2-1.2,3.4-1.1c1.3,0.1,2.4,0.8,3.1,1.8l9.6-1.7l2.5,5.2l-13.6,2.2
							c-1.9,1-4.3,0.5-5.6-1.1C163.5,158.7,163.8,156.5,165.4,155.1L165.4,155.1z"/>
						<path class="st7" d="M217.7,134.6l0.1,0.2L202,145.2l-26.8,8.6c-0.7,0.2-1.2,1-1.1,1.7l0.6,5c0.1,0.4,0.3,0.9,0.7,1.1
							c0.4,0.3,0.8,0.4,1.3,0.3l25.3-5.4c1.2-0.3,2.4-0.8,3.4-1.5l17.9-12.7c1.3-0.9,2-2.5,1.9-4.1c-0.1-1.6-1.1-3-2.6-3.8
							s-3.2-0.6-4.5,0.3L217.7,134.6L217.7,134.6z"/>
						<path class="st8" d="M242.2,260c-0.8,0-1.6-0.5-1.9-1.2l-23.8-59.2c-0.1-0.3-0.4-0.4-0.7-0.4c-0.3,0-0.5,0.2-0.6,0.5
							l-19.4,57.7c-0.2,0.5-0.5,1-1.1,1.2c-0.5,0.2-1.1,0.3-1.6,0.1l-6.5-2.5c-0.7-0.3-1.2-0.9-1.3-1.7
							c-2.9-25.7,22.7-90.6,22.9-91.3l0.1-0.2l23.3,5.2l0,0.1c9.3,10.2,17,74.6,18.4,87.4c0.1,1-0.5,1.9-1.4,2.2l-5.8,2
							C242.7,260,242.4,260,242.2,260L242.2,260z"/>
						<path class="st9" d="M222.6,171c-5.7,0-12-1.1-13.9-5.9l0-0.1l0.1-0.1c1.5-2.6,3.6-6.9,2.5-7.7c-2.1-1.6-3.2-4.3-3.1-7.9
							c0.2-7.9,5.5-14.8,13.1-17.4c2.1-0.7,4.3-1.3,6.5-1.7c3.2-0.7,6.6,0.2,9.2,2.3c2.6,2.1,4.1,5.3,4.2,8.7
							c0.1,8.4-1.2,20.1-7.7,28.1c-0.3,0.4-0.7,0.6-1.2,0.7C228.9,170.7,225.7,171,222.6,171z"/>
						<path class="st5" d="M220.2,169.5c0.7-2.3,3.1-3.7,5.5-3.1c0.2,0.1,0.5,0.1,0.7,0.2l7.5-6.7l5.2,3.4l-10.7,9.3
							c-1,1.8-3.1,2.6-5.1,2.1c-1.1-0.3-2.1-1-2.7-2C220,171.8,219.8,170.6,220.2,169.5L220.2,169.5z"/>
						<path class="st7" d="M231.2,171c-0.5,0-1-0.2-1.4-0.5l-3-2.4c-0.5-0.4-0.8-1-0.8-1.6c0-0.6,0.3-1.2,0.9-1.6l12.8-9.3
							c0.3-0.2,0.4-0.7,0.1-1l-7.9-9.9c-1.9-2.4-1.7-5.7,0.4-7.8c2.3-2.3,6-2.6,8.6-0.7l0.1,0.1l8.2,11.2c1.8,1.3,2.8,3.4,2.8,5.6
							c0,2.2-1.1,4.2-3,5.5l-16.5,12C232.1,170.9,231.7,171,231.2,171L231.2,171z"/>
						<path class="st10" d="M216,112.2V107l10.2-4l9.8,4v5.1c0,0.5-0.4,0.8-0.9,0.8h-18.1C216.4,113,216,112.6,216,112.2L216,112.2z
							"/>
						<path class="st10" d="M225.4,99.9c-1.4-4.7,1.6-10.1,6.1-12c4.5-1.9,9.8-0.6,13.6,2.5c3.8,3.1,6.1,7.7,7.4,12.5
							c1.2,4.8,1.5,9.8,1.7,14.7c5.5,1,9.3,7.7,7.3,13.1c-1.9,5.4-9,8-13.9,5.2c-4.9-2.8-6.3-10.4-2.8-14.8
							c3.4-4.3,3.5-10.5,0.3-14.9c-3.3-4.5-9.1-6.1-14.1-3.9C228.3,103.4,224.9,100.4,225.4,99.9L225.4,99.9z"/>
						<path class="st11" d="M163,134c-6.8,0-13.6-1.6-19.8-4.4c-0.8-0.3-1.2-1.1-1.2-2v-17.4c0-1.2,0.9-2.2,2.1-2.2h37.8
							c1.2,0,2.1,1,2.1,2.2v17.4c0,0.8-0.5,1.6-1.2,2C176.6,132.4,169.8,134,163,134L163,134z"/>
						<path class="st11" d="M162.7,120c-0.3,0-0.6-0.1-0.8-0.2l-29.6-12.5c-0.8-0.3-1.3-1.1-1.3-2c0-0.9,0.5-1.6,1.3-1.9L162,92.1
							c0.5-0.2,1-0.2,1.5,0l29.2,11.3c0.8,0.3,1.3,1.1,1.3,1.9c0,0.8-0.5,1.6-1.3,2l-29.2,12.6C163.3,119.9,163,120,162.7,120
							L162.7,120z"/>
						<circle class="st12" cx="146" cy="127" r="3"/>
						<path class="st13" d="M192.9,104.8l-29,12.3c-0.5,0.2-1,0.2-1.4,0l-29.4-12.3c-0.4-0.2-0.7-0.4-0.9-0.8
							c-0.3,0.4-0.3,1-0.1,1.5c0.2,0.5,0.5,0.9,1,1.1l29.4,12.3c0.5,0.2,1,0.2,1.4,0l29-12.3c0.5-0.2,0.9-0.6,1-1.1
							c0.2-0.5,0.1-1-0.1-1.5C193.6,104.3,193.3,104.6,192.9,104.8L192.9,104.8z"/>
						<path class="st12" d="M145.4,128c0.2,0,0.4-0.2,0.4-0.5v-15.2l14.7-5.5c0.2,0,0.4-0.2,0.5-0.4c0-0.3-0.2-0.5-0.4-0.5
							l-14.7,5.5c-0.2,0-0.5,0.1-0.6,0.3c-0.2,0.2-0.3,0.4-0.3,0.6v15.2C145,127.8,145.2,128,145.4,128L145.4,128z"/>
					</g>
				</g>
			</g>
		</g>
	</g>
</g>
<g id="Cb0r4D.tif">
	
		<image style="overflow:visible;" width="3407" height="2410" id="Layer_1_00000163034260910494904050000005122154979528207785_" xlink:href="26C53D0168B161D9.png"  transform="matrix(0.1561 0 0 0.1561 -1517.4689 1029.1373)">
	</image>
</g>
</svg>
