<svg id="banner-logo" xmlns="http://www.w3.org/2000/svg" width="340" height="128" viewBox="0 0 340 128">
  <g id="Group_22" data-name="Group 22">
    <g id="Group_21" data-name="Group 21">
      <g id="Group_19" data-name="Group 19">
        <g id="Group_13" data-name="Group 13">
          <rect id="Rectangle_2" data-name="Rectangle 2" width="340" height="128" rx="6" fill="#d6e3ff"/>
          <path id="Path_2" data-name="Path 2" d="M219.235,0H334a6,6,0,0,1,6,6V122a6,6,0,0,1-6,6H174.232a6,6,0,0,1-5.594-8.17l45-116A6,6,0,0,1,219.235,0Z" fill="#3d3573"/>
        </g>
        <g id="Group_18" data-name="Group 18">
          <path id="Path_9" data-name="Path 9" d="M3.779-2.118h5.6V0H1.143V-12.8H3.779ZM13.4,0H10.854V-9.51H13.4Zm-2.7-11.971a1.251,1.251,0,0,1,.382-.94,1.436,1.436,0,0,1,1.042-.369,1.44,1.44,0,0,1,1.037.369,1.244,1.244,0,0,1,.387.94,1.247,1.247,0,0,1-.391.949,1.443,1.443,0,0,1-1.033.369,1.443,1.443,0,0,1-1.033-.369A1.247,1.247,0,0,1,10.705-11.971ZM17.877-9.51l.079,1.063a3.342,3.342,0,0,1,2.733-1.239,2.536,2.536,0,0,1,2.522,1.45,3.265,3.265,0,0,1,2.856-1.45,2.836,2.836,0,0,1,2.3.9,4.141,4.141,0,0,1,.756,2.711V0H26.578V-6.064a1.811,1.811,0,0,0-.316-1.182,1.4,1.4,0,0,0-1.116-.374,1.585,1.585,0,0,0-1.582,1.09L23.572,0h-2.54V-6.056a1.789,1.789,0,0,0-.325-1.2A1.416,1.416,0,0,0,19.6-7.62a1.646,1.646,0,0,0-1.564.9V0H15.5V-9.51ZM33.759,0H31.21V-9.51h2.549Zm-2.7-11.971a1.251,1.251,0,0,1,.382-.94,1.436,1.436,0,0,1,1.042-.369,1.44,1.44,0,0,1,1.037.369,1.244,1.244,0,0,1,.387.94,1.247,1.247,0,0,1-.391.949,1.443,1.443,0,0,1-1.033.369,1.443,1.443,0,0,1-1.033-.369A1.247,1.247,0,0,1,31.061-11.971Zm7.831.123V-9.51h1.626v1.863H38.892V-2.9a1.133,1.133,0,0,0,.2.756,1.015,1.015,0,0,0,.773.229,4.051,4.051,0,0,0,.747-.062V-.053a5.229,5.229,0,0,1-1.538.229,2.425,2.425,0,0,1-2.725-2.7V-7.646H34.963V-9.51h1.389v-2.338ZM46.31.176A4.668,4.668,0,0,1,42.9-1.107,4.561,4.561,0,0,1,41.59-4.526v-.246a5.745,5.745,0,0,1,.554-2.562,4.064,4.064,0,0,1,1.569-1.74,4.4,4.4,0,0,1,2.316-.611A3.947,3.947,0,0,1,49.1-8.455a5,5,0,0,1,1.121,3.489v1.037H44.165a2.36,2.36,0,0,0,.743,1.494,2.245,2.245,0,0,0,1.569.563,2.742,2.742,0,0,0,2.294-1.063l1.248,1.4A3.813,3.813,0,0,1,48.472-.277,5.075,5.075,0,0,1,46.31.176Zm-.29-7.813a1.587,1.587,0,0,0-1.226.512,2.651,2.651,0,0,0-.6,1.466h3.533v-.2a1.891,1.891,0,0,0-.457-1.311A1.638,1.638,0,0,0,46.02-7.638Zm5.247,2.813a5.731,5.731,0,0,1,1-3.542,3.237,3.237,0,0,1,2.729-1.318,2.913,2.913,0,0,1,2.294,1.037V-13.5h2.549V0H57.542l-.123-1.011A2.989,2.989,0,0,1,54.976.176a3.228,3.228,0,0,1-2.694-1.323A5.916,5.916,0,0,1,51.267-4.825Zm2.54.189a3.754,3.754,0,0,0,.466,2.051,1.517,1.517,0,0,0,1.354.713,1.7,1.7,0,0,0,1.661-.995V-6.625a1.675,1.675,0,0,0-1.644-.995Q53.807-7.62,53.807-4.636ZM75.56-10.661H71.64V0H69V-10.661H65.136V-12.8H75.56ZM79.576,0H77.027V-9.51h2.549Zm-2.7-11.971a1.251,1.251,0,0,1,.382-.94A1.436,1.436,0,0,1,78.3-13.28a1.44,1.44,0,0,1,1.037.369,1.244,1.244,0,0,1,.387.94,1.247,1.247,0,0,1-.391.949,1.443,1.443,0,0,1-1.033.369,1.443,1.443,0,0,1-1.033-.369A1.247,1.247,0,0,1,76.878-11.971ZM84.05-9.51l.079,1.063a3.342,3.342,0,0,1,2.733-1.239,2.536,2.536,0,0,1,2.522,1.45,3.265,3.265,0,0,1,2.856-1.45,2.836,2.836,0,0,1,2.3.9A4.141,4.141,0,0,1,95.3-6.073V0H92.751V-6.064a1.811,1.811,0,0,0-.316-1.182,1.4,1.4,0,0,0-1.116-.374,1.585,1.585,0,0,0-1.582,1.09L89.745,0h-2.54V-6.056a1.789,1.789,0,0,0-.325-1.2,1.416,1.416,0,0,0-1.107-.369,1.646,1.646,0,0,0-1.564.9V0h-2.54V-9.51ZM101.628.176a4.668,4.668,0,0,1-3.406-1.283,4.561,4.561,0,0,1-1.314-3.419v-.246a5.745,5.745,0,0,1,.554-2.562,4.064,4.064,0,0,1,1.569-1.74,4.4,4.4,0,0,1,2.316-.611,3.947,3.947,0,0,1,3.072,1.23,5,5,0,0,1,1.121,3.489v1.037H99.483a2.36,2.36,0,0,0,.743,1.494,2.245,2.245,0,0,0,1.569.563,2.742,2.742,0,0,0,2.294-1.063l1.248,1.4A3.813,3.813,0,0,1,103.79-.277,5.075,5.075,0,0,1,101.628.176Zm-.29-7.813a1.587,1.587,0,0,0-1.226.512,2.651,2.651,0,0,0-.6,1.466h3.533v-.2a1.891,1.891,0,0,0-.457-1.311A1.638,1.638,0,0,0,101.338-7.638ZM120.129,0h-8.771V-1.74l4.14-4.412a10.212,10.212,0,0,0,1.261-1.626,2.612,2.612,0,0,0,.409-1.318,1.955,1.955,0,0,0-.431-1.34,1.555,1.555,0,0,0-1.23-.488,1.677,1.677,0,0,0-1.358.593,2.35,2.35,0,0,0-.5,1.56H111.1a4.2,4.2,0,0,1,.558-2.136,3.934,3.934,0,0,1,1.578-1.516,4.8,4.8,0,0,1,2.312-.549,4.54,4.54,0,0,1,3.072.949,3.358,3.358,0,0,1,1.094,2.681,4.3,4.3,0,0,1-.492,1.934,10.745,10.745,0,0,1-1.687,2.294l-2.909,3.067h5.5ZM130.3-5.291a6.483,6.483,0,0,1-1.1,4.061A3.835,3.835,0,0,1,125.982.176a3.862,3.862,0,0,1-3.2-1.38,6.293,6.293,0,0,1-1.134-3.955V-7.515a6.4,6.4,0,0,1,1.112-4.069,3.864,3.864,0,0,1,3.2-1.389,3.867,3.867,0,0,1,3.2,1.375A6.273,6.273,0,0,1,130.3-7.646Zm-2.54-2.59a4.686,4.686,0,0,0-.435-2.318,1.47,1.47,0,0,0-1.358-.726,1.444,1.444,0,0,0-1.323.691,4.385,4.385,0,0,0-.453,2.16V-4.96a4.919,4.919,0,0,0,.426,2.327,1.451,1.451,0,0,0,1.367.761,1.426,1.426,0,0,0,1.345-.73,4.8,4.8,0,0,0,.431-2.235Zm4.219-2.455a2.53,2.53,0,0,1,.765-1.912,2.773,2.773,0,0,1,2-.734,2.817,2.817,0,0,1,2.021.725,2.578,2.578,0,0,1,.765,1.964v.633a2.5,2.5,0,0,1-.765,1.907,2.8,2.8,0,0,1-2,.721,2.82,2.82,0,0,1-2.017-.725,2.559,2.559,0,0,1-.769-1.956Zm1.688.677a1.184,1.184,0,0,0,.3.848,1.044,1.044,0,0,0,.8.321,1,1,0,0,0,.782-.325,1.259,1.259,0,0,0,.29-.87v-.65a1.233,1.233,0,0,0-.29-.853,1.017,1.017,0,0,0-.8-.325,1.019,1.019,0,0,0-.782.321,1.258,1.258,0,0,0-.3.892Zm4.43,6.521a2.5,2.5,0,0,1,.773-1.912,2.812,2.812,0,0,1,2-.725,2.841,2.841,0,0,1,2.017.716,2.564,2.564,0,0,1,.769,1.973v.633a2.517,2.517,0,0,1-.756,1.9,2.786,2.786,0,0,1-2.013.725,2.819,2.819,0,0,1-2.03-.729,2.548,2.548,0,0,1-.765-1.934Zm1.688.686a1.175,1.175,0,0,0,.316.826,1.032,1.032,0,0,0,.791.343q1.072,0,1.072-1.187v-.668a1.194,1.194,0,0,0-.3-.848,1.03,1.03,0,0,0-.791-.321,1.03,1.03,0,0,0-.791.321,1.232,1.232,0,0,0-.3.875ZM135.264-.958l-1.239-.668,6.249-10,1.239.668ZM11.188,16.737a4.528,4.528,0,0,1-1.525,3.252,5.355,5.355,0,0,1-3.625,1.187,4.816,4.816,0,0,1-3.872-1.657A6.793,6.793,0,0,1,.756,14.971v-.782a7.671,7.671,0,0,1,.65-3.252A4.874,4.874,0,0,1,3.265,8.779a5.207,5.207,0,0,1,2.808-.751A5.217,5.217,0,0,1,9.642,9.214a4.866,4.866,0,0,1,1.564,3.331H8.569a2.673,2.673,0,0,0-.69-1.8,2.555,2.555,0,0,0-1.806-.558,2.24,2.24,0,0,0-1.973.945,5.3,5.3,0,0,0-.672,2.931v.967a5.667,5.667,0,0,0,.628,3.032,2.2,2.2,0,0,0,1.982.958,2.6,2.6,0,0,0,1.824-.558,2.521,2.521,0,0,0,.69-1.727ZM18.264,21a2.821,2.821,0,0,1-.255-.853,3.073,3.073,0,0,1-2.4,1.028,3.376,3.376,0,0,1-2.316-.809,2.6,2.6,0,0,1-.918-2.039,2.687,2.687,0,0,1,1.121-2.32,5.529,5.529,0,0,1,3.239-.817H17.9v-.545a1.567,1.567,0,0,0-.338-1.055,1.331,1.331,0,0,0-1.068-.4,1.513,1.513,0,0,0-1.006.308,1.045,1.045,0,0,0-.365.844h-2.54a2.551,2.551,0,0,1,.51-1.529,3.37,3.37,0,0,1,1.441-1.1,5.253,5.253,0,0,1,2.092-.4,4.15,4.15,0,0,1,2.791.883,3.09,3.09,0,0,1,1.033,2.483V18.8a4.546,4.546,0,0,0,.378,2.048V21Zm-2.1-1.767a2.188,2.188,0,0,0,1.037-.25,1.645,1.645,0,0,0,.7-.672V16.676h-.949q-1.907,0-2.03,1.318l-.009.149a1.017,1.017,0,0,0,.334.782A1.3,1.3,0,0,0,16.163,19.233Zm11.391-.861a.818.818,0,0,0-.461-.734,5.241,5.241,0,0,0-1.481-.479q-3.393-.712-3.393-2.883a2.613,2.613,0,0,1,1.05-2.114,4.237,4.237,0,0,1,2.747-.848,4.56,4.56,0,0,1,2.9.853A2.687,2.687,0,0,1,30,14.382h-2.54a1.229,1.229,0,0,0-.352-.9,1.488,1.488,0,0,0-1.1-.356,1.52,1.52,0,0,0-.993.29.916.916,0,0,0-.352.738.783.783,0,0,0,.4.681,4.114,4.114,0,0,0,1.349.448,11.019,11.019,0,0,1,1.6.426,2.628,2.628,0,0,1,2.013,2.558,2.481,2.481,0,0,1-1.116,2.1,4.815,4.815,0,0,1-2.883.8A5.029,5.029,0,0,1,23.9,20.75a3.561,3.561,0,0,1-1.455-1.169,2.716,2.716,0,0,1-.527-1.6h2.408a1.326,1.326,0,0,0,.5,1.037,1.987,1.987,0,0,0,1.248.36,1.839,1.839,0,0,0,1.1-.277A.861.861,0,0,0,27.554,18.372Zm6.583-5.845a3.17,3.17,0,0,1,2.54-1.213q3.094,0,3.138,3.595V21h-2.54V14.979a1.767,1.767,0,0,0-.352-1.208,1.507,1.507,0,0,0-1.169-.391,1.729,1.729,0,0,0-1.617.861V21H31.6V7.5h2.54ZM50.3,16.333a5.758,5.758,0,0,1-.976,3.564A3.231,3.231,0,0,1,46.6,21.176a2.969,2.969,0,0,1-2.47-1.187L44.016,21H41.73V7.5h2.54v4.843a2.893,2.893,0,0,1,2.312-1.028,3.258,3.258,0,0,1,2.729,1.279,5.767,5.767,0,0,1,.989,3.6Zm-2.54-.185a3.783,3.783,0,0,0-.457-2.1,1.545,1.545,0,0,0-1.362-.664,1.676,1.676,0,0,0-1.67.993v3.753a1.7,1.7,0,0,0,1.688,1,1.568,1.568,0,0,0,1.617-1.213A6.257,6.257,0,0,0,47.76,16.148ZM57.375,21a2.821,2.821,0,0,1-.255-.853,3.073,3.073,0,0,1-2.4,1.028,3.376,3.376,0,0,1-2.316-.809,2.6,2.6,0,0,1-.918-2.039,2.687,2.687,0,0,1,1.121-2.32,5.529,5.529,0,0,1,3.239-.817h1.169v-.545a1.567,1.567,0,0,0-.338-1.055,1.331,1.331,0,0,0-1.068-.4A1.513,1.513,0,0,0,54.6,13.5a1.045,1.045,0,0,0-.365.844H51.7a2.551,2.551,0,0,1,.51-1.529,3.37,3.37,0,0,1,1.441-1.1,5.253,5.253,0,0,1,2.092-.4,4.15,4.15,0,0,1,2.791.883,3.09,3.09,0,0,1,1.033,2.483V18.8a4.546,4.546,0,0,0,.378,2.048V21Zm-2.1-1.767a2.188,2.188,0,0,0,1.037-.25,1.645,1.645,0,0,0,.7-.672V16.676h-.949q-1.907,0-2.03,1.318l-.009.149a1.017,1.017,0,0,0,.334.782A1.3,1.3,0,0,0,55.274,19.233Zm10.2-.105a1.666,1.666,0,0,0,1.143-.387,1.355,1.355,0,0,0,.457-1.028h2.382a3.258,3.258,0,0,1-.527,1.771A3.48,3.48,0,0,1,67.5,20.732a4.442,4.442,0,0,1-1.991.444,4.129,4.129,0,0,1-3.217-1.3A5.13,5.13,0,0,1,61.119,16.3v-.167a5.071,5.071,0,0,1,1.169-3.507,4.08,4.08,0,0,1,3.208-1.31,4,4,0,0,1,2.861,1.015,3.594,3.594,0,0,1,1.094,2.7H67.069a1.745,1.745,0,0,0-.457-1.206,1.7,1.7,0,0,0-2.5.183,3.749,3.749,0,0,0-.453,2.1v.264a3.8,3.8,0,0,0,.448,2.113A1.549,1.549,0,0,0,65.47,19.128Zm8.886-1.942-.914.914V21H70.9V7.5h2.54v7.479l.492-.633,2.435-2.856h3.05l-3.437,3.964L79.717,21H76.8Z" transform="translate(20 27)" fill="#3d3573"/>
          <path id="Path_8" data-name="Path 8" d="M6.651-2.6H2.481L1.545,0H.191l3.8-9.953H5.141L8.948,0H7.6ZM2.878-3.678H6.262l-1.7-4.655Zm9.311,1.962L14.021-7.4h1.292L12.66,0H11.7L9.017-7.4h1.292ZM20.993,0a2.657,2.657,0,0,1-.178-.779A2.822,2.822,0,0,1,18.71.137a2.611,2.611,0,0,1-1.794-.619,2,2,0,0,1-.7-1.569,2.091,2.091,0,0,1,.878-1.794,4.142,4.142,0,0,1,2.471-.639h1.23v-.581a1.42,1.42,0,0,0-.4-1.056,1.593,1.593,0,0,0-1.169-.393,1.844,1.844,0,0,0-1.135.342,1.007,1.007,0,0,0-.458.827H16.365a1.745,1.745,0,0,1,.393-1.07,2.683,2.683,0,0,1,1.066-.817,3.588,3.588,0,0,1,1.48-.3,2.924,2.924,0,0,1,2,.639,2.306,2.306,0,0,1,.752,1.76v3.4a4.162,4.162,0,0,0,.26,1.62V0Zm-2.1-.964a2.223,2.223,0,0,0,1.128-.308,1.861,1.861,0,0,0,.772-.8V-3.589H19.8q-2.324,0-2.324,1.36a1.151,1.151,0,0,0,.4.93A1.524,1.524,0,0,0,18.895-.964ZM25.416,0H24.151V-7.4h1.265ZM24.049-9.358a.755.755,0,0,1,.188-.52.706.706,0,0,1,.557-.212.717.717,0,0,1,.561.212.747.747,0,0,1,.191.52.722.722,0,0,1-.191.513.73.73,0,0,1-.561.205.718.718,0,0,1-.557-.205A.73.73,0,0,1,24.049-9.358ZM28.813,0H27.549V-10.5h1.265ZM40.564-3.616a4.4,4.4,0,0,1-.779,2.724A2.49,2.49,0,0,1,37.693.137a2.578,2.578,0,0,1-2.167-.991L35.465,0H34.3V-10.5h1.265v3.917a2.564,2.564,0,0,1,2.112-.95A2.505,2.505,0,0,1,39.8-6.515a4.53,4.53,0,0,1,.769,2.789ZM39.3-3.76a3.417,3.417,0,0,0-.5-2,1.652,1.652,0,0,0-1.436-.7,1.857,1.857,0,0,0-1.8,1.162v3.2A1.909,1.909,0,0,0,37.379-.937a1.643,1.643,0,0,0,1.415-.7A3.634,3.634,0,0,0,39.3-3.76Zm5.927,3.9a3.232,3.232,0,0,1-2.447-.988,3.666,3.666,0,0,1-.943-2.642v-.232a4.438,4.438,0,0,1,.42-1.965,3.28,3.28,0,0,1,1.176-1.354,2.956,2.956,0,0,1,1.637-.489,2.77,2.77,0,0,1,2.242.95,4.114,4.114,0,0,1,.8,2.721v.526H43.1a2.629,2.629,0,0,0,.639,1.767A2.009,2.009,0,0,0,45.295-.9a2.2,2.2,0,0,0,1.135-.273,2.851,2.851,0,0,0,.813-.725l.772.6A3.106,3.106,0,0,1,45.227.137Zm-.157-6.631a1.687,1.687,0,0,0-1.285.557,2.708,2.708,0,0,0-.643,1.562h3.705v-.1a2.409,2.409,0,0,0-.52-1.494A1.588,1.588,0,0,0,45.069-6.494ZM50.2,0V-6.419H49.027V-7.4H50.2v-.759a2.519,2.519,0,0,1,.636-1.839,2.4,2.4,0,0,1,1.8-.649,3.339,3.339,0,0,1,.868.115L53.43-9.509a3.632,3.632,0,0,0-.684-.062,1.234,1.234,0,0,0-.95.36,1.46,1.46,0,0,0-.335,1.032V-7.4H53.04v.978H51.461V0Zm3.9-3.767a4.369,4.369,0,0,1,.427-1.955,3.187,3.187,0,0,1,1.189-1.34,3.238,3.238,0,0,1,1.74-.472A3.119,3.119,0,0,1,59.9-6.487a4.024,4.024,0,0,1,.933,2.782v.089a4.407,4.407,0,0,1-.414,1.938A3.14,3.14,0,0,1,59.237-.342,3.275,3.275,0,0,1,57.47.137,3.111,3.111,0,0,1,55.033-.909,4,4,0,0,1,54.1-3.678Zm1.271.15a3.164,3.164,0,0,0,.571,1.976A1.827,1.827,0,0,0,57.47-.9,1.816,1.816,0,0,0,59-1.651a3.46,3.46,0,0,0,.567-2.116,3.159,3.159,0,0,0-.578-1.972,1.836,1.836,0,0,0-1.535-.755,1.816,1.816,0,0,0-1.511.745A3.434,3.434,0,0,0,55.371-3.616ZM65.994-6.262a3.79,3.79,0,0,0-.622-.048,1.667,1.667,0,0,0-1.688,1.06V0H62.419V-7.4h1.23l.021.854a1.969,1.969,0,0,1,1.764-.991,1.292,1.292,0,0,1,.561.1Zm4.1,6.4a3.232,3.232,0,0,1-2.447-.988,3.666,3.666,0,0,1-.943-2.642v-.232a4.438,4.438,0,0,1,.42-1.965A3.28,3.28,0,0,1,68.3-7.044a2.956,2.956,0,0,1,1.637-.489,2.77,2.77,0,0,1,2.242.95,4.114,4.114,0,0,1,.8,2.721v.526H67.97a2.629,2.629,0,0,0,.639,1.767A2.009,2.009,0,0,0,70.164-.9,2.2,2.2,0,0,0,71.3-1.169a2.851,2.851,0,0,0,.813-.725l.772.6A3.106,3.106,0,0,1,70.1.137Zm-.157-6.631a1.687,1.687,0,0,0-1.285.557,2.708,2.708,0,0,0-.643,1.562h3.705v-.1a2.409,2.409,0,0,0-.52-1.494A1.588,1.588,0,0,0,69.938-6.494ZM79.283,0H78.019V-7.4h1.265ZM77.916-9.358a.755.755,0,0,1,.188-.52.706.706,0,0,1,.557-.212.717.717,0,0,1,.561.212.747.747,0,0,1,.191.52.722.722,0,0,1-.191.513.73.73,0,0,1-.561.205.718.718,0,0,1-.557-.205A.73.73,0,0,1,77.916-9.358Zm5.106.171V-7.4H84.4v.978H83.022v4.593a1.027,1.027,0,0,0,.185.667.777.777,0,0,0,.629.222,3.062,3.062,0,0,0,.6-.082V0a3.688,3.688,0,0,1-.971.136,1.575,1.575,0,0,1-1.278-.513,2.2,2.2,0,0,1-.431-1.456V-6.419H80.411V-7.4h1.347V-9.187ZM85.969-7.15l-.718-.492a3.291,3.291,0,0,0,.656-1.873V-10.5h1.251v.889a3.162,3.162,0,0,1-.338,1.364A3.147,3.147,0,0,1,85.969-7.15Zm6.248,5.188a.931.931,0,0,0-.386-.8,3.718,3.718,0,0,0-1.347-.489,6.367,6.367,0,0,1-1.524-.492,2.169,2.169,0,0,1-.834-.684,1.635,1.635,0,0,1-.27-.943A1.919,1.919,0,0,1,88.625-6.9a3,3,0,0,1,1.965-.629,3.091,3.091,0,0,1,2.041.649,2.063,2.063,0,0,1,.783,1.661H92.142a1.142,1.142,0,0,0-.441-.9,1.652,1.652,0,0,0-1.111-.376,1.729,1.729,0,0,0-1.08.3.947.947,0,0,0-.39.786.767.767,0,0,0,.362.69,4.458,4.458,0,0,0,1.309.444,6.821,6.821,0,0,1,1.535.506,2.239,2.239,0,0,1,.872.708,1.74,1.74,0,0,1,.284,1.008,1.893,1.893,0,0,1-.793,1.589,3.326,3.326,0,0,1-2.058.6,3.725,3.725,0,0,1-1.572-.314,2.557,2.557,0,0,1-1.07-.878,2.117,2.117,0,0,1-.386-1.22h1.265a1.309,1.309,0,0,0,.509,1.008A1.976,1.976,0,0,0,90.631-.9a2.039,2.039,0,0,0,1.152-.291A.893.893,0,0,0,92.217-1.962Zm8.094-7.226V-7.4h1.381v.978h-1.381v4.593a1.027,1.027,0,0,0,.185.667.777.777,0,0,0,.629.222,3.062,3.062,0,0,0,.6-.082V0a3.688,3.688,0,0,1-.971.136,1.575,1.575,0,0,1-1.278-.513,2.2,2.2,0,0,1-.431-1.456V-6.419H97.7V-7.4h1.347V-9.187ZM102.7-3.767a4.369,4.369,0,0,1,.427-1.955,3.187,3.187,0,0,1,1.189-1.34,3.238,3.238,0,0,1,1.74-.472A3.119,3.119,0,0,1,108.5-6.487a4.024,4.024,0,0,1,.933,2.782v.089a4.407,4.407,0,0,1-.414,1.938,3.14,3.14,0,0,1-1.183,1.336,3.275,3.275,0,0,1-1.767.479,3.111,3.111,0,0,1-2.437-1.046,4,4,0,0,1-.933-2.769Zm1.271.15a3.164,3.164,0,0,0,.571,1.976,1.827,1.827,0,0,0,1.528.745,1.816,1.816,0,0,0,1.531-.755,3.46,3.46,0,0,0,.567-2.116,3.159,3.159,0,0,0-.578-1.972,1.836,1.836,0,0,0-1.535-.755,1.816,1.816,0,0,0-1.511.745A3.434,3.434,0,0,0,103.968-3.616Zm6.713-.15a4.369,4.369,0,0,1,.427-1.955,3.187,3.187,0,0,1,1.189-1.34,3.238,3.238,0,0,1,1.74-.472,3.119,3.119,0,0,1,2.444,1.046,4.024,4.024,0,0,1,.933,2.782v.089A4.407,4.407,0,0,1,117-1.678a3.14,3.14,0,0,1-1.183,1.336,3.275,3.275,0,0,1-1.767.479,3.111,3.111,0,0,1-2.437-1.046,4,4,0,0,1-.933-2.769Zm1.271.15a3.164,3.164,0,0,0,.571,1.976,1.827,1.827,0,0,0,1.528.745,1.816,1.816,0,0,0,1.531-.755,3.46,3.46,0,0,0,.567-2.116,3.159,3.159,0,0,0-.578-1.972,1.836,1.836,0,0,0-1.535-.755,1.816,1.816,0,0,0-1.511.745A3.434,3.434,0,0,0,111.952-3.616ZM123.84,0h-1.265V-10.5h1.265Zm6.59,0a2.657,2.657,0,0,1-.178-.779,2.822,2.822,0,0,1-2.105.916,2.611,2.611,0,0,1-1.794-.619,2,2,0,0,1-.7-1.569,2.091,2.091,0,0,1,.878-1.794A4.141,4.141,0,0,1,129-4.484h1.23v-.581a1.42,1.42,0,0,0-.4-1.056,1.593,1.593,0,0,0-1.169-.393,1.844,1.844,0,0,0-1.135.342,1.007,1.007,0,0,0-.458.827H125.8a1.745,1.745,0,0,1,.393-1.07,2.683,2.683,0,0,1,1.066-.817,3.588,3.588,0,0,1,1.48-.3,2.924,2.924,0,0,1,2,.639,2.306,2.306,0,0,1,.752,1.76v3.4a4.162,4.162,0,0,0,.26,1.62V0Zm-2.1-.964a2.223,2.223,0,0,0,1.128-.308,1.861,1.861,0,0,0,.772-.8V-3.589h-.991q-2.324,0-2.324,1.36a1.151,1.151,0,0,0,.4.93A1.524,1.524,0,0,0,128.331-.964Zm6.863-8.224V-7.4h1.381v.978h-1.381v4.593a1.027,1.027,0,0,0,.185.667.777.777,0,0,0,.629.222,3.062,3.062,0,0,0,.6-.082V0a3.688,3.688,0,0,1-.971.136,1.575,1.575,0,0,1-1.278-.513,2.2,2.2,0,0,1-.431-1.456V-6.419h-1.347V-7.4h1.347V-9.187ZM141.121.137a3.232,3.232,0,0,1-2.447-.988,3.666,3.666,0,0,1-.943-2.642v-.232a4.438,4.438,0,0,1,.42-1.965,3.279,3.279,0,0,1,1.176-1.354,2.956,2.956,0,0,1,1.637-.489,2.77,2.77,0,0,1,2.242.95,4.114,4.114,0,0,1,.8,2.721v.526H139a2.629,2.629,0,0,0,.639,1.767,2.009,2.009,0,0,0,1.555.673,2.2,2.2,0,0,0,1.135-.273,2.851,2.851,0,0,0,.813-.725l.772.6A3.106,3.106,0,0,1,141.121.137Zm-.157-6.631a1.687,1.687,0,0,0-1.285.557,2.708,2.708,0,0,0-.643,1.562h3.705v-.1a2.409,2.409,0,0,0-.52-1.494A1.588,1.588,0,0,0,140.964-6.494ZM145.5-.663a.792.792,0,0,1,.195-.547.742.742,0,0,1,.584-.219.765.765,0,0,1,.591.219.776.776,0,0,1,.2.547.734.734,0,0,1-.2.526.778.778,0,0,1-.591.212.755.755,0,0,1-.584-.212A.748.748,0,0,1,145.5-.663Z" transform="translate(20 70)" fill="#3d3573"/>
          <g id="Group_17" data-name="Group 17" transform="translate(20 90)">
            <path id="Path_7" data-name="Path 7" d="M12.5,0h88a12.5,12.5,0,0,1,0,25h-88a12.5,12.5,0,0,1,0-25Z" transform="translate(0 0.5)" fill="none" stroke="#3d3573" stroke-width="1"/>
            <g id="Group_16" data-name="Group 16">
              <path id="Path_6" data-name="Path 6" d="M5.7-2.232H2.127L1.324,0H.164L3.422-8.531h.984L7.67,0H6.516Zm-3.234-.92h2.9L3.914-7.143Zm7.98,1.682,1.57-4.869h1.107L10.852,0h-.826l-2.3-6.34H8.836ZM17.994,0a2.277,2.277,0,0,1-.152-.668,2.419,2.419,0,0,1-1.8.785A2.238,2.238,0,0,1,14.5-.413a1.716,1.716,0,0,1-.6-1.345A1.792,1.792,0,0,1,14.651-3.3a3.55,3.55,0,0,1,2.118-.548h1.055v-.5a1.217,1.217,0,0,0-.34-.905,1.366,1.366,0,0,0-1-.337,1.581,1.581,0,0,0-.973.293.863.863,0,0,0-.393.709h-1.09a1.5,1.5,0,0,1,.337-.917,2.3,2.3,0,0,1,.914-.7,3.075,3.075,0,0,1,1.269-.258,2.506,2.506,0,0,1,1.717.548A1.976,1.976,0,0,1,18.908-4.4v2.918a3.567,3.567,0,0,0,.223,1.389V0ZM16.2-.826a1.905,1.905,0,0,0,.967-.264,1.6,1.6,0,0,0,.662-.686v-1.3h-.85q-1.992,0-1.992,1.166a.987.987,0,0,0,.34.8A1.306,1.306,0,0,0,16.2-.826ZM21.785,0H20.7V-6.34h1.084ZM20.613-8.021a.647.647,0,0,1,.161-.445.6.6,0,0,1,.478-.182.614.614,0,0,1,.48.182.64.64,0,0,1,.164.445.619.619,0,0,1-.164.439.626.626,0,0,1-.48.176.616.616,0,0,1-.478-.176A.626.626,0,0,1,20.613-8.021ZM24.7,0H23.613V-9H24.7ZM36.129,0H35L30.7-6.574V0H29.572V-8.531H30.7l4.307,6.6v-6.6h1.119ZM37.67-3.229A3.745,3.745,0,0,1,38.036-4.9a2.732,2.732,0,0,1,1.02-1.148,2.775,2.775,0,0,1,1.491-.4,2.674,2.674,0,0,1,2.095.9,3.449,3.449,0,0,1,.8,2.385V-3.1a3.777,3.777,0,0,1-.354,1.661A2.692,2.692,0,0,1,42.073-.293a2.807,2.807,0,0,1-1.515.41,2.667,2.667,0,0,1-2.089-.9,3.432,3.432,0,0,1-.8-2.373Zm1.09.129a2.712,2.712,0,0,0,.489,1.693,1.566,1.566,0,0,0,1.31.639,1.556,1.556,0,0,0,1.313-.647,2.966,2.966,0,0,0,.486-1.813,2.708,2.708,0,0,0-.5-1.69,1.574,1.574,0,0,0-1.315-.647,1.557,1.557,0,0,0-1.295.639A2.944,2.944,0,0,0,38.76-3.1ZM50.414-1.494,51.633-6.34h1.084L50.871,0h-.879L48.451-4.8,46.951,0h-.879l-1.84-6.34h1.078l1.248,4.746L48.035-6.34h.873Z" transform="translate(8 17)" fill="#3d3573"/>
              <g id="Group_15" data-name="Group 15">
                <g id="Group_14" data-name="Group 14">
                  <path id="Path_3" data-name="Path 3" d="M10.769.171a.56.56,0,0,0-.806,0,.58.58,0,0,0,0,.807l4.086,4.135H.564A.565.565,0,0,0,0,5.685a.571.571,0,0,0,.564.579H14.05L9.963,10.39a.591.591,0,0,0,0,.816.56.56,0,0,0,.806,0l5.054-5.114a.567.567,0,0,0,0-.807L10.769.17Z" transform="translate(89 7)" fill="#3d3573"/>
                </g>
              </g>
            </g>
          </g>
        </g>
      </g>
      <g id="Group_20" data-name="Group 20">
        <path id="Path_4" data-name="Path 4" d="M0,0V4.285H4.014V14.727H9.606V4.285H13.62V0ZM18.128,0,12.45,14.727h5.663L21.2,5.815l3.1,8.912h5.654L24.29,0Zm10.66,0V4.285h4V14.727h5.59V4.285H42.4V0H28.789ZM46.9,0,41.214,14.727H46.89l3.093-8.912,3.089,8.912h5.666L53.072,0ZM0,36.836C0,26.878,5.362,22.09,14.733,22.09c5.69,0,9.41,2.017,11.34,4.54a2.2,2.2,0,0,1,.518,1.382,2.4,2.4,0,0,1-2.543,2.227,2.735,2.735,0,0,1-1.93-.84,9.5,9.5,0,0,0-7.387-2.938c-6.26,0-9.085,3.444-9.085,10.375,0,7.351,2.824,10.336,9.085,10.336,3.48,0,5.365-.712,7.624-2.774a2.954,2.954,0,0,1,2.024-.923,2.408,2.408,0,0,1,2.542,2.268,1.935,1.935,0,0,1-.472,1.262c-2.259,2.687-6.681,4.538-11.716,4.538C5.363,51.543,0,47.133,0,36.836M44.156,46.872a2.336,2.336,0,1,1,0,4.672h-12.4a2.338,2.338,0,0,1-2.388-2.423V24.6a2.43,2.43,0,1,1,4.858,0V46.872h9.929Zm12.134,2.07a2.452,2.452,0,1,1-4.9,0V32.055a2.452,2.452,0,1,1,4.9,0V48.94ZM90.463,54a2.5,2.5,0,0,1-1.786-.742l-3.42-3.431-.99.6c-.205.125-.412.246-.622.36l-.083.04a16.09,16.09,0,0,1-4.814,1.588,14.938,14.938,0,0,1-2.294.182,15.961,15.961,0,0,1-3.788-.47A15.684,15.684,0,0,1,67.379,49.6a14.908,14.908,0,0,1-3.964-4.31q-.405-.651-.744-1.338A15.19,15.19,0,0,1,61.4,39.926l-.024-.145-.03-.166-.031-.246a15.04,15.04,0,0,1,.333-5.756,15.24,15.24,0,0,1,2.564-5.286,15.459,15.459,0,0,1,4.357-3.97,14.3,14.3,0,0,1,2.092-1.084,15.74,15.74,0,0,1,3.6-1.014A15.035,15.035,0,0,1,80.4,22.6l.046.007c.157.047.308.084.453.133l.049.015A15.267,15.267,0,0,1,88.8,28.516c.235.333.43.638.6.927a15.392,15.392,0,0,1,1.737,4.134,14.7,14.7,0,0,1,.343,1.853,16.494,16.494,0,0,1-.333,5.628,15.265,15.265,0,0,1-1.723,4.17l-.592.994,3.421,3.441A2.539,2.539,0,0,1,90.461,54M76.579,26.27a10.911,10.911,0,0,0-1.664.127,11.643,11.643,0,0,0-4.19,1.517l-.034.02a11.605,11.605,0,0,0-3.133,2.9,10.572,10.572,0,0,0-1.853,3.86,9.991,9.991,0,0,0-.24,4.289,10.523,10.523,0,0,0,1.493,4.084,10.862,10.862,0,0,0,2.883,3.124,11,11,0,0,0,10.852,1.36,10.836,10.836,0,0,0,4.618-3.689,10.725,10.725,0,0,0,1.79-3.834,11.53,11.53,0,0,0,.22-4.337,11.25,11.25,0,0,0-4.283-7.25,10.606,10.606,0,0,0-6.459-2.172" transform="translate(222 37)" fill="#fff"/>
        <path id="Path_5" data-name="Path 5" d="M58.087,24.675a3.119,3.119,0,0,1-4.41,4.411l-3.822-3.822a3.118,3.118,0,0,1,4.408-4.409l3.824,3.823v0Z" transform="translate(222 37)" fill="#ff1744"/>
      </g>
    </g>
  </g>
</svg>
