<svg xmlns="http://www.w3.org/2000/svg" width="18.238" height="18.155" viewBox="0 0 18.238 18.155">
  <g id="cancel1" transform="translate(0.545 0.584)">
    <path id="Path_7" data-name="Path 7" d="M.917,17.071a.879.879,0,0,1-.621-1.5L15.611.257A.878.878,0,0,1,16.853,1.5L1.539,16.813a.881.881,0,0,1-.622.258Zm0,0" transform="translate(0)" fill="#9b9b9b" stroke="#9b9b9b" stroke-width="1"/>
    <path id="Path_8" data-name="Path 8" d="M16.232,17.071a.871.871,0,0,1-.621-.258L.3,1.5A.878.878,0,0,1,1.538.257L16.853,15.571a.879.879,0,0,1-.62,1.5Zm0,0" transform="translate(0 0)" fill="#9b9b9b" stroke="#9b9b9b" stroke-width="1"/>
  </g>
</svg>
