<svg xmlns="http://www.w3.org/2000/svg" width="35.968" height="26" viewBox="0 0 63.968 47">
  <g id="chart" transform="translate(-20.537 -25.8)">
    <g id="Group_17" data-name="Group 17">
      <path id="Path_8" data-name="Path 8" d="M24.1,72.8a3.581,3.581,0,0,0,2.5-1.1l19-19.8,9.9,5.9a3.4,3.4,0,0,0,4.4-.7L76.8,37.8l.7,10.6A3.508,3.508,0,0,0,81,51.7h.2A3.55,3.55,0,0,0,84.5,48L83.3,29.1a3.7,3.7,0,0,0-1.2-2.4,3.84,3.84,0,0,0-2.5-.9L60.7,27a3.506,3.506,0,0,0,.4,7l10.4-.7-14.9,17-9.8-5.8a3.486,3.486,0,0,0-4.3.6l-21,21.8a3.5,3.5,0,0,0,2.6,5.9Z" fill="#fc7b4a"/>
    </g>
  </g>
</svg>
