<svg width="25" height="17" viewBox="0 0 25 17" fill="none" xmlns="http://www.w3.org/2000/svg">
<path d="M1.563 3.126C2.42622 3.126 3.126 2.42622 3.126 1.563C3.126 0.699779 2.42622 0 1.563 0C0.699779 0 0 0.699779 0 1.563C0 2.42622 0.699779 3.126 1.563 3.126Z" fill="#FC7B4A"/>
<path d="M1.563 10.001C2.42622 10.001 3.126 9.30122 3.126 8.438C3.126 7.57478 2.42622 6.875 1.563 6.875C0.699779 6.875 0 7.57478 0 8.438C0 9.30122 0.699779 10.001 1.563 10.001Z" fill="#FC7B4A"/>
<path d="M1.563 16.876C2.42622 16.876 3.126 16.1762 3.126 15.313C3.126 14.4498 2.42622 13.75 1.563 13.75C0.699779 13.75 0 14.4498 0 15.313C0 16.1762 0.699779 16.876 1.563 16.876Z" fill="#FC7B4A"/>
<path d="M23.088 6.875H5.934C5.074 6.875 4.375 7.573 4.375 8.435C4.375 9.295 5.073 9.994 5.935 9.994H23.088C23.95 9.994 24.648 9.296 24.648 8.434C24.648 7.574 23.95 6.875 23.088 6.875V6.875ZM21.841 0H6.247C5.385 0 4.687 0.698 4.687 1.56C4.687 2.42 5.385 3.119 6.247 3.119H21.84C22.701 3.119 23.4 2.421 23.4 1.559C23.4 0.7 22.702 0 21.84 0H21.841ZM16.07 13.75H5.935C5.075 13.75 4.376 14.448 4.376 15.31C4.376 16.17 5.074 16.869 5.936 16.869H16.07C16.931 16.869 17.63 16.171 17.63 15.309C17.63 14.449 16.931 13.75 16.07 13.75Z" fill="black"/>
</svg>
