<svg xmlns="http://www.w3.org/2000/svg" width="27" height="16" viewBox="0 0 27 16">
    <g fill="none" fill-rule="evenodd">
        <g fill="#FFF" fill-rule="nonzero">
            <g>
                <g>
                    <g>
                        <path d="M3.49 6.982c1.756 0 3.209-1.304 3.452-2.992h19.49c.275 0 .498-.223.498-.5 0-.275-.223-.498-.499-.498H6.941C6.7 1.304 5.247 0 3.492 0 1.566 0 0 1.566 0 3.49c0 1.925 1.566 3.492 3.49 3.492zm0-5.985c1.376 0 2.494 1.119 2.494 2.494 0 1.375-1.118 2.493-2.493 2.493-1.375 0-2.494-1.118-2.494-2.493C.997 2.116 2.116.997 3.491.997zM26.431 12.01H17.14c-.197-1.796-1.723-3.198-3.57-3.198-1.849 0-3.375 1.403-3.572 3.198H.499c-.276 0-.499.223-.499.5 0 .275.223.498.499.498h9.53c.287 1.695 1.763 2.992 3.54 2.992 1.776 0 3.25-1.297 3.538-2.992h9.324c.276 0 .499-.223.499-.499s-.223-.499-.499-.499zm-12.863 2.993c-1.432 0-2.597-1.165-2.597-2.597s1.165-2.597 2.597-2.597 2.597 1.165 2.597 2.597-1.165 2.597-2.597 2.597z" transform="translate(-128 -451) translate(120 334) translate(0 110) translate(8 7)"/>
                    </g>
                </g>
            </g>
        </g>
    </g>
</svg>
