<svg width="25" height="25" viewBox="0 0 25 25" fill="none" xmlns="http://www.w3.org/2000/svg">
<path d="M16.5569 12.034C16.3799 11.681 16.0199 11.458 15.6249 11.458H13.5419V1.042C13.5419 0.467 13.0759 0 12.4999 0C11.9239 0 11.4579 0.467 11.4579 1.042V11.458H9.37494C8.97994 11.458 8.61994 11.681 8.44294 12.034C8.26794 12.387 8.30494 12.809 8.54194 13.125L11.6669 17.292C11.6799 17.309 11.7009 17.316 11.7159 17.332C11.7839 17.413 11.8659 17.476 11.9559 17.533C11.9939 17.556 12.0229 17.586 12.0639 17.605C12.1969 17.668 12.3429 17.708 12.4999 17.708C12.6569 17.708 12.8029 17.668 12.9379 17.605C12.9779 17.586 13.0079 17.556 13.0439 17.533C13.1339 17.476 13.2159 17.413 13.2839 17.333C13.2979 17.316 13.3199 17.309 13.3339 17.292L16.4579 13.125C16.6959 12.809 16.7329 12.387 16.5579 12.035L16.5569 12.034Z" fill="#282828"/>
<path d="M23.958 15.625C23.382 15.625 22.917 16.092 22.917 16.667V19.792C22.917 21.515 21.515 22.917 19.792 22.917H5.208C3.485 22.917 2.083 21.515 2.083 19.792V16.667C2.083 16.092 1.618 15.625 1.042 15.625C0.466 15.625 0 16.092 0 16.667V19.792C0 22.664 2.336 25 5.208 25H19.792C22.664 25 25 22.664 25 19.792V16.667C25 16.092 24.534 15.625 23.958 15.625V15.625Z" fill="#FC7B4A"/>
</svg>
