<svg xmlns="http://www.w3.org/2000/svg" width="16" height="17" viewBox="0 0 16 17">
    <g fill="none" fill-rule="evenodd">
        <g fill="#606060" fill-rule="nonzero">
            <g>
                <path d="M7.974 0C3.57 0 0 3.57 0 7.974s3.57 7.973 7.974 7.973 7.973-3.569 7.973-7.973S12.377 0 7.974 0zm0 14.452c-3.579 0-6.479-2.9-6.479-6.478 0-3.579 2.9-6.479 6.479-6.479 3.578 0 6.478 2.9 6.478 6.479 0 3.578-2.9 6.478-6.478 6.478zm0-10.955c-.571 0-1.003.298-1.003.78v4.415c0 .482.432.779 1.003.779.557 0 1.003-.31 1.003-.78V4.277c0-.47-.446-.78-1.003-.78zm0 6.968c-.549 0-.995.447-.995.996 0 .548.446.995.995.995.549 0 .995-.447.995-.995 0-.55-.446-.996-.995-.996z" transform="translate(-760 -374) translate(760 374.028)"/>
            </g>
        </g>
    </g>
</svg>
