<svg xmlns="http://www.w3.org/2000/svg" width="128" height="128" viewBox="0 0 128 128">
    <g fill="none" fill-rule="evenodd">
        <g fill="#E2574C" fill-rule="nonzero">
            <g>
                <path d="M63.789 0C28.561 0 0 28.561 0 63.789c0 35.232 28.561 63.79 63.789 63.79 35.232 0 63.79-28.554 63.79-63.79C127.578 28.561 99.02 0 63.788 0zm0 115.617c-28.625 0-51.828-23.203-51.828-51.828 0-28.625 23.203-51.828 51.828-51.828 28.625 0 51.828 23.203 51.828 51.828 0 28.625-23.203 51.828-51.828 51.828zm.004-87.642c-4.569 0-8.026 2.385-8.026 6.236v35.323c0 3.855 3.457 6.231 8.026 6.231 4.457 0 8.026-2.475 8.026-6.231V34.21c0-3.76-3.569-6.236-8.026-6.236zm0 55.748c-4.39 0-7.962 3.573-7.962 7.966 0 4.385 3.573 7.957 7.962 7.957 4.39 0 7.958-3.572 7.958-7.957 0-4.394-3.568-7.966-7.958-7.966z" transform="translate(-396 -350) translate(396 350)"/>
            </g>
        </g>
    </g>
</svg>
