<svg xmlns="http://www.w3.org/2000/svg" width="24" height="24" viewBox="0 0 24 24">
    <defs>
        <linearGradient id="z7z2jstboa" x1="6.714%" x2="93.608%" y1="93.485%" y2="6.619%">
            <stop offset=".014%" stop-color="#FD5"/>
            <stop offset="50%" stop-color="#FF543E"/>
            <stop offset="100%" stop-color="#C837AB"/>
        </linearGradient>
    </defs>
    <g fill="none" fill-rule="evenodd">
        <g>
            <g>
                <g>
                    <g>
                        <g>
                            <g>
                                <g transform="translate(-196 -2361) translate(100 2026) translate(16 20) translate(0 35) translate(0 180) translate(0 100) translate(80)">
                                    <circle cx="12" cy="12" r="12" fill="url(#z7z2jstboa)"/>
                                    <g fill="#FFF" fill-rule="nonzero">
                                        <path d="M8.03.652c-3.008 0-5.864-.267-6.955 2.533C.625 4.342.69 5.844.69 7.995c0 1.887-.06 3.66.385 4.808 1.088 2.802 3.968 2.533 6.954 2.533 2.88 0 5.85.3 6.955-2.533.452-1.168.385-2.648.385-4.809 0-2.868.159-4.72-1.232-6.11C12.728.476 10.824.652 8.027.652h.004zm-.657 1.323c6.275-.01 7.073-.707 6.633 8.984-.157 3.427-2.767 3.05-5.974 3.05-5.85 0-6.018-.166-6.018-6.018 0-5.92.464-6.012 5.359-6.017v.001zm4.576 1.22c-.486 0-.88.394-.88.88s.394.88.88.88c.487 0 .881-.394.881-.88s-.394-.88-.88-.88zM8.031 4.223c-2.082 0-3.77 1.688-3.77 3.77s1.688 3.77 3.77 3.77 3.768-1.688 3.768-3.77-1.686-3.77-3.768-3.77zm0 1.323c3.235 0 3.24 4.895 0 4.895-3.235 0-3.24-4.895 0-4.895z" transform="translate(4 4)"/>
                                    </g>
                                </g>
                            </g>
                        </g>
                    </g>
                </g>
            </g>
        </g>
    </g>
</svg>
