<?xml version="1.0" encoding="utf-8"?>
<!-- Generator: Adobe Illustrator 25.4.0, SVG Export Plug-In . SVG Version: 6.00 Build 0)  -->
<svg version="1.1" id="Layer_1" xmlns="http://www.w3.org/2000/svg" xmlns:xlink="http://www.w3.org/1999/xlink" x="0px" y="0px"
	 viewBox="0 0 32 32" style="enable-background:new 0 0 32 32;" xml:space="preserve">
<style type="text/css">
	.st0{fill:#FF0000;}
	.st1{fill:#FFFFFF;}
</style>
<g>
	<g>
		<g>
			<g>
				<g>
					<g>
						<path class="st0" d="M16,0C7.2,0,0,7.2,0,16s7.2,16,16,16s16-7.2,16-16C32,7.2,24.8,0,16,0z"/>
						<path class="st1" d="M23.3,8.7c-0.2-0.2-0.5-0.2-0.7,0L16,15.3L9.4,8.7c-0.2-0.2-0.5-0.2-0.7,0c-0.2,0.2-0.2,0.5,0,0.7l0,0
							l6.6,6.6l-6.6,6.6c-0.2,0.2-0.2,0.5,0,0.7c0.2,0.2,0.5,0.2,0.7,0l0,0l6.6-6.6l6.6,6.6c0.2,0.2,0.5,0.2,0.7,0
							c0.2-0.2,0.2-0.5,0-0.7L16.7,16l6.6-6.6C23.5,9.2,23.5,8.9,23.3,8.7z"/>
					</g>
				</g>
			</g>
		</g>
	</g>
</g>
</svg>
