<svg xmlns="http://www.w3.org/2000/svg" width="14" height="14" viewBox="0 0 14 14">
    <g fill="none" fill-rule="evenodd">
        <g fill="#E2574C" fill-rule="nonzero">
            <g>
                <g>
                    <path d="M6.977 0C3.124 0 0 3.124 0 6.977s3.124 6.977 6.977 6.977 6.977-3.123 6.977-6.977C13.954 3.124 10.83 0 6.977 0zm0 12.646c-3.131 0-5.669-2.538-5.669-5.67 0-3.13 2.538-5.668 5.669-5.668 3.13 0 5.669 2.538 5.669 5.669 0 3.13-2.538 5.669-5.67 5.669zm0-9.586c-.5 0-.877.26-.877.682v3.863c0 .422.378.682.877.682.488 0 .878-.271.878-.682V3.742c0-.411-.39-.682-.878-.682zm0 6.097c-.48 0-.87.391-.87.871s.39.87.87.87.87-.39.87-.87-.39-.87-.87-.87z" transform="translate(-564 -570) translate(396 350) translate(168 220)"/>
                </g>
            </g>
        </g>
    </g>
</svg>
