<svg id="info_" data-name="info@" xmlns="http://www.w3.org/2000/svg" width="26.435" height="26.435" viewBox="0 0 26.435 26.435">
  <g id="Group_15" data-name="Group 15">
    <g id="Group_14" data-name="Group 14">
      <g id="Group_13" data-name="Group 13">
        <path id="Path_2" data-name="Path 2" d="M13.218,0A13.218,13.218,0,1,0,26.435,13.218,13.218,13.218,0,0,0,13.218,0Zm0,23.957a10.74,10.74,0,1,1,10.74-10.74,10.74,10.74,0,0,1-10.74,10.74Zm0-18.16c-.947,0-1.661.493-1.661,1.292v7.318c0,.8.716,1.292,1.661,1.292.924,0,1.663-.513,1.663-1.292V7.089c0-.779-.739-1.292-1.663-1.292Zm0,11.551A1.649,1.649,0,1,0,14.866,19a1.651,1.651,0,0,0-1.648-1.65Z" fill="#c4c4c4"/>
      </g>
    </g>
  </g>
</svg>
