<svg xmlns="http://www.w3.org/2000/svg" width="427" height="366" viewBox="0 0 427 366">
    <g fill="none" fill-rule="evenodd">
        <g>
            <g>
                <g>
                    <g>
                        <path fill="#FADCD2" d="M75.616 360.895c-58.895-7.98-44.58-43.646 76.317-43.646 120.897 0-18.464-15.109 120.088-15.109 138.553 0 176.446 33.33 125.924 48.443-50.522 15.114-263.434 18.292-322.33 10.312z" transform="translate(-88 -1101) translate(40 956) translate(0 114) translate(48 31)"/>
                        <path fill="#00BED0" fill-rule="nonzero" d="M158.487 256.571c6.78 0 12.275-6.574 12.275-14.684s-9.472-5.303-16.252-5.303c-6.78 0-20.748-7.294-20.748.816s17.945 19.171 24.725 19.171z" transform="translate(-88 -1101) translate(40 956) translate(0 114) translate(48 31) rotate(141 152.262 245.071)"/>
                        <g transform="translate(-88 -1101) translate(40 956) translate(0 114) translate(48 31)">
                            <path fill="#FFF" fill-rule="nonzero" d="M310 271v59H160.825C143.829 330 130 316.766 130 300.5s13.828-29.5 30.825-29.5H310z"/>
                            <path fill="#0098A7" fill-rule="nonzero" d="M313 330.7c0 1.27-1.026 2.3-2.292 2.3H157.396C140.056 333 126 318.897 126 301.5s14.056-31.5 31.396-31.5h153.312c1.266 0 2.292 1.03 2.292 2.3 0 1.27-1.026 2.299-2.292 2.299H157.396c-14.808 0-26.813 12.044-26.813 26.901s12.005 26.901 26.813 26.901h153.312c1.266.001 2.292 1.03 2.292 2.3z"/>
                            <path fill="#CCC" fill-rule="nonzero" d="M309.545 286h-159.09c-.251 0-.455-.224-.455-.5s.204-.5.455-.5h159.09c.251 0 .455.224.455.5s-.204.5-.455.5zM309.545 297h-159.09c-.251 0-.455-.224-.455-.5s.204-.5.455-.5h159.09c.251 0 .455.224.455.5s-.204.5-.455.5zM309.545 308h-159.09c-.251 0-.455-.224-.455-.5s.204-.5.455-.5h159.09c.251 0 .455.224.455.5s-.204.5-.455.5zM309.545 319h-159.09c-.251 0-.455-.224-.455-.5s.204-.5.455-.5h159.09c.251 0 .455.224.455.5s-.204.5-.455.5z"/>
                            <path fill="#FFF" fill-rule="nonzero" d="M425 282.622L387.697 329l-115.99-93.624c-13.216-10.668-15.601-29.75-5.317-42.536 10.284-12.786 29.404-14.51 42.62-3.843L425 282.622z"/>
                            <path fill="#00BED0" fill-rule="nonzero" d="M389.826 331.15c-.797.981-2.245 1.136-3.235.345l-119.847-95.85c-13.554-10.84-15.689-30.534-4.767-43.988 10.921-13.454 30.763-15.573 44.318-4.732l119.847 95.85c.64.51.957 1.323.83 2.13-.126.806-.676 1.484-1.443 1.778-.767.294-1.634.16-2.274-.353l-119.847-95.849c-7.488-5.993-17.629-7.565-26.601-4.123-8.972 3.442-15.412 11.375-16.892 20.81-1.48 9.433 2.223 18.934 9.716 24.921l119.847 95.85c.989.791 1.145 2.228.348 3.21z"/>
                            <path fill="#CCC" fill-rule="nonzero" d="M416.259 292.899L292.169 192.81c-.126-.102-.189-.265-.164-.425.025-.161.134-.297.286-.355.152-.059.323-.032.45.07L416.83 292.189c.127.102.19.264.165.425-.025.161-.134.297-.286.355-.152.06-.324.032-.45-.07zM409.259 302.899L285.169 202.81c-.195-.158-.226-.444-.068-.64.157-.196.444-.227.64-.07L409.83 302.19c.127.102.19.264.165.425-.025.161-.134.297-.286.355-.152.06-.324.032-.45-.07zM402.259 310.9l-124.09-100.09c-.195-.157-.226-.444-.068-.64s.444-.227.64-.07l124.09 100.09c.126.101.189.264.164.424-.025.161-.134.297-.286.355-.152.059-.323.032-.45-.07zM395.259 319.899L271.169 219.81c-.126-.102-.189-.265-.164-.425.025-.161.134-.297.286-.355.152-.059.323-.032.45.07L395.83 319.189c.127.102.19.264.165.425-.025.161-.134.297-.286.355-.152.06-.324.032-.45-.07z"/>
                            <path fill="#FFB8B8" fill-rule="nonzero" d="M246.998 266L241.578 266 239 246 247 246.001z"/>
                            <path fill="#2F2E41" fill-rule="nonzero" d="M238.182 263H248v7h-16c0-1.857.651-3.637 1.81-4.95 1.16-1.313 2.732-2.05 4.372-2.05z"/>
                            <path fill="#FFB8B8" fill-rule="nonzero" d="M194.998 266L189.578 266 187 246 195 246.001z"/>
                            <path fill="#2F2E41" fill-rule="nonzero" d="M185.182 263H195v7h-16c0-1.857.651-3.637 1.81-4.95 1.16-1.313 2.732-2.05 4.372-2.05zM211 117.24v-2.314c0-8.244 6.716-14.926 15-14.926 8.284 0 15 6.682 15 14.926v2.314c0 5.942-4.842 10.76-10.814 10.76h-8.372c-2.868 0-5.619-1.134-7.647-3.152-2.028-2.018-3.167-4.755-3.167-7.608z"/>
                            <circle cx="227" cy="117" r="11" fill="#FFB8B8" fill-rule="nonzero"/>
                            <path fill="#FFB8B8" fill-rule="nonzero" d="M165.367 155.084c.92-.807 2.177-1.194 3.434-1.057 1.256.137 2.382.785 3.076 1.768l9.597-1.687 2.526 5.17-13.59 2.206c-1.896.995-4.293.514-5.58-1.118-1.286-1.633-1.055-3.902.537-5.282z"/>
                            <path fill="#FDD35C" fill-rule="nonzero" d="M217.748 134.567l.126.192-15.908 10.478-26.844 8.571c-.734.236-1.199.957-1.111 1.722l.585 5.044c.053.45.293.86.663 1.124.369.265.833.361 1.277.266l25.264-5.414c1.223-.26 2.379-.77 3.397-1.496l17.872-12.714c1.318-.942 2.045-2.507 1.916-4.122-.133-1.617-1.11-3.045-2.57-3.755-1.46-.71-3.185-.597-4.54.296l-.127-.192z"/>
                            <path fill="#565D84" fill-rule="nonzero" d="M242.2 260c-.815 0-1.554-.485-1.882-1.236l-23.84-59.25c-.114-.263-.38-.427-.664-.41-.285.016-.53.208-.614.483l-19.45 57.681c-.166.543-.547.993-1.054 1.243-.506.25-1.093.28-1.622.08l-6.522-2.46c-.722-.27-1.231-.925-1.318-1.695-2.934-25.71 22.654-90.603 22.913-91.255l.071-.181 23.326 5.19.048.053c9.306 10.21 16.955 74.614 18.394 87.42.11.953-.451 1.856-1.351 2.172l-5.758 2.048c-.217.077-.446.117-.677.117z"/>
                            <path fill="#FFBD24" fill-rule="nonzero" d="M222.558 171c-5.672 0-11.996-1.147-13.943-5.882l-.045-.11.06-.1c1.537-2.557 3.568-6.92 2.476-7.739-2.15-1.613-3.193-4.266-3.1-7.885.2-7.858 5.479-14.835 13.133-17.36 2.137-.694 4.311-1.262 6.513-1.702 3.249-.665 6.621.18 9.192 2.303 2.602 2.137 4.126 5.343 4.153 8.74.08 8.398-1.195 20.094-7.722 28.123-.306.373-.732.624-1.202.71-3.14.576-6.324.878-9.515.902z"/>
                            <path fill="#FFB8B8" fill-rule="nonzero" d="M220.168 169.504c.658-2.32 3.097-3.687 5.467-3.063.232.063.459.146.677.246l7.484-6.687 5.204 3.443-10.702 9.299c-.994 1.76-3.081 2.63-5.061 2.108-1.133-.304-2.094-1.04-2.67-2.045-.577-1.004-.72-2.193-.4-3.301z"/>
                            <path fill="#FDD35C" fill-rule="nonzero" d="M231.21 171c-.5 0-.985-.164-1.372-.465l-3.041-2.362c-.514-.399-.807-.999-.797-1.63.01-.63.323-1.22.85-1.604l12.753-9.296c.315-.23.376-.659.137-.96l-7.872-9.89c-1.888-2.365-1.707-5.68.428-7.846 2.259-2.318 6.01-2.603 8.628-.656l.05.05 8.22 11.186c1.801 1.343 2.84 3.409 2.805 5.584-.034 2.176-1.136 4.212-2.98 5.503l-16.517 11.982c-.374.262-.827.404-1.292.404z"/>
                            <path fill="#212549" fill-rule="nonzero" d="M216 112.156v-5.145L226.238 103l9.762 4.01v5.146c0 .466-.421.844-.941.844H216.94c-.52 0-.941-.378-.941-.844z"/>
                            <path fill="#212549" fill-rule="nonzero" d="M225.363 99.853c-1.444-4.717 1.589-10.122 6.072-11.99 4.484-1.866 9.848-.561 13.63 2.523 3.784 3.085 6.131 7.705 7.375 12.481 1.243 4.776 1.48 9.756 1.71 14.693 5.508 1.032 9.255 7.7 7.347 13.073-1.909 5.374-8.972 8.044-13.85 5.235-4.877-2.809-6.29-10.359-2.77-14.804 3.427-4.327 3.536-10.477.265-14.928-3.272-4.451-9.088-6.066-14.118-3.919-2.715 1.159-6.121-1.852-5.66-2.364z"/>
                            <path fill="#FF5814" fill-rule="nonzero" d="M163 134c-6.818-.046-13.55-1.559-19.762-4.441-.756-.346-1.241-1.117-1.238-1.965v-17.44c.001-1.189.94-2.153 2.1-2.154h37.8c1.16.001 2.099.965 2.1 2.155v17.439c.003.848-.482 1.62-1.238 1.965-6.212 2.882-12.944 4.395-19.762 4.441z"/>
                            <path fill="#FF5814" fill-rule="nonzero" d="M162.698 120c-.277 0-.551-.055-.807-.163l-29.622-12.549c-.782-.33-1.284-1.106-1.269-1.958.016-.851.546-1.608 1.34-1.91l29.622-11.284c.477-.182 1.005-.181 1.481.003l29.227 11.284c.788.305 1.314 1.059 1.33 1.907.015.848-.483 1.62-1.26 1.954l-29.226 12.55c-.258.11-.536.166-.816.166z"/>
                            <circle cx="146" cy="127" r="3" fill="#3F3D56" fill-rule="nonzero"/>
                            <path fill="#000" fill-rule="nonzero" d="M192.89 104.758l-28.975 12.283c-.456.193-.972.195-1.43.003l-29.366-12.282c-.369-.15-.677-.419-.875-.762-.262.45-.316.99-.148 1.483.167.493.54.89 1.023 1.092l29.367 12.282c.457.192.973.19 1.43-.003l28.974-12.283c.48-.203.85-.6 1.016-1.092.165-.492.11-1.03-.15-1.479-.197.34-.501.607-.866.758z" opacity=".2"/>
                            <path fill="#3F3D56" fill-rule="nonzero" d="M145.444 128c.246 0 .445-.203.445-.454V112.36l14.66-5.452c.245.003.447-.197.451-.447.004-.251-.192-.457-.438-.461l-14.66 5.453c-.238-.006-.468.089-.637.26-.17.171-.266.404-.265.647v15.186c0 .25.199.454.444.454z"/>
                        </g>
                    </g>
                </g>
            </g>
        </g>
    </g>
</svg>
