<svg xmlns="http://www.w3.org/2000/svg" width="24" height="24" viewBox="0 0 24 24">
    <g fill="none" fill-rule="evenodd">
        <g fill="#008AC1" fill-rule="nonzero">
            <g>
                <g>
                    <g>
                        <g>
                            <g>
                                <g>
                                    <path d="M12 0C5.383 0 0 5.383 0 12s5.383 12 12 12 12-5.383 12-12S18.617 0 12 0zm-.207 16.76l-.828.828c-1.258 1.258-3.295 1.258-4.553 0-1.255-1.255-1.255-3.298 0-4.553l2.484-2.484c1.255-1.255 3.297-1.255 4.553 0 .343.343.343.899 0 1.242-.343.343-.9.343-1.242 0-.57-.57-1.5-.57-2.07 0l-2.483 2.484c-.57.57-.57 1.499 0 2.07.57.57 1.499.57 2.07 0l.827-.829c.343-.343.9-.343 1.242 0 .343.343.343.9 0 1.242zm5.795-5.795l-2.484 2.484c-1.255 1.255-3.297 1.255-4.553 0-.343-.343-.343-.899 0-1.242.343-.343.9-.343 1.242 0 .57.57 1.5.57 2.07 0l2.483-2.484c.57-.57.57-1.499 0-2.07-.57-.57-1.499-.57-2.07 0l-.827.829c-.343.343-.899.343-1.242 0-.343-.343-.343-.9 0-1.242l.828-.828c1.258-1.258 3.295-1.258 4.553 0 1.255 1.255 1.255 3.298 0 4.553z" transform="translate(-276 -2361) translate(100 2026) translate(16 20) translate(0 35) translate(0 180) translate(0 100) translate(160)"/>
                                </g>
                            </g>
                        </g>
                    </g>
                </g>
            </g>
        </g>
    </g>
</svg>
