<svg xmlns="http://www.w3.org/2000/svg" width="24" height="24" viewBox="0 0 24 24">
    <g fill="none" fill-rule="evenodd">
        <g fill-rule="nonzero">
            <g>
                <g>
                    <g>
                        <g>
                            <g>
                                <g transform="translate(-236 -2361) translate(100 2026) translate(16 20) translate(0 35) translate(0 180) translate(0 100) translate(120)">
                                    <circle cx="11.915" cy="11.914" r="11.915" fill="#007AB9"/>
                                    <path fill="#F1F2F2" d="M19.033 12.873v4.912h-2.847v-4.583c0-1.15-.412-1.936-1.443-1.936-.787 0-1.254.529-1.46 1.041-.076.183-.095.437-.095.694v4.784H10.34s.038-7.762 0-8.565h2.848v1.213c-.005.01-.013.02-.019.028h.02v-.028c.378-.582 1.053-1.415 2.566-1.415 1.874 0 3.278 1.225 3.278 3.855zM7.361 5.091c-.975 0-1.612.64-1.612 1.48 0 .822.619 1.48 1.574 1.48h.019c.993 0 1.61-.658 1.61-1.48-.018-.84-.617-1.48-1.591-1.48zM5.918 17.785h2.847V9.22H5.918v8.565z"/>
                                </g>
                            </g>
                        </g>
                    </g>
                </g>
            </g>
        </g>
    </g>
</svg>
