<svg xmlns="http://www.w3.org/2000/svg" width="112" height="50" viewBox="0 0 112 50">
    <g fill="none" fill-rule="evenodd">
        <g fill="#EF5A2F">
            <g>
                <g>
                    <path fill-rule="nonzero" d="M17.188 29.045v-5.509H7.582l9.408-10.979V7.244H.08v5.509h9.13L0 23.73v5.314h17.188zm11.257.312c1.562 0 2.931-.312 4.109-.937 1.177-.625 2.097-1.446 2.759-2.462v3.087H42.1V7.244h-6.788v3.086c-.636-1.015-1.542-1.836-2.72-2.461-1.177-.625-2.547-.938-4.108-.938-1.826 0-3.48.456-4.962 1.368-1.482.911-2.653 2.214-3.513 3.907-.86 1.693-1.29 3.66-1.29 5.9s.43 4.212 1.29 5.918c.86 1.706 2.03 3.022 3.513 3.946 1.482.925 3.123 1.387 4.922 1.387zm2.025-5.821c-1.35 0-2.495-.488-3.434-1.465-.94-.977-1.41-2.299-1.41-3.966 0-1.667.47-2.975 1.41-3.926.94-.95 2.084-1.426 3.434-1.426s2.494.482 3.433 1.445c.94.964 1.41 2.28 1.41 3.946 0 1.667-.47 2.983-1.41 3.946-.94.964-2.084 1.446-3.433 1.446zm23.2 5.509V17.207c0-1.407.376-2.494 1.13-3.263.755-.768 1.794-1.152 3.117-1.152s2.362.384 3.116 1.152c.754.769 1.131 1.856 1.131 3.263v11.838h6.749V17.207c0-1.407.377-2.494 1.13-3.263.755-.768 1.794-1.152 3.117-1.152s2.362.384 3.116 1.152c.754.769 1.132 1.856 1.132 3.263v11.838h6.748V16.308c0-2.917-.814-5.196-2.441-6.837-1.628-1.641-3.818-2.461-6.57-2.461-1.561 0-3.004.377-4.327 1.133-1.323.755-2.369 1.732-3.136 2.93-.741-1.303-1.766-2.305-3.076-3.009-1.31-.703-2.799-1.054-4.466-1.054-1.403 0-2.66.266-3.771.8-1.112.534-2.012 1.257-2.7 2.169V7.244h-6.788v21.8h6.788zm41.896 0V7.942h-6.788v21.103h6.788zm11.931-26.417v5.314h4.446v4.85h-4.446v8.751c0 .652.16 1.12.477 1.407.317.286.847.43 1.588.43h2.421v5.665h-3.454c-2.46 0-4.38-.593-5.756-1.778-1.376-1.185-2.064-3.119-2.064-5.802v-8.673h-2.7v-4.85h2.7V2.628h6.788zM95.423 0v7.448l-2.417-3.517h-4.59L95.424 0z" transform="translate(-20 -55) translate(-83) translate(103 55)"/>
                    <g font-family="OpenSans-Semibold, Open Sans" font-size="10" font-weight="500">
                        <text transform="translate(-20 -55) translate(-83) translate(103 55) translate(0 34)">
                            <tspan x="0" y="11">Let’s begin…</tspan>
                        </text>
                    </g>
                </g>
            </g>
        </g>
    </g>
</svg>
