<svg xmlns="http://www.w3.org/2000/svg" width="120" height="120" viewBox="0 0 120 120">
    <g fill="none" fill-rule="evenodd">
        <g fill="#E2574C" fill-rule="nonzero">
            <g>
                <g>
                    <g>
                        <path d="M59.802 0C26.776 0 0 26.776 0 59.802c0 33.03 26.776 59.802 59.802 59.802 33.03 0 59.802-26.768 59.802-59.802C119.604 26.776 92.831 0 59.802 0zm0 108.391c-26.836 0-48.589-21.753-48.589-48.589s21.753-48.589 48.59-48.589c26.835 0 48.588 21.753 48.588 48.59 0 26.835-21.753 48.588-48.589 48.588zm.004-82.164c-4.283 0-7.524 2.235-7.524 5.846v33.115c0 3.614 3.24 5.842 7.524 5.842 4.179 0 7.524-2.321 7.524-5.842V32.073c0-3.525-3.345-5.846-7.524-5.846zm0 52.263c-4.115 0-7.464 3.35-7.464 7.468 0 4.111 3.349 7.46 7.464 7.46s7.46-3.349 7.46-7.46c0-4.119-3.345-7.468-7.46-7.468z" transform="translate(-580 -313) translate(160 197) translate(58 116) translate(362)"/>
                    </g>
                </g>
            </g>
        </g>
    </g>
</svg>
