<svg xmlns="http://www.w3.org/2000/svg" width="182" height="116" viewBox="0 0 182 116">
    <g fill="none" fill-rule="evenodd">
        <g fill-rule="nonzero">
            <g>
                <g>
                    <g>
                        <g transform="translate(-539 -3658) translate(70 3474) translate(96 144) translate(324) matrix(-1 0 0 1 231 40)">
                            <g>
                                <path fill="#FF7122" d="M22.61 91.966c-.54-.664-.736-1.533-.529-2.356 2.445-9.934 2.445-20.286 0-30.22-.207-.823-.012-1.692.53-2.356.53-.655 1.34-1.037 2.199-1.034h26.134c1.38.003 2.554.972 2.777 2.293 1.705 10.741 1.705 21.673 0 32.414-.223 1.32-1.398 2.29-2.777 2.293H24.81c-.858.003-1.67-.379-2.2-1.034z" transform="translate(91)"/>
                                <path fill="#00C8D8" d="M59.279 45.707c-1.705-10.741-1.705-21.673 0-32.414.223-1.32 1.398-2.29 2.777-2.293H88.19c.858-.003 1.67.379 2.199 1.034.541.664.736 1.533.529 2.356-2.445 9.934-2.445 20.286 0 30.22.207.823.012 1.692-.53 2.356-.529.655-1.34 1.037-2.198 1.034H62.056c-1.38-.003-2.554-.973-2.777-2.293z" transform="translate(91)"/>
                                <path fill="#565D84" d="M.61 37.91c-.54-.7-.736-1.616-.529-2.483 2.445-10.47 2.445-21.383 0-31.854C-.126 2.706.069 1.79.61 1.09 1.14.4 1.95-.003 2.81 0h26.134c1.38.003 2.554 1.025 2.777 2.417 1.705 11.322 1.705 22.844 0 34.166-.223 1.392-1.398 2.414-2.777 2.417H2.81c-.859.003-1.67-.4-2.2-1.09z" transform="translate(91)"/>
                                <path fill="#FFF" d="M23.916 15H9.084c-1.15-.001-2.083-1.109-2.084-2.475v-1.05C7.001 10.109 7.934 9 9.084 9h14.832c1.15.001 2.083 1.109 2.084 2.475v1.05C25.999 13.891 25.066 15 23.916 15zM23.916 23H9.084c-1.15-.001-2.083-1.109-2.084-2.475v-1.05C7.001 18.109 7.934 17 9.084 17h14.832c1.15.001 2.083 1.109 2.084 2.475v1.05C25.999 21.891 25.066 23 23.916 23zM46.106 69H32.894c-1.045-.002-1.893-1.124-1.894-2.51v-.98c.001-1.386.849-2.508 1.894-2.51h13.212c1.045.002 1.893 1.124 1.894 2.51v.98c-.001 1.386-.849 2.508-1.894 2.51zM46.106 78H32.894c-1.045-.002-1.893-1.124-1.894-2.51v-.98c.001-1.386.849-2.508 1.894-2.51h13.212c1.045.002 1.893 1.124 1.894 2.51v.98c-.001 1.386-.849 2.508-1.894 2.51zM46.106 88H32.894c-1.045-.002-1.893-1.124-1.894-2.51v-.98c.001-1.386.849-2.508 1.894-2.51h13.212c1.045.002 1.893 1.124 1.894 2.51v.98c-.001 1.386-.849 2.508-1.894 2.51zM80.106 30H66.894c-1.045-.002-1.893-1.124-1.894-2.51v-.98c.001-1.386.849-2.508 1.894-2.51h13.212c1.045.002 1.893 1.124 1.894 2.51v.98c-.001 1.386-.849 2.508-1.894 2.51z" transform="translate(91)"/>
                            </g>
                            <path fill="#FADCD2" d="M29 80.167v.666c.002 2.3 1.947 4.165 4.348 4.167h31.304C67.053 85 69 83.134 69 80.833v-.666c.002-.975-.355-1.92-1.009-2.667-.217-.248-.464-.472-.734-.667 0 0-17.21-.373-17.21-.833h-16.7c-2.399.003-4.344 1.867-4.347 4.167zM46 86H51V115H46z"/>
                            <path fill="#FADCD2" d="M64 114.699c0 .526-6.94.203-15.5.203-8.56 0-15.5.323-15.5-.203 0-.527 6.94-4.699 15.5-4.699 8.56 0 15.5 4.172 15.5 4.699z"/>
                            <path fill="#A0616A" d="M58.257 79.459c.663-.892.898-2.033.642-3.115-.257-1.082-.978-1.995-1.97-2.493L47.32 41 40 44.596l11.748 31.16c-.739 1.766-.045 3.807 1.616 4.752 1.66.945 3.763.494 4.893-1.049z"/>
                            <path fill="#7CA5FF" d="M48.728 46.688l-8.393 2.253c-.484.13-1 .044-1.415-.234-.414-.278-.687-.721-.745-1.214l-1.015-8.537c-.674-2.527.84-5.118 3.387-5.794 2.546-.675 5.163.82 5.852 3.343l3.457 7.852c.2.455.191.974-.026 1.422-.216.447-.619.779-1.102.909z"/>
                            <path fill="#A0616A" d="M60.001 111L64.066 111 66 100 60 100z"/>
                            <path fill="#2F2E41" d="M59 110h8.55c1.446 0 2.832.612 3.854 1.702 1.022 1.09 1.596 2.568 1.596 4.109v.188L59 116v-6zM65.297 106c-.051 0-.102-.002-.153-.007l-6-.438c-.492-.045-.935-.317-1.199-.735s-.319-.936-.149-1.4l8.031-18.066c.116-.326.091-.685-.07-.992-.16-.31-.444-.536-.781-.623-3.777-.988-13.465-3.62-21.853-6.7-3.593-1.319-5.856-3.226-6.726-5.667-1.147-3.218.55-6.152.623-6.276l.056-.096 7.893.718 8.555.729 18.75 10.068c3.258 1.764 4.616 5.738 3.119 9.13l-8.644 19.41c-.256.575-.825.945-1.452.945z"/>
                            <circle cx="46.5" cy="21.5" r="8.5" fill="#FFC4BB"/>
                            <path fill="#A0616A" d="M58.001 111L62.066 111 64 100 58 100z"/>
                            <path fill="#2F2E41" d="M56 109h8.55c1.446 0 2.832.612 3.854 1.702 1.022 1.09 1.596 2.568 1.596 4.109v.188L56 115v-6z"/>
                            <path fill="#565D84" d="M62.297 107c-.051 0-.102-.002-.153-.007l-6-.438c-.492-.045-.935-.317-1.199-.735s-.319-.936-.149-1.4l8.031-18.066c.116-.326.091-.685-.07-.992-.16-.31-.444-.536-.781-.623-3.777-.988-13.465-3.62-21.853-6.7-3.593-1.319-5.856-3.226-6.726-5.667-1.147-3.218.55-6.152.623-6.276l.056-.096 7.893.718 8.555.729 18.75 10.068c3.258 1.764 4.616 5.738 3.119 9.13l-8.644 19.41c-.256.575-.825.945-1.452.945z"/>
                            <path fill="#FFBD24" d="M49.464 35.178L40.18 32s-5.83 4.428-3.03 15.413c1.463 5.669 1.037 11.652-1.214 17.063-.27.67-.583 1.321-.935 1.953 0 0 10.357 12.359 20 3.178l-3.75-17.832s5.893-11.83-1.786-16.597z"/>
                            <path fill="#2F2E41" d="M47.774 30.913c-1.226-1.842-2.193-4.394-.844-6.146 1.333-1.73 3.96-1.475 6-2.24 2.842-1.065 4.49-4.415 3.977-7.416-.514-3-2.915-5.487-5.774-6.504-2.86-1.018-6.084-.687-8.884.485-3.447 1.442-6.403 4.233-7.643 7.768-1.24 3.535-.577 7.779 1.995 10.496 2.757 2.913 7.085 3.69 11.09 3.642"/>
                            <path fill="#2F2E41" d="M39.848 14.66c-1.546 1.248-3.903.693-5.561-.402-1.659-1.096-3.005-2.656-4.8-3.515-3.163-1.514-6.988-.508-10.067 1.17-3.079 1.677-5.808 3.994-9.06 5.31C7.107 18.54 2.957 18.606.494 16.12c-1.241 3.57-.093 7.53 2.87 9.899 2.965 2.369 7.108 2.638 10.358.673 3.563-2.154 5.532-6.67 9.529-7.86 2.211-.658 4.586-.128 6.822.446 2.235.574 4.566 1.194 6.822.706 2.256-.489 4.366-2.5 4.079-4.775l-1.126-.55z"/>
                            <path fill="#FF7122" d="M66.697 94.76c-.93-5.806-.93-11.714 0-17.52.122-.714.763-1.239 1.515-1.24h14.256c.468-.001.91.205 1.2.559.294.359.4.829.288 1.273-1.334 5.37-1.334 10.966 0 16.336.113.444.006.914-.289 1.273-.289.354-.731.56-1.2.559H68.213c-.752-.001-1.393-.526-1.515-1.24z"/>
                            <path fill="#FFF" d="M77.997 85h-6.994C70.449 85 70 84.438 70 83.745v-.49c0-.693.45-1.254 1.003-1.255h6.994c.554 0 1.002.562 1.003 1.255v.49c0 .693-.45 1.254-1.003 1.255zM77.997 89h-6.994C70.449 89 70 88.438 70 87.745v-.49c0-.693.45-1.254 1.003-1.255h6.994c.554 0 1.002.562 1.003 1.255v.49c0 .693-.45 1.254-1.003 1.255z"/>
                            <path fill="#FFC4BB" d="M70.718 78.619c.425-1.034.367-2.201-.157-3.188-.525-.987-1.463-1.693-2.562-1.927L50.275 44 44 49.334l19.396 27.324c-.28 1.902.916 3.71 2.784 4.21 1.868.5 3.818-.466 4.538-2.25z"/>
                            <path fill="#FDD35C" d="M54.167 48.562l-7.234 4.217c-.416.243-.915.288-1.366.123-.451-.165-.81-.523-.984-.98l-2.998-7.934c-1.233-2.256-.454-5.11 1.742-6.38 2.195-1.272 4.98-.482 6.226 1.766l5.097 6.678c.295.387.412.887.319 1.369-.093.482-.386.898-.802 1.141z"/>
                        </g>
                    </g>
                </g>
            </g>
        </g>
    </g>
</svg>
