<svg xmlns="http://www.w3.org/2000/svg" width="178" height="136" viewBox="0 0 178 136">
    <g fill="none" fill-rule="evenodd">
        <g>
            <g>
                <g>
                    <g>
                        <g transform="translate(-875 -3637) translate(70 3474) translate(96 144) translate(648) translate(62 20)">
                            <path fill="#FADCD2" fill-rule="nonzero" d="M63.517 11L38.062 24.754c1.185 2.036 1.167 4.553-.048 6.57-1.215 2.018-3.434 3.217-5.792 3.13-2.357-.087-4.481-1.447-5.542-3.55L18 35.595 40.483 77 86 52.406 63.517 11z"/>
                            <circle cx="32.5" cy="27.5" r="5.5" fill="#FF7122" fill-rule="nonzero"/>
                            <g fill-rule="nonzero" transform="translate(113 61)">
                                <path fill="#FADCD2" d="M14.672 61l27.586-8.988c-.8-2.223-.326-4.704 1.237-6.477 1.563-1.773 3.968-2.556 6.276-2.045 2.31.511 4.157 2.237 4.823 4.503L64 44.93 49.328 0 0 16.071 14.672 61z"/>
                                <circle cx="48.5" cy="49.5" r="5.5" fill="#FF7122"/>
                            </g>
                            <path fill="#3F3D56" fill-rule="nonzero" d="M36 35H163V93H36z"/>
                            <path fill="#FFF" fill-rule="nonzero" d="M38 37H161V89H38z"/>
                            <path fill="#3F3D56" fill-rule="nonzero" d="M136 87H148V91H136z"/>
                            <path fill="#7CA5FF" fill-rule="nonzero" d="M127 90H136V91H127z"/>
                            <path stroke="#3F3D56" stroke-width="2" d="M48 56.932L95.015 56.932 102.304 60.428 113.918 66 121.512 52 143 52"/>
                            <path stroke="#3F3D56" stroke-width="2" d="M66 57L69.472 65 78 65M79 57L90.726 51 99 51"/>
                            <circle cx="66.5" cy="57.5" r="1.5" fill="#7CA5FF" fill-rule="nonzero"/>
                            <circle cx="79.5" cy="57.5" r="1.5" fill="#7CA5FF" fill-rule="nonzero"/>
                            <path stroke="#3F3D56" stroke-width="2" d="M102 61L102.931 75 111 75M118 58L109 51 117.504 51M133 52L141.773 59 150 59"/>
                            <circle cx="101.5" cy="60.5" r="1.5" fill="#7CA5FF" fill-rule="nonzero"/>
                            <circle cx="133.5" cy="52.5" r="1.5" fill="#7CA5FF" fill-rule="nonzero"/>
                            <circle cx="118.5" cy="57.5" r="1.5" fill="#7CA5FF" fill-rule="nonzero"/>
                            <path stroke="#3F3D56" stroke-width="2" d="M70 67L78 67"/>
                            <circle cx="147.5" cy="22.5" r="2.5" stroke="#3F3D56" stroke-width="2"/>
                            <ellipse cx="41.5" cy="130.5" fill="#FADCD2" fill-rule="nonzero" rx="24.5" ry="4.5"/>
                            <path fill="#7CA5FF" fill-rule="nonzero" d="M58.696 90L54 92.39 54.304 93 59 90.61z"/>
                            <path fill="#FBBEBE" fill-rule="nonzero" d="M57 86.184l-.182 1.105s.273 7.64-1.728 5.247c-2-2.394-.636-5.615-.636-5.615L55 86l2 .184zM44.585 48s-.384 4-.576 4.19c-.192.191 2.88 3.81 2.88 3.81l2.688-2.476s-.192-3.62.384-4.381C50.537 48.38 44.585 48 44.585 48z"/>
                            <path fill="#000" fill-rule="nonzero" d="M44.585 48s-.384 4-.576 4.19c-.192.191 2.88 3.81 2.88 3.81l2.688-2.476s-.192-3.62.384-4.381C50.537 48.38 44.585 48 44.585 48z" opacity=".1"/>
                            <path fill="#3F3D56" fill-rule="nonzero" d="M38 123.545L38 126.818 36.765 127 35 126.455 35.529 123z"/>
                            <path fill="#2F2E41" fill-rule="nonzero" d="M36.06 125.341s-.587-1.514-1.567-1.325c-.98.19-1.176 1.325-1.176 1.325s-.784 2.839-1.96 3.785c-1.175.947-2.35 3.407 0 3.785 2.352.379 4.312-.567 4.312-.757 0-.189.588-1.324 1.567-1.514.98-.189 1.764-.378 1.764-1.135s-.588-1.514-.588-1.514-.196-3.59-.588-3.12c-.27.371-.47.787-.588 1.227l-1.175-.757z"/>
                            <path fill="#3F3D56" fill-rule="nonzero" d="M45.75 121.222L45 124.555 46.875 125 47.813 123.889 48 121z"/>
                            <path fill="#2F2E41" fill-rule="nonzero" d="M45.73 124.06s.769-.618 1.153-.618h.577s0-1.442.961-1.442.77 1.03.77 1.03 2.114 3.5 2.69 4.118c.577.618 3.653 2.472 1.154 3.295-2.5.824-4.23.824-5.383-.617 0 0-1.153-.618-1.922-.618-.769 0-1.73-.412-1.73-1.03 0-.618.577-1.853.577-1.853s.384-3.707.576-3.295c.193.412.577 1.03.577 1.03z"/>
                            <path fill="#565D84" fill-rule="nonzero" d="M37.294 77v6.485S35.16 96.06 35.16 100.188c0 4.126-3.297 23.777-1.746 24.17 1.552.393 5.236.982 5.43.393.194-.59 1.552-19.258 1.746-19.454.194-.197 4.266-15.72 4.266-15.72l.776.196.388 17.685s-1.94 15.917-.97 15.917 5.042-.196 5.042-1.375c0-1.18 2.134-22.991 2.134-22.991s2.52-17.293 1.551-19.061c-.97-1.769-.97-2.751-.97-2.751L37.294 77z"/>
                            <circle cx="48" cy="47" r="4" fill="#FBBEBE" fill-rule="nonzero"/>
                            <path fill="#FFBD24" fill-rule="nonzero" d="M47.254 53.884S44.818 51.796 44.623 51c0 0-1.267 1.293-1.267 1.492 0 .199-5.458.796-6.822 2.387C35.169 56.47 34 59.852 34 59.852l3.314 6.365s.194 3.58.194 3.978c0 .398-.974 6.763-.584 6.962.39.2 4.288 2.188 7.601 1.79 3.314-.397 6.628-.994 7.602-.994.975 0 1.754.398 1.754 0s-.584-1.194-.584-1.591c0-.398-.195-1.393-.195-1.99 0-.596-.39-1.59-.39-2.386S57 60.448 57 60.448s-.195-3.381-3.314-4.972c-3.118-1.592-3.508-2.188-3.508-2.188s-.06-1.194-.225-1.194-.75 1.79-2.309 1.99l-.39-.2z"/>
                            <path fill="#FBBEBE" fill-rule="nonzero" d="M37 80.684L38.4 83 42 82.158 39.4 79z"/>
                            <path fill="#FDD35C" fill-rule="nonzero" d="M55.604 59l1.256 1.552s2.512 11.253 2.093 15.328c-.419 4.074-.837 7.179-.837 7.179s.837 2.91.21 2.91c-.629 0-4.396.194-4.396-.388 0-.582.419-4.269.419-4.269l-1.047-8.536L51 69.866 55.604 59z"/>
                            <path fill="#2F2E41" fill-rule="nonzero" d="M46.099 45.964c.233-.103.502-.019.751-.063.294-.052.556-.28.852-.25.14.027.276.073.405.137.13.064.28.07.415.016.064-.031.112-.091.13-.163.017-.072.002-.148-.04-.208.25-.023.487-.13.675-.304.038-.04.081-.075.13-.101.112-.031.232-.012.33.054l.435.21c.098.036.185.1.249.186.052.084.062.197.135.262.094.083.233.042.355.05.23.024.406.223.41.464-.001.134-.047.297.053.38.059.047.142.04.21.068.179.076.18.335.153.534-.026.199-.013.461.17.522.128.043.26-.049.393-.069.202-.031.389.101.568.202.18.101.418.17.574.031.144-.128.135-.362.095-.556-.057-.279-.15-.547-.279-.798-.047-.074-.075-.16-.08-.249.022-.126.094-.237.199-.303.22-.182.473-.366.544-.65.052-.208-.006-.428-.002-.643.006-.262.105-.523.059-.78-.085-.467-.581-.692-.902-1.028-.44-.463-.583-1.202-1.102-1.563-.416-.29-.96-.255-1.433-.42-.52-.182-.938-.599-1.451-.801-.567-.219-1.198-.161-1.72.158-.153.118-.323.21-.505.27-.153.018-.307.017-.46-.006-.303-.016-.605.05-.877.19-.105.043-.191.123-.246.225-.092.214.041.547-.16.65-.094.047-.205.001-.309.004-.202.005-.358.19-.455.376-.075.197-.183.38-.319.537-.248.227-.698.265-.763.603 0 .143.007.286.024.428-.02.3-.325.527-.31.827.019.346.439.515.55.84.086.248-.026.517-.103.767-.078.251-.101.573.099.734.078.063.179.088.259.15.206.157.204.474.18.74-.026.113.002.232.076.318.069.044.153.054.23.029.25-.064.465-.233.593-.467.067-.116.08-.217.201-.278.082-.042.182-.005.265-.059.398-.256.26-.986.749-1.203z"/>
                            <path fill="#FDD35C" fill-rule="nonzero" d="M34.149 59l-.583.6s-3.493 10.797-2.328 13.197c1.164 2.4 3.493 8.398 4.269 8.198.776-.2 3.493-2 3.493-2.2 0-.2-3.299-5.798-3.299-5.798s-.388-1.2-.194-1.4c.194-.2.194 0 0-.4s-.194 0 .194-.4.388-.4.388-.6c0-.2 1.164-5.198 1.164-5.198L34.15 59z"/>
                            <path fill="#2F2E41" fill-rule="nonzero" d="M38 82.167L42.4 81 43 82.167 38.2 83z"/>
                            <path fill="#000" fill-rule="nonzero" d="M38 82.167L42.4 81 43 82.167 38.2 83zM43 53L46.579 56 47 55.357zM50 54L48 55.4 48.167 56z" opacity=".1"/>
                        </g>
                    </g>
                </g>
            </g>
        </g>
    </g>
</svg>
