<svg xmlns="http://www.w3.org/2000/svg" width="29" height="32" viewBox="0 0 29 32">
    <g fill="none" fill-rule="evenodd">
        <g fill="#9B9B9B" fill-rule="nonzero">
            <g>
                <g>
                    <g>
                        <path d="M26.166 2.331c-3.108-3.108-8.165-3.108-11.273 0l-11.87 11.87c-.366.366-.366.96 0 1.326.367.366.96.366 1.327 0l11.87-11.87c2.303-2.302 6.316-2.302 8.62 0 2.377 2.377 2.377 6.244 0 8.62L8.266 29.038c-1.417 1.418-3.887 1.418-5.305 0-1.462-1.462-1.462-3.842 0-5.304L18.872 7.635c.531-.53 1.458-.53 1.99 0 .548.549.548 1.442 0 1.99L5.613 25.06c-.316.316-.316 1.01 0 1.326.366.366.96.366 1.326 0L22.187 10.95c1.28-1.28 1.28-3.362 0-4.642-1.24-1.24-3.403-1.238-4.64 0L1.634 22.408c-2.177 2.176-2.177 5.78 0 7.956C2.698 31.427 4.111 32 5.615 32c1.502 0 2.915-.573 3.977-1.636l16.574-16.76c3.108-3.109 3.108-8.165 0-11.273z" transform="translate(-697 -1231) translate(100 728) translate(0 493) translate(597 10)"/>
                    </g>
                </g>
            </g>
        </g>
    </g>
</svg>
