<svg xmlns="http://www.w3.org/2000/svg" width="22" height="16" viewBox="0 0 22 16">
    <g fill="none" fill-rule="evenodd">
        <g fill="#697487" fill-rule="nonzero">
            <g>
                <path d="M14.578.232c-.294-.31-.785-.31-1.09 0-.296.298-.296.795 0 1.093l5.532 5.597H.764C.338 6.923 0 7.265 0 7.696c0 .43.338.784.764.784H19.02l-5.533 5.587c-.295.31-.295.807 0 1.104.306.31.797.31 1.091 0l6.842-6.923c.306-.298.306-.795 0-1.093L14.578.232z" transform="translate(-100 -440) translate(100 440) matrix(-1 0 0 1 21.65 0)"/>
            </g>
        </g>
    </g>
</svg>
