<svg xmlns="http://www.w3.org/2000/svg" width="27" height="32" viewBox="0 0 27 32">
    <g fill="none" fill-rule="evenodd">
        <g fill-rule="nonzero">
            <g>
                <g>
                    <g>
                        <path fill="#FC7B4A" d="M4.667 26.667C4.299 26.667 4 26.368 4 26v-6.667c0-.368.299-.666.667-.666h2c1.47 0 2.666 1.196 2.666 2.666C9.333 22.804 8.137 24 6.667 24H5.333v2c0 .368-.298.667-.666.667zm.666-4h1.334C7.4 22.667 8 22.068 8 21.333 8 20.6 7.401 20 6.667 20H5.333v2.667z" transform="translate(-646 -454) translate(120 384) translate(516) translate(10 70)"/>
                        <path fill="#697487" d="M23.333 32h-20C1.496 32 0 30.504 0 28.667V3.333C0 1.496 1.496 0 3.333 0h20c1.838 0 3.334 1.496 3.334 3.333v25.334c0 1.837-1.496 3.333-3.334 3.333zm-20-30.667c-1.102 0-2 .898-2 2v25.334c0 1.102.898 2 2 2h20c1.103 0 2-.898 2-2V3.333c0-1.102-.897-2-2-2h-20z" transform="translate(-646 -454) translate(120 384) translate(516) translate(10 70)"/>
                        <path fill="#FC7B4A" d="M14 26.667h-2.667c-.368 0-.666-.299-.666-.667v-6.667c0-.368.298-.666.666-.666H14c1.103 0 2 .897 2 2v4c0 1.102-.897 2-2 2zm-2-1.334h2c.368 0 .667-.298.667-.666v-4c0-.368-.299-.667-.667-.667h-2v5.333zM18 26.667c-.368 0-.667-.299-.667-.667v-5.333c0-1.103.898-2 2-2H22c.368 0 .667.298.667.666 0 .368-.299.667-.667.667h-2.667c-.368 0-.666.299-.666.667V26c0 .368-.299.667-.667.667z" transform="translate(-646 -454) translate(120 384) translate(516) translate(10 70)"/>
                        <path fill="#FC7B4A" d="M22 24h-4c-.368 0-.667-.299-.667-.667 0-.368.299-.666.667-.666h4c.368 0 .667.298.667.666 0 .368-.299.667-.667.667z" transform="translate(-646 -454) translate(120 384) translate(516) translate(10 70)"/>
                    </g>
                </g>
            </g>
        </g>
    </g>
</svg>
