<svg xmlns="http://www.w3.org/2000/svg" width="37" height="32" viewBox="0 0 37 32">
    <g fill="none" fill-rule="evenodd">
        <g fill-rule="nonzero">
            <g>
                <g transform="translate(-172 -438) translate(120 384) translate(52 54)">
                    <circle cx="13.591" cy="10.357" r="2.477" fill="#FC7B4A"/>
                    <path fill="#697487" d="M33.927 19.475c-1.17-1.1-2.65-1.823-4.267-2.03V4.852c0-1.342-.55-2.547-1.41-3.441C27.354.516 26.15 0 24.808 0H4.852C3.51 0 2.305.55 1.41 1.41.516 2.306 0 3.51 0 4.853V25.394c0 1.341.55 2.546 1.41 3.44.895.895 2.1 1.411 3.442 1.411h19.303c1.273 1.032 2.856 1.686 4.61 1.686 2.03 0 3.854-.826 5.162-2.133 1.307-1.308 2.133-3.131 2.133-5.161s-.826-3.854-2.133-5.162zM1.824 4.852c0-.826.344-1.583.894-2.1.55-.55 1.308-.894 2.134-.894h19.957c.825 0 1.582.344 2.133.895.55.55.895 1.307.895 2.133v10.736l-5.093-5.093c-.344-.344-.929-.378-1.307 0l-7.674 7.708-5.195-5.23c-.344-.345-.93-.379-1.308 0l-5.436 5.505V4.852zM4.817 28.49v-.068c-.826 0-1.583-.345-2.133-.895-.516-.55-.86-1.308-.86-2.133v-4.267l6.09-6.125 5.196 5.196c.344.344.929.344 1.307 0l7.673-7.708 5.024 5.058-.31.104c-.137.034-.275.068-.447.137-.138.035-.275.103-.413.138-.103.034-.172.069-.275.138-.138.068-.241.103-.344.172l-.516.31c-.104.068-.172.102-.276.171-.068.035-.103.07-.172.104-.31.206-.585.447-.826.722-1.307 1.308-2.133 3.131-2.133 5.161 0 .517.069.998.172 1.514.035.138.069.241.103.379.104.344.207.688.345 1.032v.035c.137.275.275.584.447.825H4.817zm27.768 0c-.998.998-2.34 1.583-3.854 1.583-1.445 0-2.787-.585-3.75-1.514-.138-.137-.276-.31-.413-.447-.103-.103-.207-.241-.31-.344-.138-.172-.24-.379-.344-.585-.069-.138-.138-.241-.206-.379-.07-.172-.138-.378-.173-.585-.034-.137-.103-.31-.137-.447-.069-.344-.103-.723-.103-1.101 0-1.514.619-2.856 1.582-3.854.964-.998 2.34-1.583 3.854-1.583 1.514 0 2.856.62 3.854 1.583.998.998 1.583 2.34 1.583 3.854 0 1.48-.62 2.821-1.583 3.82z"/>
                    <path fill="#FC7B4A" d="M29.385 20.955c-.069-.069-.172-.138-.31-.207-.103-.034-.206-.068-.31-.068h-.068c-.103 0-.207.034-.31.068-.103.035-.206.104-.31.207l-2.133 2.133c-.344.344-.344.93 0 1.308.344.344.93.344 1.308 0l.55-.55v3.784c0 .516.413.93.93.93.515 0 .928-.414.928-.93v-3.785l.55.55c.345.345.93.345 1.308 0 .344-.343.344-.928 0-1.307l-2.133-2.133z"/>
                </g>
            </g>
        </g>
    </g>
</svg>
