<svg xmlns="http://www.w3.org/2000/svg" width="32" height="36" viewBox="0 0 32 36">
    <g fill="none" fill-rule="evenodd">
        <g fill="#FFF" fill-rule="nonzero">
            <g>
                <g>
                    <g>
                        <path d="M30.036 14.348L5.833.514C5.245.178 4.576 0 3.898 0c-.686 0-1.363.182-1.957.527C.743 1.222 0 2.514 0 3.899v27.67c0 1.384.744 2.676 1.942 3.371.594.345 1.27.527 1.957.527.677 0 1.346-.178 1.935-.514l24.202-13.835c1.212-.692 1.964-1.99 1.964-3.385 0-1.395-.752-2.692-1.963-3.385zm-10.488-3.27l-3.323 4.628-7.95-11.072 11.273 6.443zM3.745 33.087c-.216-.02-.428-.083-.617-.193-.471-.273-.764-.782-.764-1.327V3.898c0-.544.293-1.053.764-1.326.189-.11.4-.175.615-.197L14.77 17.733 3.745 33.09zm4.53-2.255l7.95-11.072 3.323 4.629-11.272 6.443zm20.587-11.768l-7.25 4.145-3.932-5.477 3.932-5.476 7.25 4.144c.477.273.773.783.773 1.332 0 .55-.296 1.06-.773 1.332z" transform="translate(-912 -1547) translate(0 1464) translate(840 40) translate(72 43)"/>
                    </g>
                </g>
            </g>
        </g>
    </g>
</svg>
