<svg xmlns="http://www.w3.org/2000/svg" width="72" height="72" viewBox="0 0 72 72">
    <g fill="none" fill-rule="evenodd">
        <g>
            <g>
                <g>
                    <g transform="translate(-184 -1567) translate(100 1448) translate(20 110) translate(65 10)">
                        <circle cx="35" cy="35" r="35" fill="#FFF7F4" stroke="#FFE7DE"/>
                        <g fill-rule="nonzero">
                            <path fill="#282828" d="M16.557 12.034c-.177-.353-.537-.576-.932-.576h-2.083V1.042C13.542.467 13.076 0 12.5 0c-.576 0-1.042.467-1.042 1.042v10.416H9.375c-.395 0-.755.223-.932.576-.175.353-.138.775.099 1.091l3.125 4.167c.013.017.034.024.049.04.068.081.15.144.24.201.038.023.067.053.108.072.133.063.279.103.436.103.157 0 .303-.04.438-.103.04-.019.07-.049.106-.072.09-.057.172-.12.24-.2.014-.017.036-.024.05-.041l3.124-4.167c.238-.316.275-.738.1-1.09z" transform="translate(23 23)"/>
                            <path fill="#FC7B4A" d="M23.958 15.625c-.576 0-1.041.467-1.041 1.042v3.125c0 1.723-1.402 3.125-3.125 3.125H5.208c-1.723 0-3.125-1.402-3.125-3.125v-3.125c0-.575-.465-1.042-1.041-1.042-.576 0-1.042.467-1.042 1.042v3.125C0 22.664 2.336 25 5.208 25h14.584C22.664 25 25 22.664 25 19.792v-3.125c0-.575-.466-1.042-1.042-1.042z" transform="translate(23 23)"/>
                        </g>
                    </g>
                </g>
            </g>
        </g>
    </g>
</svg>
