<svg xmlns="http://www.w3.org/2000/svg" width="33.126" height="33.646" viewBox="0 0 33.126 33.646">
  <g id="school1" transform="translate(-0.44 -0.354)">
    <g id="Group_7" data-name="Group 7">
      <g id="Group_6" data-name="Group 6">
        <g id="Group_5" data-name="Group 5">
          <g id="Group_4" data-name="Group 4">
            <g id="Group_3" data-name="Group 3">
              <g id="Group_2" data-name="Group 2">
                <g id="Group_1" data-name="Group 1">
                  <path id="Path_1" data-name="Path 1" d="M29,19V30a2,2,0,0,1-2,2H5a2,2,0,0,1-2-2V19" transform="translate(1 1)" fill="none" stroke="#9b9b9b" stroke-linecap="round" stroke-linejoin="round" stroke-width="2" fill-rule="evenodd"/>
                  <path id="Path_2" data-name="Path 2" d="M3.64,4H9.463a1.994,1.994,0,0,0,1.11-.337L14.95.741a2,2,0,0,1,2.22,0l4.378,2.922A1.994,1.994,0,0,0,22.658,4h5.7a2,2,0,0,1,1.962,1.608l1.2,6A2,2,0,0,1,29.56,14H22.676a2,2,0,0,1-1.11-.336L17.182,10.74a2,2,0,0,0-2.219,0l-4.384,2.924A2,2,0,0,1,9.469,14H2.44A1.995,1.995,0,0,1,.48,11.608l1.2-6A2,2,0,0,1,3.638,4Z" transform="translate(1 1)" fill="none" stroke="#9b9b9b" stroke-linejoin="round" stroke-width="2" fill-rule="evenodd"/>
                  <path id="Path_3" data-name="Path 3" d="M17,19a3,3,0,0,1,3,3h0v6H12V22a3,3,0,0,1,3-3h2Z" transform="translate(1 1)" fill="none" stroke="#9b9b9b" stroke-width="2" fill-rule="evenodd"/>
                </g>
              </g>
            </g>
          </g>
        </g>
      </g>
    </g>
  </g>
</svg>
