<svg xmlns="http://www.w3.org/2000/svg" width="20" height="20" viewBox="0 0 20 20">
    <g fill="none" fill-rule="evenodd">
        <g fill="#A5A5A5" fill-rule="nonzero">
            <g>
                <g>
                    <path d="M159.756 48.577l-5.688-5.687c1.102-1.36 1.765-3.09 1.765-4.973 0-4.365-3.551-7.917-7.916-7.917S140 33.552 140 37.917s3.552 7.916 7.917 7.916c1.883 0 3.612-.663 4.973-1.765l5.687 5.688c.163.162.376.244.59.244.213 0 .426-.082.589-.244.325-.326.325-.853 0-1.179zm-11.84-4.41c-3.446 0-6.25-2.804-6.25-6.25 0-3.447 2.804-6.25 6.25-6.25 3.447 0 6.25 2.803 6.25 6.25 0 3.446-2.803 6.25-6.25 6.25z" transform="translate(-240 -770) translate(100 616) translate(0 124)"/>
                </g>
            </g>
        </g>
    </g>
</svg>
