<svg xmlns="http://www.w3.org/2000/svg" width="16" height="17" viewBox="0 0 16 17">
    <g fill="none" fill-rule="evenodd">
        <g fill="#515A5F" fill-rule="nonzero">
            <g>
                <g>
                    <path d="M15.995 7.996L8.703 0v4.79h-.847c-2.099 0-4.071.817-5.555 2.3C.817 8.574 0 10.547 0 12.645V16l1.4-1.533c1.871-2.051 4.529-3.238 7.303-3.265v4.79l7.292-7.996zM.938 13.59v-.945c0-1.848.72-3.585 2.026-4.892C4.27 6.447 6.008 5.727 7.856 5.727H9.64V2.42l5.086 5.576-5.086 5.576v-3.308H8.8c-2.96 0-5.806 1.208-7.862 3.326z" transform="translate(-1112 -384) translate(1112 380.028) translate(0 4)"/>
                </g>
            </g>
        </g>
    </g>
</svg>
