<svg xmlns="http://www.w3.org/2000/svg" xmlns:xlink="http://www.w3.org/1999/xlink" width="768" height="468" viewBox="0 0 768 468">
    <defs>
        <path id="1si1mvnwoa" d="M80.08.423c2.193-.57 4.501-.564 6.691.017 6.954 1.818 22.541 6.633 25.884 13.959 4.332 9.497 19.497 24.27 19.497 24.27s20.582 20.05 16.249 33.769c-4.333 13.718-20.581 29.547-20.581 29.547s4.332 65.426-17.332 82.31c-21.664 16.885-30.33 5.277-30.33 21.106S12.998 270.827 0 240.224c0 0 6.5-56.984 4.333-77.034C2.198 143.43 5.323 20.14 80.08.423z"/>
    </defs>
    <g fill="none" fill-rule="evenodd">
        <g>
            <g>
                <g>
                    <g fill="#FADCD2">
                        <path d="M64.526 260.728C-47.325 225.378-20.137 67.39 209.466 67.39 439.067 67.39 174.397.465 437.531.465c175.422 0 255.138 71.528 239.15 214.584-333.537 54.019-537.588 69.245-612.156 45.679z" transform="translate(-535 -170) translate(0 124) translate(535.22 46) translate(87.305 195.642)"/>
                    </g>
                    <g transform="translate(-535 -170) translate(0 124) translate(535.22 46) matrix(-1 0 0 1 682.78 0)">
                        <path fill="#565D84" fill-rule="nonzero" d="M116.61 265.197h29.803l73.442-28.622s52.155-21.2 47.898 19.081C263.495 295.938 256.045 350 256.045 350s-23.417-10.6-36.19-7.42c-12.772 3.18-4.257-64.663-4.257-64.663s-104.31 49.822-113.89 43.462C92.128 315.019 90 270.497 90 270.497l26.61-5.3z"/>
                        <path fill="#FE9D8E" fill-rule="nonzero" d="M162.863 175l36.245 51.982 84.5 70.467s78.082 18.151 67.385 30.964c-10.696 12.812-75.942-12.813-75.942-12.813s-97.336-70.468-100.545-75.806c-3.209-5.339-38.506-55.52-38.506-55.52L162.863 175z"/>
                        <path fill="#FFF" fill-rule="nonzero" d="M162.863 175l36.245 51.982 84.5 70.467s78.082 18.151 67.385 30.964c-10.696 12.812-75.942-12.813-75.942-12.813s-97.336-70.468-100.545-75.806c-3.209-5.339-38.506-55.52-38.506-55.52L162.863 175z" opacity=".1"/>
                        <path fill="#FFBD24" fill-rule="nonzero" d="M141.4 133l23.6 46.837s-5.364 22.873-13.945 25.052c-8.582 2.178-45.055-28.32-45.055-28.32L141.4 133z"/>
                        <path fill="#2F2E41" fill-rule="nonzero" d="M425.26 240.371l6.691 28.72c.075.32.063.655-.033.968l-30.353 98.694c-.248.805-1.002 1.321-1.811 1.238-.809-.083-1.452-.742-1.544-1.582l-4.199-38.447c-.028-.256-.003-.514.074-.759l27.86-88.965c.24-.763.936-1.268 1.706-1.237.77.031 1.428.59 1.61 1.37z"/>
                        <path fill="#FF5814" fill-rule="nonzero" d="M421.625 247L428 270.86 400.375 358 394 331.028z"/>
                        <path fill="#2F2E41" fill-rule="nonzero" d="M288.167 376.813c1.045 3.248 108.611-1.083 109.656-2.166.91-1.356 1.68-2.808 2.297-4.332.982-2.165 1.88-4.331 1.88-4.331l-4.177-35.064L291.3 327s-2.663 29.714-3.206 43.315c-.136 3.433-.136 5.848.073 6.498z"/>
                        <path fill="#000" fill-rule="nonzero" d="M383.956 340L386 370 340 370 340 340zM321.694 349.057L322 349 320.551 362 292 362 292 349.057zM283.17 376.764c1.062 3.382 110.432-1.127 111.494-2.255.926-1.411 1.709-2.923 2.336-4.509H283.096c-.138 3.574-.138 6.088.074 6.764z" opacity=".1"/>
                        <circle cx="159" cy="67" r="49" fill="#FFC4BB" fill-rule="nonzero"/>
                        <path fill="#FFC4BB" fill-rule="nonzero" d="M157 111.742s-15.766 28.67-18.92 44.107c-3.153 15.438-47.299-30.875-47.299-30.875L85 108.985s41.518-20.4 38.365-36.94C120.212 55.505 157 111.742 157 111.742zM161.682 192l43.29 58.775 103.476 79.456s74.966 16.327 58.072 28.3c-16.893 11.972-65.463-10.885-65.463-10.885s-104.532-57.687-126.705-81.632C152.18 242.068 111 201.796 111 201.796L161.682 192z"/>
                        <path fill="#565D84" fill-rule="nonzero" d="M106.78 283.543l12.644 19.946 75.463-23.654c16.558-5.19 34.714-3.28 49.4 5.938 13.172 8.268 21.601 21.39 2.635 40.812-37.934 38.844-63.222 17.847-63.222 17.847s-127.498 59.84-148.572 30.445C14.054 345.482 13 330.785 13 330.785s81.135-50.392 93.78-47.242z"/>
                        <path fill="#212549" fill-rule="nonzero" d="M266.823 354.495s33.47 22.156-6.276 32.706c-39.745 10.55-69.031-4.22-69.031-4.22S157 382.98 157 365.045C157 347.11 168.505 345 168.505 345l35.562 5.275s42.883-11.605 62.756 4.22zM200.638 59.96c3.26 1.501 6.492 3.279 10.035 3.715 3.544.435 7.58-.843 9.256-4.099.906-1.758 1.01-3.826 1.052-5.818.128-6.04-.295-12.568-3.998-17.241-2.357-2.975-5.797-4.85-8.237-7.752-1.748-2.08-2.91-4.6-4.163-7.03-4.745-9.21-11.77-18.06-21.533-20.715-4.076-1.108-8.353-1.054-12.568-.993l-24.586.359c-3.978.058-8.018.125-11.827 1.315-7.913 2.473-13.675 9.35-18.952 15.927-3.948 4.92-7.907 9.891-10.87 15.502-4.248 8.188-6.396 17.364-6.239 26.653-.033 2.382.265 4.757.884 7.052.724 2.105 1.621 4.142 2.682 6.089 4.61 9.359 7.348 21.048 2.156 30.076 9.02-3.808 17.944-8.8 23.894-16.774 2.662-3.567 4.75-7.742 8.297-10.36 3.547-2.617 9.327-2.844 11.603.997.782 1.554 1.185 3.282 1.173 5.034.166 2.884.162 5.878 1.345 8.495 1.183 2.618 4.001 4.73 6.692 3.946 4.633-1.349 4.19-8.698 7.758-12.036 2.71-2.535 6.892-2.05 10.374-3.202 4.057-1.34 7.1-4.973 8.835-8.993 1.318-3.056 1.3-11.052 3.794-12.707 3.129-2.076 10.243 1.224 13.143 2.56z"/>
                        <g transform="translate(0 103)">
                            <mask id="ap6hb2vhzb" fill="#fff">
                                <use xlink:href="#1si1mvnwoa"/>
                            </mask>
                            <use fill="#FFBD24" fill-rule="nonzero" xlink:href="#1si1mvnwoa"/>
                            <circle cx="20" cy="72" r="10" fill="#F0F0F0" mask="url(#ap6hb2vhzb)"/>
                            <circle cx="82" cy="24" r="8" fill="#F0F0F0" mask="url(#ap6hb2vhzb)"/>
                            <circle cx="83.5" cy="125.5" r="6.5" fill="#F0F0F0" mask="url(#ap6hb2vhzb)"/>
                            <circle cx="52" cy="94" r="8" fill="#F0F0F0" mask="url(#ap6hb2vhzb)"/>
                            <circle cx="47.5" cy="195.5" r="6.5" fill="#F0F0F0" mask="url(#ap6hb2vhzb)"/>
                            <circle cx="2" cy="144" r="8" fill="#F0F0F0" mask="url(#ap6hb2vhzb)"/>
                            <circle cx="3.5" cy="245.5" r="6.5" fill="#F0F0F0" mask="url(#ap6hb2vhzb)"/>
                            <circle cx="72" cy="164" r="8" fill="#F0F0F0" mask="url(#ap6hb2vhzb)"/>
                            <circle cx="67.5" cy="225.5" r="6.5" fill="#F0F0F0" mask="url(#ap6hb2vhzb)"/>
                            <circle cx="126" cy="134" r="8" fill="#F0F0F0" mask="url(#ap6hb2vhzb)"/>
                            <circle cx="37.5" cy="125.5" r="6.5" fill="#F0F0F0" mask="url(#ap6hb2vhzb)"/>
                            <circle cx="19.5" cy="204.5" r="6.5" fill="#F0F0F0" mask="url(#ap6hb2vhzb)"/>
                            <circle cx="116" cy="14" r="8" fill="#F0F0F0" mask="url(#ap6hb2vhzb)"/>
                            <circle cx="101.5" cy="165.5" r="6.5" fill="#F0F0F0" mask="url(#ap6hb2vhzb)"/>
                        </g>
                        <path fill="#FDD35C" fill-rule="nonzero" d="M112.107 130.826s62.861 48.406 51.525 68.844c0 0-38.129 19.362-46.373 18.287-8.244-1.076-40.19-38.725-48.434-41.952-8.244-3.227-12.366-61.315 43.282-45.18z"/>
                        <path stroke="#212549" d="M49.987 342c5.342 4 13.346 6.333 24.013 7 10.667.667 71.01-16.321 181.03-50.963"/>
                    </g>
                    <path fill="#0098A7" fill-rule="nonzero" d="M124.231 366.052C115.524 398.637 85.015 419 85.015 419s-16.393-32.467-7.686-65.052C86.035 321.363 116.545 301 116.545 301s16.393 32.467 7.686 65.052z" transform="translate(-535 -170) translate(0 124) translate(535.22 46) matrix(-1 0 0 1 201.56 0)"/>
                    <path fill="#00BED0" fill-rule="nonzero" d="M34.861 341.556C4.209 372.208.78 419 .78 419s46.267-2.905 76.919-33.556C108.35 354.792 111.779 308 111.779 308s-46.266 2.905-76.918 33.556z" transform="translate(-535 -170) translate(0 124) translate(535.22 46) matrix(-1 0 0 1 112.56 0)"/>
                    <path fill="#FADCD2" fill-rule="nonzero" d="M322.28 232c19.606 0 35.5-16.118 35.5-36s-27.394-13-47-13-60-17.882-60 2 51.894 47 71.5 47z" transform="translate(-535 -170) translate(0 124) translate(535.22 46) scale(-1 1) rotate(-27 0 1471.223)"/>
                    <path fill="#FADCD2" fill-rule="nonzero" d="M387.943 189.881c5.863 0 10.617-8.575 10.617-19.153 0-10.579-8.193-6.917-14.056-6.917-5.864 0-17.944-9.514-17.944 1.064s15.52 25.006 21.383 25.006z" transform="translate(-535 -170) translate(0 124) translate(535.22 46) scale(1 -1) rotate(39 876.409 0)"/>
                </g>
            </g>
        </g>
    </g>
</svg>
