<svg xmlns="http://www.w3.org/2000/svg" width="33" height="33" viewBox="0 0 33 33">
    <g fill="none" fill-rule="evenodd">
        <g stroke="#9B9B9B" stroke-width="2">
            <g>
                <g>
                    <g>
                        <g>
                            <g>
                                <g>
                                    <g>
                                        <g transform="translate(-876 -314) translate(-83) translate(385 213) translate(36) translate(0 92) translate(506) translate(5 10) translate(28) matrix(-1 0 0 1 32 0)">
                                            <g>
                                                <path fill-rule="nonzero" stroke-linecap="round" d="M16 1.32C16 .591 16.796 0 17.778 0h12.444C31.204 0 32 .591 32 1.32v19.36c0 .729-.796 1.32-1.778 1.32h-6.878"/>
                                                <path d="M11 17c2.758 0 5.254 1.152 7.061 3.01C19.878 21.88 21 24.463 21 27.315c0 .452-.194.845-.507 1.192-.443.492-1.104.894-1.897 1.232C16.598 30.588 13.797 31 11 31c-2.797 0-5.598-.411-7.596-1.262-.793-.338-1.454-.74-1.897-1.232-.313-.347-.507-.74-.507-1.192 0-2.852 1.122-5.434 2.939-7.303C5.746 18.152 8.242 17 11 17z"/>
                                                <path stroke-linecap="round" d="M26 5L29 5M26 11L29 11M26 17L29 17M19 11L22 11M19 17L22 17M19 5L22 5"/>
                                            </g>
                                            <circle cx="11.5" cy="9.5" r="4.5"/>
                                        </g>
                                    </g>
                                </g>
                            </g>
                        </g>
                    </g>
                </g>
            </g>
        </g>
    </g>
</svg>
