<svg width="384" height="384" viewBox="0 0 384 384" fill="none" xmlns="http://www.w3.org/2000/svg">
<g clip-path="url(#clip0_11_8)">
<path d="M383.2 39C380.7 44.6 379 50.9 375.5 55.8C366.9 67.7 348.5 74.2 330 63.6C325.2 68.5 320.4 73.5 315.4 78.4C312.1 81.6 307.6 81.5 304.7 78.5C301.9 75.6 301.9 71.4 304.8 68C305.8 66.9 306.9 65.8 308 64.8C311.9 61 315.9 57.2 319.8 53.4C313.4 42.4 312.5 31.5 317.5 20.4C323.5 7.1 337.8 -1.1 352.1 0.299996C366.9 1.8 378.9 12.4 382.4 26.9C382.7 28 383 29 383.3 30.1C383.2 33 383.2 36 383.2 39ZM368.3 34.4C368.3 23.7 359.4 15 348.7 15.1C338.1 15.2 329.5 23.9 329.5 34.5C329.5 45.2 338.2 54 349 54C359.5 53.9 368.3 45.1 368.3 34.4Z" fill="black"/>
<path d="M344.3 383.3C338 381.7 331.9 379.6 326.8 375.4C315.3 365.8 309.5 348 319.7 330.3C315 325.7 310.3 321 305.5 316.3C303 313.8 301.9 310.9 303.2 307.5C305.1 302.5 311.4 301.3 315.5 305.2C320.4 309.9 325.1 314.9 330 319.9C338.6 314.9 347.4 313 356.8 315.5C370.2 319.1 378.6 327.8 382.3 341.2C382.6 342.3 382.9 343.3 383.2 344.4C383.2 347.4 383.2 350.4 383.2 353.4C381.6 359.8 379.5 365.9 375.1 371.1C369.3 377.9 361.8 381.5 353.3 383.4C350.3 383.3 347.3 383.3 344.3 383.3ZM368.3 348.8C368.3 338.1 359.4 329.3 348.7 329.4C338.1 329.5 329.5 338.1 329.4 348.7C329.3 359.4 338.1 368.3 348.8 368.3C359.5 368.3 368.3 359.5 368.3 348.8Z" fill="black"/>
<path d="M29.9 383.3C23.5 381.7 17.3 379.6 12.1 375.1C-1.29999 363.5 -3.99999 344.3 5.80001 329.8C15.6 315.3 34.4 310.4 50.1 318.3C51 318.7 51.8 319.2 53.1 319.9C57.8 315.1 62.5 310.3 67.3 305.6C70.4 302.6 73.6 302.1 76.8 303.9C81.2 306.4 81.9 312 78 316C73.3 320.8 68.4 325.4 64.4 329.3C66 336.1 68.4 341.9 68.7 347.8C69.6 365 57.7 379.4 40.7 382.8C40.1 382.9 39.5 383.2 39 383.4C35.9 383.3 32.9 383.3 29.9 383.3ZM34.5 329.4C23.8 329.3 15 338.1 14.9 348.8C14.9 359.4 23.5 368.1 34 368.3C44.7 368.4 53.7 359.8 53.8 349.1C54 338.3 45.3 329.5 34.5 329.4Z" fill="black"/>
<path d="M109.4 75.1C111.5 75.8 112.9 76.3 114.2 76.9C120.2 79.7 126.1 82.7 132.1 85.3C133.7 86 135.9 85.8 137.6 85.2C143.3 83.1 148.8 80.5 154.6 78.4C156.9 77.6 158 76.4 158.7 74.2C160.8 67.9 163 61.7 165.3 55.5C166.9 51 169 49.5 173.7 49.5C185.7 49.5 197.7 49.5 209.6 49.5C214.2 49.5 216.3 51 218 55.5C220.3 61.7 222.5 67.9 224.6 74.2C225.3 76.4 226.5 77.6 228.8 78.4C234.6 80.5 240.3 83.2 246.1 85.4C247.5 85.9 249.5 86.1 250.9 85.5C257 82.9 262.9 79.9 268.8 77.1C273.7 74.8 276.1 75.1 279.9 78.8C288.2 87.1 296.5 95.4 304.8 103.7C308.3 107.2 308.7 109.7 306.7 114.1C303.9 120.2 300.8 126.2 298.1 132.4C297.5 133.9 297.6 136 298.2 137.5C300.4 143.3 302.8 149.1 305.4 154.7C306.1 156.3 307.7 157.9 309.2 158.5C315.3 161 321.6 163 327.8 165.3C332.5 167 334 169.1 334 173.9C334 185.8 334 197.6 334 209.5C334 214.3 332.5 216.4 327.8 218.1C321.6 220.4 315.3 222.4 309.2 224.9C307.6 225.5 306.1 227.2 305.4 228.7C302.8 234.3 300.4 240.1 298.2 245.9C297.6 247.4 297.5 249.6 298.1 251C300.7 257.1 303.7 263 306.5 268.9C308.8 273.8 308.4 276.1 304.5 279.9C296.3 288.1 288.1 296.3 279.9 304.5C276.2 308.1 273.8 308.6 269.2 306.4C263.1 303.5 257.1 300.5 250.9 297.9C249.5 297.3 247.5 297.4 246.1 298C240.2 300.3 234.3 302.7 228.5 305.3C227 306 225.5 307.4 224.9 308.9C222.4 315.1 220.3 321.5 218 327.9C216.4 332.3 214.2 333.9 209.6 333.9C197.6 333.9 185.6 333.9 173.7 333.9C169.1 333.9 167 332.4 165.3 327.9C163 321.7 160.8 315.5 158.7 309.2C158 307 156.8 305.8 154.5 305C148.8 302.9 143.3 300.3 137.5 298.2C135.9 297.6 133.6 297.5 132 298.2C125.9 300.8 120 303.8 114.1 306.6C109.5 308.8 107 308.3 103.4 304.7C95.1001 296.4 86.8 288.1 78.5 279.8C75 276.3 74.6 273.8 76.6 269.4C79.4 263.4 82.4 257.5 85 251.5C85.7 249.9 85.6 247.7 85 246C82.8 240.2 80.5001 234.4 77.8001 228.8C77.1001 227.2 75.5 225.6 74 225C67.9 222.5 61.6001 220.5 55.4001 218.3C50.7001 216.6 49.3 214.5 49.3 209.7C49.3 197.8 49.3 186 49.3 174.1C49.3 169.3 50.8 167.2 55.5 165.5C61.7 163.2 68 161.2 74.1 158.8C75.7 158.2 77.2001 156.5 77.9001 154.9C80.5001 149.3 82.9 143.5 85.1 137.7C85.7 136.2 85.8 134 85.2 132.6C82.6 126.5 79.6001 120.6 76.8001 114.7C74.6001 109.9 74.9 107.5 78.5 103.9C86.9 95.5 95.2 87.1 103.7 78.8C105.4 77 107.6 76.1 109.4 75.1ZM291.3 111.3C285.5 105.5 279.6 99.9 274 94C272.4 92.3 271.1 92.3 269.2 93.3C263.6 96.1 257.9 98.6 252.4 101.4C249.3 102.9 246.6 102.6 243.5 101.2C235.5 97.6 227.3 94.2 219.1 91.1C215.8 89.8 213.6 88 212.5 84.7C210.6 78.9 208.4 73.2 206.4 67.4C205.7 65.4 204.9 64.4 202.5 64.5C195.3 64.7 188 64.7 180.8 64.5C178.4 64.4 177.6 65.4 176.9 67.5C175 73.3 172.8 79 170.8 84.8C169.7 88.2 167.5 90 164.2 91.2C156 94.3 147.8 97.7 139.8 101.3C136.7 102.7 134 103 130.9 101.5C125.2 98.7 119.5 95.9 113.7 93.3C112.7 92.9 110.9 92.8 110.2 93.5C104.1 99.4 98.1 105.4 92 111.5C95.1 118.1 98 124.5 101.2 130.8C102.8 134 102.5 136.8 101.1 140C97.5 148 94.1 156.2 91 164.4C89.8 167.6 88.1001 169.7 84.9001 170.8C78.9001 172.9 73.0001 175.1 66.9001 177.1C65.1001 177.7 64.4001 178.6 64.4001 180.5C64.5001 187.9 64.5001 195.2 64.4001 202.6C64.4001 204.8 65.2 205.6 67.1 206.3C73 208.3 78.8 210.5 84.7 212.5C88.1 213.6 89.8 215.9 91.1 219.2C94.2 227.3 97.5 235.4 101.1 243.3C102.5 246.5 103 249.3 101.4 252.5C98.6001 258.1 96.1001 263.8 93.3001 269.3C92.3001 271.3 92.6 272.5 94.2 274.1C99.3 279 104.3 284.1 109.3 289.2C110.8 290.7 112 291.3 114.1 290.2C119.6 287.4 125.4 284.9 130.9 282.1C134.1 280.5 136.9 280.9 140.1 282.3C148 285.9 156.1 289.2 164.2 292.3C167.7 293.6 169.9 295.5 171 299C172.9 304.8 175.1 310.5 177.1 316.3C177.7 318.2 178.5 319.1 180.8 319.1C188.2 318.9 195.5 318.9 202.9 319.1C205.2 319.2 205.9 318.2 206.5 316.3C208.5 310.5 210.7 304.8 212.6 299C213.8 295.5 216 293.6 219.5 292.3C227.6 289.2 235.7 285.9 243.6 282.3C246.8 280.9 249.6 280.5 252.8 282.1C259.1 285.3 265.6 288.2 272.2 291.3C278.2 285.3 284.3 279.3 290.1 273.2C290.7 272.5 290.8 270.7 290.3 269.7C287.7 263.9 285 258.2 282.2 252.5C280.7 249.4 280.9 246.7 282.3 243.6C285.9 235.6 289.3 227.4 292.4 219.2C293.7 215.9 295.4 213.7 298.8 212.5C304.7 210.5 310.5 208.3 316.4 206.3C318.3 205.6 319.1 204.7 319.1 202.6C318.9 195.2 319.1 187.9 318.9 180.5C318.9 179.3 317.6 177.6 316.5 177.2C310.8 174.9 305.1 172.8 299.3 171C295.4 169.8 293.6 167.3 292.2 163.6C289.3 155.8 286.2 148.1 282.7 140.5C281 136.9 280.6 133.8 282.4 130.3C285.3 124.1 288.2 117.8 291.3 111.3Z" fill="black"/>
<path d="M63.6 53.3C68.4 58 73.3 62.7 78.1 67.5C80.4 69.8 81.6 72.9 79.9 75.6C78.6 77.7 76 79.8 73.8 80.1C71.7 80.4 68.8 78.9 67 77.3C62.2 73 57.8 68.2 53.2 63.4C43.7 68.9 33.9 70.4 23.6 67C15.8 64.4 9.59996 59.5 5.19996 52.4C-3.50004 38.4 -1.10004 20.6 10.9 9.29999C22.9 -2.00001 41.2 -3.30001 54.5 6.39999C69 17 72.4 34 63.6 53.3ZM53.9 34.4C53.8 23.7 45 15 34.3 15C23.7 15.1 15 23.8 15 34.4C14.9 45.1 23.7 54 34.4 54C45.1 53.9 53.9 45.1 53.9 34.4Z" fill="black"/>
<path d="M140.5 230.6C145.9 219.4 154.2 212.2 165.7 208.7C156.1 191 161.4 171.4 172.9 163C184.5 154.5 199.9 154.8 211.1 163.5C223.2 173 226.3 193.2 217.6 208.6C229.1 212.2 237.6 219.4 242.8 230.6C250.8 220 255.4 208.4 255.8 195.5C256.7 168.8 245.3 148.7 222.4 135C220.2 133.7 218.2 131.4 217.2 129.2C216 126.4 217.4 123.5 220 121.7C222.7 119.8 225.6 119.9 228.5 121.5C243.5 129.5 255 140.9 262.6 156.1C286.6 204.4 257.5 261 204.2 270.2C160.1 277.7 117.4 245 112.9 200.3C109.6 167.7 125.5 137.6 154 122.1C158.8 119.5 163.1 120.3 165.4 124.3C167.6 128.3 166.2 132.3 161.3 135.1C138.8 148 127.4 167.5 127.4 193.4C127.5 206.8 132 219.2 140.5 230.6ZM192.1 222.4C186.5 222.4 180.9 222.3 175.3 222.4C164.8 222.6 155.9 229.9 153.3 240C152.8 242 153.2 243.1 154.9 244.3C175.9 259.8 207.7 259.8 228.9 244.3C230.6 243 230.9 241.8 230.4 239.9C227.8 230 218.9 222.7 208.7 222.4C203 222.3 197.5 222.4 192.1 222.4ZM175.9 189.9C175.9 190.5 175.9 191.4 175.9 192.2C176.2 200.1 182.4 206.6 190.3 207.3C198 208 205.4 202.8 207 195.3C207.6 192.3 207.5 189.1 207.4 186C207 179.5 202.3 174 196.1 172.2C186.5 169.4 174.8 176.6 175.9 189.9Z" fill="#FC7B4A"/>
<path d="M184.2 119.8C184.2 115.9 187.5 112.4 191.5 112.3C195.7 112.2 199.1 115.5 199.1 119.7C199.1 123.7 195.9 127.1 191.9 127.2C187.9 127.4 184.3 123.9 184.2 119.8Z" fill="#FC7B4A"/>
</g>
<defs>
<clipPath id="clip0_11_8">
<rect width="383.2" height="383.3" fill="white"/>
</clipPath>
</defs>
</svg>
