<svg width="384" height="384" viewBox="0 0 384 384" fill="none" xmlns="http://www.w3.org/2000/svg">
<g clip-path="url(#clip0_9_2)">
<path d="M0 300.143C0.63443 297.636 1.21129 295.112 1.91233 292.623C4.80093 282.282 10.8054 273.082 19.1088 266.275C27.4122 259.469 37.6111 255.385 48.3177 254.581C49.155 254.511 49.9916 254.434 51.224 254.325C41.4899 240.22 42.2123 224.654 45.0677 209.427C48.5636 190.784 66.4538 178.71 85.6235 180.428C103.739 182.051 118.604 197.472 119.601 215.95C119.923 221.918 119.871 227.928 119.602 233.901C119.271 241.247 116.58 247.9 112.191 254.272H153.982C152.858 252.996 152.061 252.102 151.274 251.198C142.682 241.637 137.881 229.265 137.774 216.411C137.613 204.565 137.667 192.715 137.747 180.868C137.807 166.607 143.518 152.952 153.629 142.895C163.74 132.838 177.426 127.199 191.687 127.215C205.948 127.231 219.621 132.9 229.709 142.979C239.798 153.059 245.479 166.727 245.507 180.988C245.578 190.715 245.238 200.454 245.583 210.169C246.18 226.938 241.536 241.654 229.205 254.157H270.506C270.52 254.083 270.681 253.777 270.59 253.64C260.953 239.14 261.782 223.09 265.353 207.433C269.363 189.846 287.332 178.622 305.598 180.444C314.354 181.392 322.504 185.368 328.642 191.684C334.779 197.999 338.52 206.26 339.218 215.039C339.623 220.748 339.511 226.504 339.439 232.235C339.301 240.112 336.717 247.751 332.043 254.094C335.831 254.711 339.355 255.092 342.788 255.875C354.194 258.454 364.395 264.811 371.736 273.914C379.077 283.017 383.127 294.333 383.231 306.027C383.318 315.006 383.262 323.986 383.247 332.965C383.236 339.703 380.721 342.288 374.034 342.299C356.325 342.33 338.615 342.334 320.905 342.311C319.424 342.311 317.943 342.311 315.883 342.311V348.359C315.883 356.591 315.682 364.829 315.962 373.05C316.118 377.662 314.689 381.022 310.643 383.231H160.936C156.492 380.205 154.976 377.343 155.958 373.835C157.054 369.921 159.955 368.266 165.746 368.261C170.463 368.257 175.18 368.26 180.001 368.26C179.994 367.818 179.938 367.377 179.835 366.947C166.765 335.179 153.654 303.428 140.501 271.695C140.133 270.811 138.235 269.963 137.144 270.069C109.903 272.704 85.8769 295.659 83.2302 322.976C81.8058 337.679 82.6192 352.598 82.4417 367.42C82.4394 367.618 82.6855 367.819 82.9835 368.276C87.164 368.276 91.5144 368.133 95.8515 368.312C101.216 368.533 104.805 373.566 102.685 378.176C101.777 380.152 99.6382 381.563 98.0585 383.231H72.6082C68.5531 381.029 67.1467 377.668 67.288 373.054C67.5627 364.083 67.3762 355.097 67.3589 346.117C67.3566 344.93 67.2263 343.744 67.1406 342.311H62.7221C45.0117 342.311 27.3004 342.22 9.59129 342.373C5.08349 342.412 1.85792 340.991 0 336.822L0 300.143ZM300.825 368.179C300.825 354.525 301.326 341.193 300.723 327.91C299.385 298.461 275.622 273.39 246.628 269.991C244.194 269.706 243.192 270.276 242.257 272.559C229.575 303.536 216.828 334.487 204.015 365.411C203.67 366.248 203.48 367.148 203.17 368.179H300.825ZM152.742 196.184C152.742 203.378 152.587 210.212 152.773 217.038C153.067 225 155.804 232.68 160.611 239.034C165.419 245.388 172.066 250.109 179.649 252.556C194.875 257.583 211.897 252.301 222.038 239.849C232.724 226.728 230.407 211.393 230.438 196.196C217.452 196.042 204.69 192.801 193.204 186.74C192.657 186.527 192.072 186.43 191.486 186.454C190.9 186.479 190.325 186.624 189.798 186.882C178.354 192.867 165.655 196.055 152.742 196.184V196.184ZM368.28 327.178C368.28 320.373 368.306 314.025 368.276 307.678C368.171 285.512 352.173 269.534 329.969 269.462C316.122 269.417 302.275 269.45 288.428 269.459C287.385 269.46 286.342 269.547 284.587 269.625C303.702 284.631 313.84 303.768 315.877 327.178H368.28ZM98.7018 269.565C81.5148 269.565 65.1789 269.018 48.8969 269.721C32.9204 270.41 18.8356 282.65 16.109 298.331C14.4859 307.665 15.0096 317.372 14.5585 327.121H67.4052C69.4203 303.619 79.6267 284.64 98.7018 269.565ZM191.628 356.117C203.771 326.673 215.484 298.273 227.29 269.646H199.097C199.097 275.66 199.201 281.489 199.064 287.312C199.083 288.313 198.898 289.308 198.523 290.236C198.147 291.165 197.587 292.008 196.877 292.714C196.167 293.421 195.322 293.976 194.392 294.348C193.462 294.719 192.466 294.898 191.465 294.875C187.454 294.785 184.404 291.679 184.166 287.368C184.084 285.877 184.142 284.378 184.141 282.882C184.139 278.453 184.14 274.024 184.14 269.639H155.949C167.787 298.331 179.488 326.691 191.628 356.117ZM105.024 224.851L104.72 224.832C104.72 222.218 104.846 219.597 104.698 216.991C104.39 211.277 101.959 205.885 97.8811 201.871C93.8033 197.857 88.3731 195.512 82.6554 195.294C70.2284 194.975 60.007 203.645 58.9982 215.907C58.505 221.986 58.5227 228.095 59.0511 234.171C59.6498 239.567 62.152 244.573 66.1086 248.29C70.0652 252.007 75.2171 254.193 80.6396 254.454C86.0622 254.716 91.4005 253.036 95.6965 249.717C99.9924 246.397 102.965 241.656 104.08 236.343C104.817 232.595 104.733 228.686 105.024 224.851ZM278.216 224.63L278.52 224.651C278.52 227.265 278.415 229.884 278.538 232.492C278.819 238.272 281.258 243.735 285.373 247.803C289.488 251.871 294.979 254.247 300.761 254.461C306.55 254.702 312.211 252.711 316.575 248.9C320.939 245.089 323.674 239.749 324.215 233.98C324.726 227.779 324.71 221.546 324.169 215.348C323.239 204.587 313.938 195.926 303.386 195.326C291.624 194.657 281.458 202.001 279.205 213.145C278.449 216.887 278.522 220.797 278.216 224.63V224.63ZM230.592 181.151C229.891 166.359 223.85 155.005 211.439 147.728C197.789 139.725 183.765 140.039 170.443 148.583C158.872 156.004 153.214 167.019 152.702 181.119C164.566 181.054 175.312 178.303 184.971 172.202C189.753 169.182 193.69 169.306 198.387 172.252C207.981 178.272 218.636 180.958 230.592 181.151V181.151Z" fill="black"/>
<path d="M127.251 383.231C126.658 382.815 126.058 382.409 125.473 381.981C122.576 379.861 121.296 377.061 122.42 373.571C122.882 372.054 123.819 370.725 125.093 369.781C126.366 368.837 127.91 368.327 129.496 368.327C131.081 368.327 132.625 368.836 133.899 369.78C135.174 370.724 136.111 372.052 136.573 373.569C137.683 377.069 136.413 379.858 133.518 381.979C132.934 382.407 132.335 382.814 131.743 383.231H127.251Z" fill="#FC7B4A"/>
<path d="M225.21 70.6091C227.417 77.388 229.522 83.7687 231.569 90.1681C233.952 97.6202 232.209 103.873 226.702 107.856C221.037 111.952 214.826 111.738 208.384 107.133C202.82 103.155 197.307 99.1048 191.636 94.9882C185.983 99.0931 180.476 103.147 174.91 107.119C168.447 111.733 162.227 111.954 156.589 107.875C151.027 103.852 149.281 97.6607 151.663 90.2079C153.483 84.5168 155.257 78.8075 157.269 73.1837C157.995 71.1529 157.588 70.0868 155.861 68.8982C150.932 65.5079 146.113 61.9559 141.286 58.4198C134.927 53.7611 132.734 47.8396 134.844 41.2188C136.865 34.8769 142.135 31.192 149.781 31.03C155.889 30.9006 162.005 30.9153 168.113 31.0389C170.231 31.0817 171.195 30.3494 171.801 28.3255C173.553 22.4841 175.468 16.6903 177.413 10.9091C179.786 3.85126 185.02 -0.0683303 191.794 0.00108974C198.414 0.0688897 203.501 3.94978 205.828 10.8663C207.694 16.4113 209.566 21.9614 211.163 27.5867C211.901 30.1881 213.094 31.1281 215.844 31.0644C222.447 30.9114 229.071 30.8771 235.662 31.2409C238.62 31.3571 241.461 32.4214 243.767 34.2765C246.074 36.1316 247.722 38.6793 248.469 41.5431C250.265 47.8549 248.529 53.191 243.46 57.2286C239.077 60.7203 234.427 63.877 229.895 67.183C228.395 68.2777 226.896 69.376 225.21 70.6091ZM149.951 45.9669C151.849 47.4576 152.776 48.2355 153.753 48.9447C159.295 52.9694 164.872 56.9462 170.391 61.0021C174.29 63.8673 175.081 66.4184 173.65 71.0651C172.882 73.5608 172.058 76.0398 171.248 78.5227C169.536 83.7717 167.816 89.0182 165.77 95.2723C173.327 89.7719 179.94 84.9155 186.602 80.1273C190.073 77.6325 193.039 77.6536 196.576 80.055C197.915 80.964 199.2 81.9516 200.51 82.9027C205.872 86.7953 211.234 90.6876 217.474 95.2169C214.735 86.8267 212.351 79.5262 209.97 72.2246C207.982 66.1284 208.612 64.1344 213.7 60.4336C217.729 57.5032 221.761 54.5761 225.795 51.6523C228.029 50.0312 230.263 48.411 232.498 46.7918C231.279 46.1576 229.908 45.8722 228.536 45.9669C221.558 45.9641 214.58 45.9618 207.602 45.9599C203.473 45.9618 200.784 44.0503 199.56 40.064C198.757 37.4489 197.844 34.8676 197 32.2652C195.335 27.1376 193.683 22.0058 191.709 15.8946C190.922 18.0478 190.481 19.1519 190.112 20.2797C188.141 26.309 186.18 32.3415 184.229 38.3773C182.136 44.8207 180.572 45.951 173.682 45.9651C169.32 45.9741 164.959 45.9669 160.598 45.967C157.418 45.9669 154.238 45.9669 149.952 45.9669H149.951Z" fill="#FC7B4A"/>
</g>
<defs>
<clipPath id="clip0_9_2">
<rect width="383.278" height="383.231" fill="white"/>
</clipPath>
</defs>
</svg>
