<svg xmlns="http://www.w3.org/2000/svg" width="38" height="38" viewBox="0 0 38 38">
  <g id="swipe-left" transform="translate(-2.714 -8.364)">
    <g id="Group_7" data-name="Group 7" transform="translate(2.364 8.364)">
      <g id="Group_6" data-name="Group 6">
        <g id="Group_5" data-name="Group 5">
          <g id="Group_4" data-name="Group 4">
            <circle id="Ellipse_1" data-name="Ellipse 1" cx="19" cy="19" r="19" transform="translate(0.35)" fill="#fff"/>
            <path id="Path_1" data-name="Path 1" d="M14.687,10.217a.722.722,0,0,1,1.031,0,.732.732,0,0,1,0,1.025l-5.233,5.246H27.753a.719.719,0,0,1,.722.725.729.729,0,0,1-.722.735H10.486l5.234,5.236a.747.747,0,0,1,0,1.035.723.723,0,0,1-1.033,0L8.216,17.73a.716.716,0,0,1,0-1.025l6.471-6.488Z" transform="translate(0.792 2)" fill="#9b9b9b"/>
          </g>
        </g>
      </g>
    </g>
  </g>
</svg>
