<svg xmlns="http://www.w3.org/2000/svg" width="24" height="24" viewBox="0 0 24 24">
    <g fill="none" fill-rule="evenodd">
        <g>
            <g>
                <g>
                    <g transform="translate(-302 -480) translate(0 464) translate(100 16) translate(202)">
                        <rect width="24" height="24" fill="#979797" rx="12"/>
                        <g fill="#FFF" fill-rule="nonzero">
                            <path d="M7.061 6l4.72-4.718c.292-.293.292-.769 0-1.061-.294-.294-.769-.294-1.062 0L6 4.939 1.281.221C.988-.073.513-.073.22.22c-.293.292-.293.768 0 1.06l4.719 4.72-4.72 4.718c-.292.293-.292.768 0 1.061.147.146.34.22.531.22.192 0 .384-.074.531-.22l4.72-4.719 4.718 4.719c.147.146.339.22.53.22.192 0 .385-.074.531-.22.293-.293.293-.768 0-1.061L7.061 6z" transform="translate(6 6)"/>
                        </g>
                    </g>
                </g>
            </g>
        </g>
    </g>
</svg>
