<svg xmlns="http://www.w3.org/2000/svg" width="13" height="18" viewBox="0 0 13 18">
    <g fill="none" fill-rule="evenodd">
        <g fill="#E8F7E7" stroke-width=".5">
            <g>
                <path stroke="#00BD00" d="M5.733 7.533c1.067 0 1.934-.866 1.934-1.933 0-1.067-.867-1.933-1.934-1.933-1.066 0-1.933.866-1.933 1.933 0 1.067.867 1.933 1.933 1.933h0zm0-3.333c.734 0 1.4.6 1.4 1.4 0 .733-.6 1.4-1.4 1.4-.733 0-1.4-.6-1.4-1.4 0-.8.6-1.4 1.4-1.4h0z" transform="translate(-927 -196) translate(928 197)"/>
                <path stroke="#00BC00" d="M5.667 15.467l4.2-6.134c1.6-2.133 1.333-5.6-.467-7.466-1-1-2.333-1.534-3.733-1.534S2.933.867 1.933 1.867C.067 3.733-.133 7.2 1.467 9.267l4.2 6.2h0zm-3.334-13.2C3.2 1.4 4.4.867 5.667.867c1.266 0 2.466.466 3.333 1.4 1.667 1.666 1.867 4.8.467 6.733l-3.8 5.467L1.867 9c-1.4-1.933-1.2-5.067.466-6.733h0z" transform="translate(-927 -196) translate(928 197)"/>
            </g>
        </g>
    </g>
</svg>
