<svg xmlns="http://www.w3.org/2000/svg" width="542" height="381" viewBox="0 0 542 381">
    <g fill="none" fill-rule="evenodd">
        <g fill-rule="nonzero">
            <g>
                <g transform="translate(-717 -20) translate(0 124) matrix(-1 0 0 1 1259 -104)">
                    <path fill="#3F3D56" d="M434.97 354.462C431.455 367.717 419.134 376 419.134 376s-6.62-13.207-3.104-26.462C419.546 336.283 431.867 328 431.867 328s6.62 13.207 3.104 26.462z"/>
                    <path fill="#7CA5FF" d="M431.44 352.279C422.05 361.667 421 376 421 376s14.172-.89 23.56-10.279C453.95 356.333 455 342 455 342s-14.172.89-23.56 10.279z"/>
                    <path fill="#2F2E41" d="M72.594 302.265h18.585l45.798-17.798s32.524-13.184 29.869 11.865c-2.655 25.05-7.301 58.668-7.301 58.668s-14.603-6.592-22.568-4.614c-7.965 1.977-2.655-40.21-2.655-40.21s-65.047 30.981-71.02 27.026c-5.975-3.955-7.302-31.64-7.302-31.64l16.594-3.297z"/>
                    <path fill="#000" d="M72.594 302.265h18.585l45.798-17.798s32.524-13.184 29.869 11.865c-2.655 25.05-7.301 58.668-7.301 58.668s-14.603-6.592-22.568-4.614c-7.965 1.977-2.655-40.21-2.655-40.21s-65.047 30.981-71.02 27.026c-5.975-3.955-7.302-31.64-7.302-31.64l16.594-3.297z" opacity=".1"/>
                    <path fill="#DB9999" d="M101.79 246l22.652 32.447 52.813 43.986s48.801 11.33 42.116 19.328c-6.685 7.997-47.464-7.998-47.464-7.998s-60.835-43.986-62.84-47.318C107.06 283.112 85 251.789 85 251.789L101.79 246z"/>
                    <path fill="#FFF" d="M101.79 246l22.652 32.447 52.813 43.986s48.801 11.33 42.116 19.328c-6.685 7.997-47.464-7.998-47.464-7.998s-60.835-43.986-62.84-47.318C107.06 283.112 85 251.789 85 251.789L101.79 246z" opacity=".1"/>
                    <path fill="#FC7B4A" d="M88.2 220l14.8 29.273s-3.364 14.296-8.745 15.657C88.873 266.292 66 247.23 66 247.23L88.2 220z"/>
                    <path fill="#FC7B4A" d="M88.2 220l14.8 29.273s-3.364 14.296-8.745 15.657C88.873 266.292 66 247.23 66 247.23L88.2 220z" opacity=".1"/>
                    <path fill="#2F2E41" d="M265.743 286.858l4.226 17.977c.047.2.04.41-.02.607l-19.171 61.777c-.157.504-.633.827-1.144.776-.51-.052-.917-.465-.975-.991l-2.652-24.066c-.018-.16-.002-.322.047-.475l17.596-55.688c.15-.477.59-.794 1.077-.774.487.02.902.37 1.016.857z"/>
                    <path fill="#F2F2F2" d="M263.063 291L267 305.832 249.937 360 246 343.234z"/>
                    <path fill="#2F2E41" d="M180.104 372.255c.65 2.038 67.644-.68 68.294-1.359.567-.85 1.047-1.762 1.431-2.718.612-1.359 1.171-2.718 1.171-2.718l-2.602-22-66.343-2.46s-1.658 18.644-1.996 27.178c-.085 2.154-.085 3.67.045 4.077z"/>
                    <path fill="#000" d="M239.711 349L241 368 212 368 212 349zM200.806 355.035L201 355 200.083 363 182 363 182 355.035zM177.106 372.228c.661 2.113 68.778-.705 69.44-1.41.576-.882 1.063-1.827 1.454-2.818h-70.94c-.086 2.234-.086 3.805.046 4.228z" opacity=".1"/>
                    <circle cx="99.5" cy="178.5" r="30.5" fill="#FFB8B8"/>
                    <path fill="#FFB8B8" d="M98 206.595s-9.854 17.839-11.825 27.445c-1.97 9.605-29.562-19.212-29.562-19.212L53 204.88s25.949-12.694 23.978-22.985c-1.97-10.292 21.022 24.7 21.022 24.7zM100.627 257l27.015 36.648 64.571 49.543s46.782 10.18 36.24 17.646c-10.543 7.465-40.852-6.787-40.852-6.787s-65.23-35.97-79.067-50.9C94.697 288.219 69 263.108 69 263.108L100.627 257z"/>
                    <path fill="#2F2E41" d="M66.564 314.074l7.897 12.42 47.125-14.729c10.34-3.231 21.68-2.042 30.85 3.698 8.226 5.147 13.49 13.318 1.646 25.41-23.69 24.186-39.482 11.113-39.482 11.113S34.98 389.245 21.82 370.942C8.658 352.64 8 343.49 8 343.49s50.668-31.376 58.564-29.415z"/>
                    <path fill="#D0CDE1" d="M166.751 357.986s20.953 13.968-3.929 20.619c-24.88 6.651-43.215-2.66-43.215-2.66S98 375.944 98 364.636C98 353.33 105.202 352 105.202 352l22.263 3.326s26.845-7.317 39.286 2.66z"/>
                    <path fill="#2F2E41" d="M125.253 174.257c2.04.933 4.064 2.037 6.282 2.308 2.219.27 4.745-.524 5.795-2.547.567-1.092.631-2.377.658-3.615.08-3.752-.184-7.81-2.503-10.713-1.475-1.848-3.629-3.013-5.156-4.817-1.094-1.292-1.822-2.858-2.607-4.368-2.97-5.722-7.367-11.221-13.479-12.871-2.552-.689-5.23-.655-7.868-.617l-15.391.223c-2.49.036-5.02.078-7.404.817-4.954 1.536-8.561 5.81-11.865 9.896-2.471 3.058-4.95 6.146-6.804 9.633-2.66 5.087-4.004 10.789-3.906 16.56-.02 1.48.166 2.957.553 4.383.454 1.308 1.015 2.573 1.68 3.783 2.886 5.815 4.6 13.079 1.349 18.688 5.647-2.366 11.233-5.468 14.958-10.422 1.666-2.217 2.973-4.811 5.194-6.438 2.22-1.626 5.839-1.767 7.264.62.49.965.742 2.039.734 3.127.104 1.792.101 3.653.842 5.28.74 1.625 2.505 2.938 4.19 2.45 2.9-.837 2.622-5.404 4.856-7.478 1.697-1.575 4.314-1.274 6.494-1.99 2.54-.832 4.445-3.09 5.531-5.587.826-1.9.814-6.868 2.375-7.896 1.959-1.29 6.413.76 8.228 1.59z"/>
                    <path fill="#FFE7DE" d="M49.983 201.264c1.368-.356 2.81-.352 4.176.01 4.34 1.135 14.07 4.14 16.156 8.71 2.704 5.927 12.17 15.146 12.17 15.146S95.33 237.64 92.624 246.2c-2.703 8.56-12.845 18.438-12.845 18.438S82.484 305.465 68.962 316c-13.522 10.536-18.93 3.293-18.93 13.17 0 9.877-41.919 40.826-50.032 21.73 0 0 4.057-35.558 2.704-48.07-1.332-12.33.619-89.263 47.279-101.566z"/>
                    <path fill="#FC7B4A" d="M70.007 218.758s39.21 30.12 32.14 42.837c0 0-23.784 12.047-28.926 11.378-5.142-.67-25.069-24.095-30.211-26.103-5.143-2.008-7.714-38.152 26.997-28.112z"/>
                    <ellipse cx="251.5" cy="119" fill="#FFF7F4" rx="31.5" ry="32"/>
                    <path fill="#3F3D56" d="M523 77H338V40h185v37zm-184.185-.779h183.37V40.779h-183.37V76.22z"/>
                    <path fill="#FFE7DE" d="M325 48H507V85H325z"/>
                    <circle cx="208.5" cy="7.5" r="2.5" fill="#7CA5FF"/>
                    <circle cx="219.5" cy="7.5" r="2.5" fill="#7CA5FF"/>
                    <circle cx="230.5" cy="7.5" r="2.5" fill="#7CA5FF"/>
                    <path fill="#3F3D56" d="M542 222H201V0h341v222zm-340.19-.81h339.38V.81H201.81v220.38z"/>
                    <path fill="#3F3D56" d="M201 13H539V14H201zM210 11c-2.21 0-4-1.79-4-4s1.79-4 4-4 4 1.79 4 4c-.003 2.208-1.792 3.997-4 4zm0-7c-1.657 0-3 1.343-3 3s1.343 3 3 3 3-1.343 3-3c-.002-1.656-1.344-2.998-3-3zM221 11c-2.21 0-4-1.79-4-4s1.79-4 4-4 4 1.79 4 4c-.003 2.208-1.792 3.997-4 4zm0-7c-1.657 0-3 1.343-3 3s1.343 3 3 3 3-1.343 3-3c-.002-1.656-1.344-2.998-3-3zM229 11c-2.21 0-4-1.79-4-4s1.79-4 4-4 4 1.79 4 4c-.003 2.208-1.792 3.997-4 4zm0-7c-1.213 0-2.307.73-2.772 1.852-.464 1.121-.207 2.411.65 3.27.859.857 2.149 1.114 3.27.65C231.269 9.307 232 8.213 232 7c-.002-1.656-1.344-2.998-3-3z"/>
                    <path fill="#3F3D56" d="M309 13H310V222H309z"/>
                    <path fill="#FFF7F4" d="M344 114H405V122H344zM439 114H500V122H439z"/>
                    <path fill="#3F3D56" d="M410 119h-61v-11h61v11zm-60.181-1h59.362v-9H349.82v9z"/>
                    <path fill="#FFF7F4" d="M344 180H405V188H344z"/>
                    <path fill="#3F3D56" d="M410 183h-61v-11h61v11zm-60.181-1h59.362v-9H349.82v9z"/>
                    <path fill="#FFF7F4" d="M349 145H500V153H349z"/>
                    <path fill="#3F3D56" d="M502 154H349v-11h153v11zm-152.195-1h151.39v-9h-151.39v9zM502 119h-61v-11h61v11zm-60.181-1h59.362v-9H441.82v9zM258 143c-18.225 0-33-14.775-33-33s14.775-33 33-33 33 14.775 33 33c-.02 18.217-14.783 32.98-33 33zm0-65c-17.673 0-32 14.327-32 32 0 17.673 14.327 32 32 32 17.673 0 32-14.327 32-32-.02-17.665-14.335-31.98-32-32zM378 375H521V376H378z"/>
                </g>
            </g>
        </g>
    </g>
</svg>
