<svg xmlns="http://www.w3.org/2000/svg" width="38" height="65" viewBox="0 0 38 65">
    <g fill="none" fill-rule="evenodd">
        <g fill="#FF7122">
            <g>
                <g>
                    <g>
                        <path d="M19 50.482c-1.147 0-2.294-.438-3.168-1.312l-27.52-27.519c-1.75-1.75-1.75-4.589 0-6.339s4.588-1.75 6.34 0L19 39.662l24.349-24.349c1.75-1.75 4.588-1.75 6.337 0 1.752 1.75 1.752 4.588 0 6.339L22.168 49.17c-.875.874-2.022 1.31-3.168 1.31z" transform="translate(-959 -1445) translate(40 956) translate(900 434) translate(19 55) matrix(0 1 1 0 -13.24 13.24)"/>
                    </g>
                </g>
            </g>
        </g>
    </g>
</svg>
