<svg xmlns="http://www.w3.org/2000/svg" width="399" height="458" viewBox="0 0 399 458">
    <g fill="none" fill-rule="evenodd">
        <g fill-rule="nonzero">
            <g>
                <g transform="translate(-17 -1935) translate(0 1834) translate(17 101)">
                    <path fill="#F2F2F2" d="M101.773 437.98c-.841 6.513-3.519 12.574-6.686 18.41-.286.54-.58 1.079-.882 1.61H41.586c-1.077-.491-2.139-1.03-3.175-1.61-1.375-.77-2.707-1.611-3.992-2.52-15.518-11.02-21.493-31.86-18.791-50.527 1.673-11.608 6.832-23.449 16.89-29.695 5.458-3.278 11.972-4.402 18.235-3.147.155.024.319.064.482.096 5.273 1.004 9.86 4.182 12.604 8.734 4.791 8.396 1.943 18.796-.416 28.141-2.351 9.346-3.625 20.535 3.2 27.426-2.036-5.868-.7-12.362 3.492-16.985 4.191-4.622 10.587-6.654 16.727-5.313.498.105.98.225 1.462.37 1.159.33 2.276.79 3.33 1.369 8.04 4.427 11.298 14.634 10.139 23.642z"/>
                    <path fill="#FFF" d="M25.21 438.381c1.243.591 2.506 1.13 3.79 1.619h-3.58c-1.085-.502-2.156-1.036-3.21-1.619-5.163-2.763-9.751-6.55-13.504-11.146-2.296-2.837-4.171-6.012-5.564-9.422C1.63 413.958.67 409.895.29 405.753c-.694-8.56-.14-17.18 1.641-25.57 1.672-8.651 4.375-17.053 8.049-25.012.437-.955.898-1.903 1.367-2.841.065-.159.198-.276.36-.316.16-.036.327-.001.46.097.34.198.467.637.29.996-3.79 7.645-6.658 15.743-8.54 24.113-1.95 8.205-2.804 16.647-2.54 25.092.335 7.836 2.312 15.55 6.806 21.96 4.18 5.828 9.679 10.503 16.011 13.615.336.17.672.332 1.016.494zM47.752 438.369c.354.554.733 1.1 1.143 1.631h-1.714c-.379-.53-.733-1.077-1.08-1.631-2.678-4.28-4.533-9.034-5.466-14.012-1.498-8.262-.329-16.793 3.333-24.33 1.02-2.112 2.221-4.129 3.59-6.027.492.106.967.228 1.442.375-3.607 4.839-6.032 10.473-7.077 16.443-1.332 7.858-.18 15.942 3.293 23.098.74 1.543 1.587 3.031 2.536 4.453z"/>
                    <g>
                        <path fill="#CCC" d="M96.938 9H39.062C36.818 9 35 6.985 35 4.5S36.818 0 39.062 0h57.876C99.182 0 101 2.015 101 4.5S99.182 9 96.938 9z" transform="translate(259)"/>
                        <path fill="#E6E6E6" d="M34.943 199.407c-.836-1.023-1.138-2.362-.818-3.63 3.778-15.303 3.778-31.251 0-46.555-.32-1.267-.018-2.606.818-3.63.819-1.008 2.073-1.596 3.4-1.592h40.389c2.131.004 3.947 1.498 4.292 3.532 2.635 16.548 2.635 33.388 0 49.936-.345 2.034-2.16 3.528-4.292 3.532h-40.39c-1.326.004-2.58-.584-3.399-1.593z" transform="translate(259)"/>
                        <path fill="#7CA5FF" d="M90.976 128.468c-2.635-16.548-2.635-33.388 0-49.936.345-2.034 2.16-3.528 4.292-3.532h40.39c1.326-.004 2.58.584 3.399 1.593.836 1.023 1.138 2.362.818 3.63-3.778 15.303-3.779 31.251 0 46.555.32 1.267.018 2.606-.818 3.629-.819 1.01-2.073 1.597-3.399 1.593h-40.39c-2.132-.004-3.947-1.498-4.292-3.532zM.943 115.324c-.836-1.078-1.138-2.487-.818-3.821 3.779-16.109 3.779-32.897 0-49.006-.32-1.334-.018-2.744.818-3.82.819-1.063 2.073-1.681 3.4-1.677h40.389c2.131.004 3.947 1.577 4.292 3.718 2.635 17.419 2.635 35.145 0 52.564-.345 2.141-2.16 3.714-4.292 3.718H4.342c-1.326.004-2.58-.614-3.399-1.676z" transform="translate(259)"/>
                        <path fill="#FFF" d="M36.819 80H14.18c-1.756-.002-3.18-1.663-3.181-3.712v-1.576c.002-2.05 1.425-3.71 3.181-3.712H36.82c1.756.002 3.18 1.663 3.181 3.712v1.576c-.002 2.05-1.425 3.71-3.181 3.712zM36.819 92H14.18c-1.756-.002-3.18-1.663-3.181-3.712v-1.576c.002-2.05 1.425-3.71 3.181-3.712H36.82c1.756.002 3.18 1.663 3.181 3.712v1.576c-.002 2.05-1.425 3.71-3.181 3.712zM71.103 164H50.897c-1.6-.002-2.895-1.686-2.897-3.764v-1.472c.002-2.078 1.298-3.762 2.897-3.764h20.206c1.6.002 2.895 1.686 2.897 3.764v1.472c-.002 2.078-1.298 3.762-2.897 3.764zM71.103 178H50.897c-1.6-.002-2.895-1.686-2.897-3.764v-1.472c.002-2.078 1.298-3.762 2.897-3.764h20.206c1.6.002 2.895 1.686 2.897 3.764v1.472c-.002 2.078-1.298 3.762-2.897 3.764zM71.103 192H50.897c-1.6-.002-2.895-1.686-2.897-3.764v-1.472c.002-2.078 1.298-3.762 2.897-3.764h20.206c1.6.002 2.895 1.686 2.897 3.764v1.472c-.002 2.078-1.298 3.762-2.897 3.764zM123.103 104h-20.206c-1.6-.002-2.895-1.686-2.897-3.764v-1.472c.002-2.078 1.298-3.762 2.897-3.764h20.206c1.6.002 2.895 1.686 2.897 3.764v1.472c-.002 2.078-1.298 3.762-2.897 3.764z" transform="translate(259)"/>
                    </g>
                    <path fill="#CCC" d="M98 337.037v1.926c.006 6.645 5.599 12.031 12.5 12.037h90c6.902-.002 12.497-5.39 12.5-12.037v-1.926c.006-2.817-1.021-5.545-2.9-7.704-.626-.716-1.334-1.362-2.11-1.926 0 0-49.48-1.078-49.48-2.407H110.5c-6.9.01-12.49 5.393-12.5 12.037zM147 354H161V437H147z"/>
                    <path fill="#CCC" d="M199 436.156c0 1.473-19.923.57-44.5.57s-44.5.903-44.5-.57c0-1.473 19.923-13.156 44.5-13.156s44.5 11.683 44.5 13.156z"/>
                    <path fill="#A0616A" d="M180.89 335.57c1.883-2.565 2.55-5.844 1.822-8.956-.729-3.111-2.778-5.736-5.597-7.167L149.8 225 129 235.337l33.39 89.588c-2.101 5.076-.13 10.945 4.59 13.66 4.72 2.716 10.696 1.42 13.91-3.015z"/>
                    <path fill="#7CA5FF" d="M154.38 241.352l-23.89 6.477c-1.375.373-2.844.128-4.024-.671-1.18-.8-1.955-2.074-2.122-3.492l-2.888-24.544c-1.92-7.264 2.392-14.713 9.639-16.655 7.247-1.943 14.696 2.355 16.655 9.609l9.841 22.576c.57 1.308.543 2.8-.074 4.086-.616 1.287-1.761 2.241-3.137 2.614z"/>
                    <path fill="#A0616A" d="M186.002 426L197.52 425.999 203 395 186 395z"/>
                    <path fill="#2F2E41" d="M184 423.001l24.43-.001h.001c4.13 0 8.09 1.734 11.009 4.822 2.92 3.087 4.56 7.275 4.56 11.641v.535L184 440v-16.999zM202.228 411c-.146 0-.292-.007-.438-.02l-17.252-1.26c-1.414-.132-2.687-.914-3.445-2.117-.759-1.204-.917-2.692-.428-4.028l23.088-51.996c.334-.938.261-1.972-.2-2.853-.459-.892-1.277-1.545-2.248-1.794-10.857-2.844-38.712-10.42-62.825-19.282-10.331-3.797-16.838-9.284-19.339-16.31-3.298-9.261 1.58-17.708 1.79-18.062l.164-.278 22.69 2.067 24.598 2.098 53.905 28.974c9.367 5.078 13.27 16.517 8.967 26.28l-24.852 55.863c-.735 1.652-2.37 2.718-4.175 2.718z"/>
                    <circle cx="147.5" cy="169.5" r="24.5" fill="#A0616A"/>
                    <path fill="#A0616A" d="M181.002 426L192.52 425.999 198 395 181 395z"/>
                    <path fill="#2F2E41" d="M175 420.001l24.43-.001h.001c4.13 0 8.09 1.734 11.009 4.822 2.92 3.087 4.56 7.275 4.56 11.641v.535L175 437v-16.999zM193.228 414c-.146 0-.292-.007-.438-.02l-17.252-1.26c-1.414-.132-2.687-.914-3.445-2.117-.759-1.204-.917-2.692-.428-4.028l23.088-51.996c.334-.938.261-1.972-.2-2.853-.459-.892-1.277-1.545-2.248-1.794-10.857-2.844-38.712-10.42-62.825-19.282-10.331-3.797-16.838-9.284-19.339-16.31-3.298-9.261 1.58-17.708 1.79-18.062l.164-.278 22.69 2.067 24.598 2.098 53.905 28.974c9.367 5.078 13.27 16.517 8.967 26.28l-24.852 55.863c-.735 1.652-2.37 2.718-4.175 2.718z"/>
                    <path fill="#7CA5FF" d="M156.223 208.147L129.76 199s-16.614 12.744-8.633 44.36c4.167 16.314 2.953 33.535-3.46 49.107-.773 1.926-1.663 3.804-2.666 5.621 0 0 29.518 35.57 57 9.147l-10.688-51.323s16.795-34.046-5.089-47.765z"/>
                    <path fill="#2F2E41" d="M151.525 196.75c-3.517-5.284-6.293-12.61-2.42-17.636 3.822-4.962 11.363-4.231 17.218-6.427 8.155-3.058 12.884-12.671 11.41-21.28-1.476-8.61-8.363-15.746-16.568-18.666-8.205-2.92-17.458-1.97-25.493 1.392-9.891 4.14-18.376 12.147-21.934 22.29-3.558 10.144-1.656 22.323 5.725 30.12 7.914 8.359 20.333 10.586 31.822 10.451"/>
                    <path fill="#2F2E41" d="M128.683 150.201c-4.447 3.537-11.231 1.966-16.004-1.138-4.774-3.104-8.647-7.524-13.812-9.957-9.105-4.291-20.113-1.439-28.974 3.314-8.862 4.752-16.717 11.318-26.078 15.047-9.36 3.73-21.304 3.914-28.392-3.128-3.574 10.116-.27 21.335 8.261 28.047 8.53 6.713 20.454 7.476 29.808 1.91 10.256-6.105 15.921-18.902 27.424-22.271 6.366-1.865 13.201-.363 19.635 1.263 6.433 1.626 13.141 3.384 19.634 2 6.492-1.385 12.565-7.086 11.74-13.528l-3.242-1.559z"/>
                    <path fill="#FF6584" d="M205.976 379.468c-2.635-16.548-2.635-33.388 0-49.936.345-2.034 2.16-3.528 4.292-3.532h40.39c1.326-.004 2.58.584 3.399 1.593.836 1.023 1.138 2.362.818 3.63-3.778 15.303-3.779 31.251 0 46.555.32 1.267.018 2.606-.818 3.629-.819 1.01-2.073 1.597-3.399 1.593h-40.39c-2.131-.004-3.947-1.498-4.292-3.532z"/>
                    <path fill="#FFF" d="M238.103 352h-20.206c-1.6-.002-2.895-1.686-2.897-3.765v-1.47c.002-2.079 1.298-3.763 2.897-3.765h20.206c1.6.002 2.895 1.686 2.897 3.765v1.47c-.002 2.079-1.298 3.763-2.897 3.765zM238.103 363h-20.206c-1.6-.002-2.895-1.686-2.897-3.764v-1.472c.002-2.078 1.298-3.762 2.897-3.764h20.206c1.6.002 2.895 1.686 2.897 3.764v1.472c-.002 2.078-1.298 3.762-2.897 3.764z"/>
                    <path fill="#A0616A" d="M217.195 333.113c1.213-2.988 1.049-6.364-.448-9.219-1.496-2.855-4.171-4.895-7.305-5.573L158.894 233 141 248.426l55.313 79.018c-.798 5.498 2.613 10.73 7.94 12.176 5.328 1.447 10.888-1.349 12.942-6.507z"/>
                    <path fill="#7CA5FF" d="M169.62 246.241l-20.667 12.124c-1.19.698-2.616.827-3.905.354-1.29-.474-2.315-1.504-2.81-2.82l-8.566-22.808c-3.523-6.485-1.298-14.69 4.976-18.346 6.273-3.655 14.23-1.383 17.79 5.081L171 239.025c.844 1.112 1.176 2.548.91 3.934-.264 1.386-1.101 2.584-2.29 3.282z"/>
                </g>
            </g>
        </g>
    </g>
</svg>
