<svg xmlns="http://www.w3.org/2000/svg" width="210" height="93" viewBox="0 0 210 93">
    <g fill="none" fill-rule="evenodd">
        <g fill-rule="nonzero">
            <g>
                <g>
                    <g transform="translate(-660 -1127) translate(40 956) translate(580 114) translate(40 57)">
                        <path fill="#00C8D8" d="M197.97 36.256H68.894c-1.14 0-2.066.925-2.066 2.066 0 1.142.925 2.067 2.066 2.067h3.657v49.436c0 1.142.925 2.067 2.066 2.067 1.141 0 2.066-.925 2.066-2.067l.032-49.436h113.148v49.436c0 1.142.925 2.067 2.066 2.067 1.141 0 2.067-.925 2.067-2.067V41.478l.6-1.09h3.374c1.14 0 2.066-.924 2.066-2.066 0-1.14-.925-2.066-2.066-2.066z"/>
                        <path fill="#3F3D56" d="M140.455 37.337h-39.099c-1.576-.001-2.853-1.279-2.855-2.855V12.956c.002-1.576 1.28-2.854 2.855-2.856h39.099c1.576.002 2.853 1.28 2.855 2.856v21.526c-.002 1.576-1.279 2.854-2.855 2.855z"/>
                        <path fill="#FFF" d="M140.455 12.298h-39.098c-.363 0-.658.295-.658.658v21.526c0 .364.295.658.658.659h39.098c.363-.001.657-.295.658-.659V12.956c-.001-.363-.295-.657-.658-.658z"/>
                        <path fill="#2F2E41" d="M124.24 27.539s-4.68-1.079-7.255.898c-2.574 1.978 3.277 6.471 3.277 6.471l3.978-7.37z"/>
                        <circle cx="121.135" cy="21.086" r="4.415" fill="#FFC4BB"/>
                        <path fill="#2F2E41" d="M117.72 14.888c.601-1.019 1.722-1.615 2.902-1.544.606.076 1.197.242 1.754.491l2.886 1.126c.747.291 1.565.648 1.889 1.382.3.68.076 1.466-.151 2.174l-1.08 3.368c-.12-.762-.325-1.508-.612-2.224-.291-.721-.819-1.322-1.495-1.706-.75-.384-1.634-.376-2.475-.336-1.192.058-2.488.21-3.335 1.05-.45.477-.754 1.073-.879 1.716-.122.64-.184 1.291-.184 1.943-.489-.84-.9-1.722-1.23-2.637-.271-.68-.426-1.402-.457-2.135-.029-.738.216-1.461.688-2.03.488-.567 1.256-.809 1.98-.624l-.2-.014z"/>
                        <path fill="#FF7122" d="M131.677 31.367c-.085-.305-.344-.53-.658-.57-.01-.006-.021-.013-.032-.018l-6.591-3.694c-.391-.219-.885-.092-1.122.289l-1.802 2.918-2.715-2.715-.044-.043c-.287-.287-.74-.327-1.073-.094l-5.417 3.793c-.01 0-.019.004-.028.004-.534.089-.935.537-.964 1.077l-.14 2.827h21.632l-1.046-3.774z"/>
                        <path fill="#3F3D56" d="M143.75 34.702h-4.174c0-.243-.197-.44-.44-.44h-1.317c-.243 0-.44.197-.44.44h-1.317c0-.243-.197-.44-.44-.44h-1.318c-.242 0-.439.197-.439.44h-1.318c0-.243-.196-.44-.44-.44h-1.317c-.243 0-.44.197-.44.44h-1.317c0-.243-.197-.44-.44-.44h-1.317c-.243 0-.44.197-.44.44h-1.318c0-.243-.196-.44-.439-.44h-1.318c-.242 0-.44.197-.44.44h-1.317c0-.243-.197-.44-.44-.44h-1.317c-.243 0-.44.197-.44.44h-1.318c0-.243-.196-.44-.439-.44h-1.318c-.242 0-.44.197-.44.44h-1.317c0-.243-.197-.44-.44-.44h-1.317c-.243 0-.44.197-.44.44h-1.317c0-.243-.197-.44-.44-.44h-1.318c-.242 0-.439.197-.439.44h-1.318c0-.243-.197-.44-.44-.44h-1.317c-.243 0-.44.197-.44.44h-1.317c0-.243-.197-.44-.44-.44h-1.318c-.242 0-.439.197-.439.44h-4.173c-.727 0-1.316.59-1.316 1.317 0 .728.589 1.317 1.316 1.318h45.688c.727 0 1.317-.59 1.317-1.318 0-.727-.59-1.317-1.317-1.317z"/>
                        <path fill="#F2F2F2" d="M91.268 27.048v8.751H69.343c-1.599.056-3.101-.766-3.918-2.143-.816-1.376-.816-3.089 0-4.465.817-1.377 2.319-2.199 3.918-2.143h21.925z"/>
                        <path fill="#6C63FF" d="M91.806 35.732c0 .186-.15.336-.336.336H68.953c-2.547 0-4.611-2.064-4.611-4.61 0-2.547 2.064-4.612 4.611-4.612H91.47c.186 0 .336.15.336.337 0 .186-.15.336-.336.336H68.953c-2.173.002-3.934 1.765-3.934 3.938 0 2.174 1.76 3.936 3.934 3.938H91.47c.186 0 .336.15.336.337z"/>
                        <path fill="#CCC" d="M91.268 29.067h-23.56c-.025 0-.047-.012-.059-.033-.012-.021-.012-.047 0-.068.012-.02.034-.033.059-.033h23.56c.037 0 .067.03.067.067 0 .037-.03.067-.067.067zM91.268 30.683h-23.56c-.025 0-.047-.013-.059-.034-.012-.02-.012-.046 0-.067.012-.021.034-.034.059-.034h23.56c.037 0 .067.03.067.068 0 .037-.03.067-.067.067zM91.268 32.299h-23.56c-.025 0-.047-.013-.059-.034-.012-.02-.012-.047 0-.068.012-.02.034-.033.059-.033h23.56c.037 0 .067.03.067.067 0 .037-.03.067-.067.068zM91.268 33.914h-23.56c-.025 0-.047-.012-.059-.033-.012-.021-.012-.047 0-.068.012-.02.034-.034.059-.034h23.56c.037 0 .067.03.067.068 0 .037-.03.067-.067.067z"/>
                        <path fill="#F2F2F2" d="M87.135 17.828v8.751H65.211c-1.6.056-3.102-.766-3.919-2.142-.816-1.377-.816-3.09 0-4.466.817-1.377 2.319-2.198 3.919-2.143h21.924z"/>
                        <path fill="#3F3D56" d="M87.673 26.512c0 .186-.15.337-.336.337H64.82c-1.647 0-3.17-.88-3.993-2.306-.824-1.427-.824-3.184 0-4.611.823-1.427 2.346-2.306 3.993-2.306h22.517c.186 0 .336.151.336.337 0 .186-.15.337-.336.337H64.82c-2.173.002-3.934 1.764-3.934 3.937 0 2.174 1.76 3.936 3.934 3.938h22.517c.186 0 .336.151.336.337z"/>
                        <path fill="#CCC" d="M87.135 19.848h-23.56c-.024 0-.047-.013-.059-.034-.012-.02-.012-.046 0-.067.012-.021.035-.034.059-.034h23.56c.037 0 .067.03.067.067 0 .037-.03.068-.067.068zM87.135 21.463h-23.56c-.024 0-.047-.012-.059-.033-.012-.021-.012-.047 0-.068.012-.02.035-.033.059-.033h23.56c.037 0 .067.03.067.067 0 .037-.03.067-.067.067zM87.135 23.079h-23.56c-.024 0-.047-.013-.059-.034-.012-.02-.012-.046 0-.067.012-.021.035-.034.059-.034h23.56c.037 0 .067.03.067.068 0 .037-.03.067-.067.067zM87.135 24.694h-23.56c-.024 0-.047-.012-.059-.033-.012-.02-.012-.047 0-.068.012-.02.035-.033.059-.033h23.56c.037 0 .067.03.067.067 0 .037-.03.067-.067.067z"/>
                        <path fill="#00C8D8" d="M112.64 66.904v-7.63c0-.703-.57-1.272-1.272-1.272h-28.93c-.703 0-1.272.57-1.272 1.272v7.63h31.474zM81.166 69.765H112.64V79.62H81.166zM81.166 82.482v7.63c0 .702.57 1.272 1.271 1.272h28.931c.702 0 1.272-.57 1.272-1.272v-7.63H81.166z"/>
                        <circle cx="96.744" cy="62.771" r="1" fill="#FFF"/>
                        <circle cx="96.744" cy="75.488" r="1" fill="#FFF"/>
                        <circle cx="96.795" cy="87.935" r="1" fill="#FFF"/>
                        <path fill="#F2F2F2" d="M109.071 49.302v8.751H87.147c-1.6.056-3.102-.766-3.918-2.142-.816-1.377-.816-3.09 0-4.466.816-1.377 2.318-2.198 3.918-2.143h21.924z"/>
                        <path fill="#00C8D8" d="M109.61 57.986c0 .186-.15.337-.337.337H86.756c-1.648 0-3.171-.878-3.996-2.305-.825-1.427-.825-3.186 0-4.613.825-1.427 2.348-2.306 3.996-2.305h22.517c.186 0 .337.151.337.337 0 .186-.15.337-.337.337H86.756c-2.173.002-3.934 1.764-3.934 3.937 0 2.174 1.761 3.936 3.934 3.938h22.517c.186 0 .337.151.337.337z"/>
                        <path fill="#CCC" d="M109.071 51.322h-23.56c-.024 0-.046-.013-.059-.034-.012-.02-.012-.046 0-.067.013-.021.035-.034.06-.034h23.56c.036 0 .066.03.066.067 0 .037-.03.068-.067.068zM109.071 52.937h-23.56c-.024 0-.046-.012-.059-.033-.012-.021-.012-.047 0-.068.013-.02.035-.033.06-.033h23.56c.036 0 .066.03.066.067 0 .037-.03.067-.067.067zM109.071 54.553h-23.56c-.024 0-.046-.013-.059-.034-.012-.02-.012-.046 0-.067.013-.021.035-.034.06-.034h23.56c.036 0 .066.03.066.068 0 .037-.03.067-.067.067zM109.071 56.168h-23.56c-.024 0-.046-.012-.059-.033-.012-.021-.012-.047 0-.068.013-.02.035-.033.06-.033h23.56c.036 0 .066.03.066.067 0 .037-.03.067-.067.067z"/>
                        <path fill="#3F3D56" d="M160.728 33.522h-9.989c-.095 0-.188.022-.273.064l-2.521 1.262c-.17.072-.28.239-.28.423s.11.35.28.423l2.52 1.262c.086.042.18.064.274.063h9.99c.286.017.532-.2.552-.486V34.01c-.02-.286-.266-.503-.553-.487z"/>
                        <path fill="#6C63FF" d="M161.281 34.009v2.524c-.02.286-.266.503-.553.486h-1.99v-3.497h1.99c.287-.016.533.2.553.487z"/>
                        <path fill="#FFB8B8" d="M160.653 14.638c.915-.395 1.955-.38 2.86.039.903.42 1.585 1.205 1.874 2.16.044.149.078.301.102.455l13.968 6.927 3.233-2.142 4.022 4.63-4.936 4.01c-1.219.982-2.937 1.048-4.228.163l-14.173-9.801c-.105.044-.213.084-.323.117-.954.289-1.986.157-2.836-.363-.85-.52-1.44-1.378-1.618-2.358-.026-.141-.043-.283-.051-.426-.081-1.466.76-2.827 2.106-3.411z"/>
                        <path fill="#3F3D56" d="M189.747 57.286h-15.263c0 .44-15.73.795-15.73.795-.248.186-.473.4-.671.636-.598.713-.925 1.613-.923 2.543v.636c.001 2.195 1.78 3.973 3.974 3.974h28.613c2.194-.002 3.972-1.78 3.974-3.974v-.636c-.003-2.193-1.78-3.97-3.974-3.974z"/>
                        <path fill="#3F3D56" d="M173.144 65.712H177.27700000000002V92.417H173.144z" transform="rotate(-180 175.21 79.065)"/>
                        <path fill="#3F3D56" d="M161.381 92.272c0 .447 6.263.173 13.989.173 7.725 0 13.988.274 13.988-.173 0-.446-6.263-3.987-13.988-3.987-7.726 0-13.989 3.54-13.989 3.987z"/>
                        <path fill="#FFB8B8" d="M165.112 89.142L161.215 89.142 159.36 79.033 165.113 79.033z"/>
                        <path fill="#2F2E41" d="M166.106 92.92H153.54v-.16c0-1.296.515-2.54 1.433-3.458.917-.917 2.161-1.433 3.458-1.433h7.677v5.051zM159.283 82.874l-7.77-17.425c-1.346-3.045-.125-6.613 2.803-8.197l16.854-9.038 7.69-.654 7.095-.645.051.087c.066.11 1.591 2.745.56 5.634-.782 2.191-2.816 3.903-6.046 5.087-7.54 2.765-16.249 5.127-19.643 6.015-.304.077-.56.28-.703.559-.144.275-.167.598-.063.89l7.219 16.218c.153.417.103.881-.134 1.257-.237.375-.635.62-1.077.66l-5.394.393c-.046.004-.091.006-.137.006-.564 0-1.076-.332-1.305-.847z"/>
                        <path fill="#FFB8B8" d="M167.02 89.142L163.122 89.142 161.268 79.033 167.02 79.033z"/>
                        <path fill="#2F2E41" d="M168.014 92.92h-12.568v-.16c0-1.296.516-2.54 1.433-3.458.917-.917 2.162-1.433 3.459-1.433h7.676v5.051zM161.508 83.827l-7.77-17.424c-1.345-3.046-.125-6.614 2.804-8.197l16.854-9.038 7.69-.654 7.095-.645.05.087c.066.11 1.592 2.745.56 5.634-.782 2.19-2.816 3.902-6.046 5.087-7.54 2.764-16.249 5.127-19.643 6.014-.303.078-.56.281-.703.56-.144.275-.167.597-.062.89l7.218 16.218c.153.417.104.881-.133 1.257-.238.375-.636.619-1.078.66l-5.394.393c-.045.004-.091.006-.136.006-.565 0-1.076-.332-1.306-.848z"/>
                        <path fill="#CCC" d="M157.635 30.598c-3.265-4.343-5.846-9.16-7.654-14.285-.216-.633.057-1.33.646-1.646l11.174-5.987c.366-.198.803-.216 1.184-.048.388.168.677.507.782.916 1.3 4.938 3.745 9.5 7.136 13.318.283.315.405.743.33 1.16-.071.41-.328.764-.696.96l-11.173 5.986c-.59.315-1.322.157-1.729-.374z"/>
                        <path fill="#FFF" d="M158.398 30.025c.124.155.34.2.515.106l11.174-5.987c.11-.057.187-.162.207-.285.024-.129-.014-.262-.103-.358-3.49-3.93-6.007-8.627-7.346-13.71-.032-.128-.12-.233-.241-.285-.114-.05-.244-.046-.353.014l-11.173 5.987c-.175.095-.258.3-.197.489 1.775 5.032 4.31 9.764 7.517 14.029z"/>
                        <path fill="#6C63FF" d="M194.755 29l-8.75 3.326-2.137-5.934c-.586-1.627.086-3.44 1.59-4.292 1.523-.863 3.448-.487 4.534.885l4.763 6.016z"/>
                        <path fill="#7C85A5" d="M172.497 52.514c-.372-.263-.613-.674-.662-1.128-1.12-10.463-.34-18.65 2.386-25.031.973-2.23 2.914-3.891 5.267-4.508l7.074-.357.036.017c3.278 1.606 5.115 5.17 4.521 8.771-2.275 5.997-4.18 12.241-2.727 17.278.123.425.067.883-.154 1.266-.215.371-.573.637-.99.734l-13.474 3.205c-.441.105-.906.015-1.277-.247z"/>
                        <circle cx="184.201" cy="11.039" r="7.808" fill="#FFB8B8"/>
                        <path fill="#CCC" d="M162.534 17.224l-6.085 2.686c-.482.212-1.045-.006-1.258-.487l-.15-.341c-.213-.482.005-1.045.487-1.258l6.085-2.686c.482-.212 1.045.006 1.258.487l.15.341c.213.482-.006 1.045-.487 1.258zM164.76 21.357l-6.086 2.686c-.482.212-1.045-.006-1.258-.487l-.15-.341c-.212-.482.006-1.045.487-1.258l6.086-2.686c.482-.213 1.044.006 1.257.487l.15.34c.213.483-.005 1.045-.487 1.259z"/>
                        <path fill="#FFB8B8" d="M169.452 37.5l-13.566-10.703c-.109.038-.219.07-.33.097-.968.226-1.987.03-2.803-.538-.822-.57-1.358-1.465-1.471-2.459-.187-1.615.762-3.148 2.292-3.7.938-.336 1.975-.256 2.85.22.877.475 1.508 1.302 1.736 2.272.035.152.06.306.073.462l13.506 7.791 3.36-1.935 3.724 4.874-5.219 3.72c-1.254.887-2.942.845-4.152-.101z"/>
                        <path fill="#6C63FF" d="M180.478 35.4l-7.74-5.265 3.637-5.152c.998-1.413 2.867-1.901 4.428-1.157 1.58.753 2.376 2.545 1.874 4.223l-2.199 7.35z"/>
                        <path fill="#2F2E41" d="M181.338 9.876c-2.007 1.374-4.642 2.786-6.692 1.323-1.346-.96-1.77-2.74-1.224-4.3.982-2.807 3.678-4.042 6.257-4.99C183.031.68 186.681-.3 190.142.58c3.46.882 6.52 4.233 5.895 7.75-.503 2.827-3.17 5.18-2.791 8.026.38 2.866 3.603 4.374 6.447 4.886 2.845.512 6.028.676 8.073 2.72 2.608 2.606 1.956 7.265-.498 10.017-2.454 2.752-6.157 4-9.745 4.848-4.754 1.123-9.897 1.714-14.412-.151-4.515-1.865-8.03-6.884-6.721-11.591.552-1.989 1.854-3.669 3.112-5.305 1.258-1.635 2.531-3.346 3.011-5.353.4-1.673.104-3.614-1.005-4.869-.414-.45-.49-1.116-.189-1.649l.02-.033z"/>
                        <path fill="#00BED0" d="M34.676 47.815c-4.092 1.438-8.638.637-11.992-2.113-4.2-3.525-5.517-9.334-6.589-14.712l-3.17-15.907 6.636 4.569c4.772 3.286 9.651 6.677 12.955 11.436 3.304 4.76 4.747 11.256 2.092 16.406"/>
                        <path fill="#F2F2F2" d="M34.109 67.074c.672-4.892 1.362-9.847.891-14.792-.418-4.39-1.758-8.68-4.485-12.196-1.448-1.863-3.21-3.46-5.206-4.717-.52-.329-1 .496-.481.823 3.454 2.183 6.125 5.407 7.63 9.206 1.66 4.225 1.927 8.83 1.64 13.319-.172 2.714-.54 5.41-.909 8.103-.06.253.085.51.333.587.254.068.516-.08.587-.333z"/>
                        <path fill="#0098A7" d="M27.64 58.417c-1.755 2.667-4.774 4.226-7.965 4.111-4.032-.191-7.394-3.005-10.42-5.677l-8.95-7.903 5.923-.283c4.26-.204 8.63-.394 12.688.92 4.057 1.313 7.8 4.475 8.541 8.675"/>
                        <path fill="#F2F2F2" d="M36.007 69.886c-3.233-5.72-6.982-12.077-13.682-14.109-1.862-.563-3.816-.764-5.754-.594-.611.053-.459.995.151.942 3.25-.27 6.493.588 9.184 2.43 2.59 1.762 4.605 4.213 6.312 6.811 1.045 1.592 1.981 3.251 2.918 4.908.299.53 1.174.147.87-.388z"/>
                        <path fill="#FADCD2" d="M41.186 75.906c-.222-2.572-1.857-4.807-4.242-5.798v-3.306h-5.546v3.41c-2.264 1.038-3.796 3.213-4.01 5.694l-1.305 15.16H42.49l-1.304-15.16z"/>
                    </g>
                </g>
            </g>
        </g>
    </g>
</svg>
