<svg xmlns="http://www.w3.org/2000/svg" width="259" height="115" viewBox="0 0 259 115">
    <g fill="none" fill-rule="evenodd">
        <g fill-rule="nonzero">
            <g>
                <g>
                    <g transform="translate(-641 -1410) translate(40 956) translate(580 434) translate(21 20)">
                        <path fill="#FFF" d="M110.646 73H5.354C2.398 72.997.004 70.625 0 67.699V4.037C.002 1.81 1.826.003 4.077 0h107.786c2.284.003 4.134 1.835 4.137 4.097V67.7c-.003 2.926-2.398 5.298-5.354 5.301z"/>
                        <path fill="#E6E6E6" d="M110.646 73H5.354C2.398 72.997.004 70.625 0 67.699V4.037C.002 1.81 1.826.003 4.077 0h107.786c2.284.003 4.134 1.835 4.137 4.097V67.7c-.003 2.926-2.398 5.298-5.354 5.301zM4.076 1.146c-1.61.002-2.917 1.295-2.918 2.891V67.7c.002 2.293 1.88 4.152 4.196 4.155h105.292c2.317-.003 4.194-1.862 4.196-4.155V4.097c-.001-1.629-1.334-2.949-2.98-2.95H4.078z"/>
                        <path fill="#E6E6E6" d="M47.81 57H16.19c-1.6-.002-2.951-1.18-3.162-2.756-.02-.138-.029-.276-.028-.414V19.17c.002-1.75 1.43-3.168 3.19-3.17h31.62c1.76.002 3.188 1.42 3.19 3.17v34.66c-.002 1.75-1.43 3.168-3.19 3.17zM16.19 17.73c-.8 0-1.449.645-1.45 1.44v34.66c0 .059.003.118.011.177.092.72.708 1.262 1.44 1.264H47.81c.8-.001 1.449-.646 1.45-1.441V19.17c-.001-.795-.65-1.44-1.45-1.44H16.19zM99.73 45H62.27c-1.254 0-2.27-.895-2.27-2s1.016-2 2.27-2h37.46c1.254 0 2.27.895 2.27 2s-1.016 2-2.27 2zM82.727 36H62.273C61.018 36 60 35.105 60 34s1.018-2 2.273-2h20.454c1.255 0 2.273.895 2.273 2s-1.018 2-2.273 2z"/>
                        <path fill="#2F2E41" d="M42 36.514c0 5.235-4.701 4.443-10.5 4.443S21 41.75 21 36.514C21 31.28 23.296 22 31.5 22 39.986 22 42 31.28 42 36.514z"/>
                        <path fill="#2C325A" d="M43.143 43.755c-.205-.584-.615-1.077-1.156-1.392-.105-.063-.214-.117-.327-.163-.97-.397-2.086-.192-2.844.523-.759.715-1.016 1.804-.655 2.774L42.407 55H48l-4.857-11.245zM24.522 44.26c-.672-.324-1.45-.346-2.14-.062-.689.284-1.224.848-1.47 1.55L17 54.917c.2.055.407.083.615.083h4.91l3.317-7.508c.459-1.255-.112-2.652-1.32-3.232z"/>
                        <circle cx="32" cy="33" r="7" fill="#FFB8B8"/>
                        <path fill="#8E97B3" d="M41.594 43.31c-.04-.038-.08-.08-.122-.114-.984-.91-2.307-1.333-3.62-1.157L25 43.71c-2.448.31-4.211 2.561-3.98 5.08.175 2.034.46 4.6.914 7.211h20.3l.747-8.903c.122-1.413-.389-2.807-1.388-3.788z"/>
                        <path fill="#2F2E41" d="M24 32h2.897l1.278-3.692.256 3.692h1.385l.745-2.154.15 2.154H41c0-4.418-3.472-8-7.754-8h-1.492C27.472 24 24 27.582 24 32z"/>
                        <path fill="#FFF" d="M143 67.699V4.097c.003-2.262 1.853-4.094 4.137-4.097h107.786c2.25.003 4.075 1.809 4.077 4.037V67.7c-.003 2.926-2.398 5.298-5.354 5.301H148.354c-2.956-.003-5.35-2.375-5.354-5.301z"/>
                        <path fill="#E6E6E6" d="M143 67.699V4.097c.003-2.262 1.853-4.094 4.137-4.097h107.786c2.25.003 4.075 1.809 4.077 4.037V67.7c-.003 2.926-2.398 5.298-5.354 5.301H148.354c-2.956-.003-5.35-2.375-5.354-5.301zm4.137-66.553c-1.645.002-2.978 1.322-2.98 2.951V67.7c.003 2.293 1.88 4.152 4.197 4.155h105.292c2.317-.003 4.194-1.862 4.196-4.155V4.037c-.001-1.596-1.307-2.889-2.919-2.89H147.137z"/>
                        <path fill="#E6E6E6" d="M208 53.83V19.17c.002-1.75 1.43-3.168 3.19-3.17h31.62c1.76.002 3.188 1.42 3.19 3.17v34.66c0 .138-.008.276-.028.414-.21 1.576-1.563 2.754-3.162 2.756h-31.62c-1.76-.002-3.188-1.42-3.19-3.17zm3.19-36.1c-.8 0-1.449.645-1.45 1.44v34.66c.001.795.65 1.44 1.45 1.44h31.62c.73-.001 1.347-.542 1.439-1.263.008-.059.011-.118.01-.177V19.17c0-.795-.649-1.44-1.45-1.44H211.19zM157 43c.001-1.104 1.017-1.999 2.27-2h37.46c1.254 0 2.27.895 2.27 2s-1.016 2-2.27 2h-37.46c-1.253-.001-2.269-.896-2.27-2zM157 34c.001-1.104 1.018-1.999 2.273-2h20.454c1.255 0 2.273.895 2.273 2s-1.018 2-2.273 2h-20.454c-1.255-.001-2.272-.896-2.273-2z"/>
                        <path fill="#2F2E41" d="M219.03 30.001c2 3.938 3.575 7.999 7.985 7.999S235 34.419 235 30.001c0-4.417-3.575-7.998-7.985-7.998-4.482-.056-11.706.67-7.985 7.998z"/>
                        <path fill="#FFE28C" d="M223.548 43.173c-.28-.54-.683-1.01-1.177-1.375-.35-.259-.741-.459-1.158-.592-.17-.057-.345-.102-.521-.135-1.99-.369-3.958.736-4.637 2.603L212 55h7.695l3.925-8.33c.53-1.114.504-2.405-.072-3.497z"/>
                        <circle cx="226" cy="31" r="7" fill="#A0616A"/>
                        <path fill="#FFC93E" d="M236.84 43.989c-.449-.505-.938-.97-1.462-1.392-2.29-1.847-5.16-2.763-8.064-2.572-.117.006-.233.014-.35.026-3.402.28-6.522 2.052-8.566 4.864-2.077 2.856-2.855 6.494-2.136 9.983.076.365.144.734.21 1.102h23.127l.267-1.842c.54-3.686-.572-7.426-3.025-10.17z"/>
                        <path fill="#FFDB75" d="M240.27 46.312c-.347-1.903-2.068-3.297-4.089-3.312l-.117.003c-.326.007-.65.05-.966.129-1.072.272-1.986.941-2.54 1.86-.554.917-.703 2.009-.413 3.032L234.402 56H242l-1.73-9.688z"/>
                        <path fill="#2F2E41" d="M219 26.854c1.524 1.134 3.332 1.737 5.182 1.729-.66.494-1.411.828-2.202.978 2.46.57 5.002.585 7.468.045.548-.095 1.077-.29 1.564-.58.49-.295.84-.801.965-1.393.164-1.01-.566-1.928-1.324-2.547-2.35-1.889-5.362-2.539-8.204-1.77-.917.256-1.835.688-2.43 1.483-.595.794-.772 2.019-.204 2.837l-.815-.782z"/>
                        <path fill="#FFF" d="M181.646 115H76.354c-2.956-.003-5.35-2.375-5.354-5.301V46.037c.002-2.228 1.826-4.034 4.077-4.037h107.786c2.284.003 4.134 1.835 4.137 4.097V109.7c-.003 2.926-2.398 5.298-5.354 5.301z"/>
                        <path fill="#697195" d="M181.646 115H76.354c-2.956-.003-5.35-2.375-5.354-5.301V46.037c.002-2.228 1.826-4.034 4.077-4.037h107.786c2.284.003 4.134 1.835 4.137 4.097V109.7c-.003 2.926-2.398 5.298-5.354 5.301zM75.076 43.146c-1.61.002-2.917 1.295-2.918 2.891V109.7c.002 2.293 1.88 4.152 4.196 4.155h105.292c2.317-.003 4.194-1.862 4.196-4.155V46.097c-.001-1.629-1.334-2.949-2.98-2.95H75.078z"/>
                        <path fill="#E6E6E6" d="M119.81 99H88.19c-1.6-.002-2.951-1.18-3.162-2.756-.02-.138-.029-.276-.028-.414V61.17c.002-1.75 1.43-3.168 3.19-3.17h31.62c1.76.002 3.188 1.42 3.19 3.17v34.66c-.002 1.75-1.43 3.168-3.19 3.17zM88.19 59.73c-.8 0-1.449.645-1.45 1.44v34.66c0 .059.003.118.011.177.092.72.708 1.262 1.44 1.264h31.619c.8-.001 1.449-.646 1.45-1.441V61.17c-.001-.795-.65-1.44-1.45-1.44H88.19z"/>
                        <path fill="#2F2E41" d="M102.548 64.062c-2.025-.95-4.511-1.262-6.572-.379-2.06.884-3.466 3.149-2.8 5.153.303.91.99 1.803.723 2.72-.206.707-.926 1.174-1.633 1.506-.707.331-1.48.61-1.991 1.17-.512.559-.618 1.522.02 1.956.21.142.474.21.678.36.356.293.49.782.332 1.217-.17.427-.451.8-.814 1.08-.725.631-1.683 1.354-1.458 2.25.17.485.564.857 1.055.995.504.147 1.026.216 1.549.207l21.392.68c.706.054 1.416.014 2.112-.12.684-.125 1.285-.533 1.66-1.124.409-.765.14-1.708-.366-2.423-.506-.714-1.222-1.278-1.814-1.935-.591-.656-1.075-1.475-.971-2.323.084-.68.527-1.266.846-1.883.318-.617.503-1.388.09-1.955-.58-.8-1.976-.728-2.637-1.473-.499-.563-.402-1.372-.452-2.097-.12-1.745-1.316-3.392-3.02-4.157-1.756-.762-3.769-.623-5.408.371l-.52.204z"/>
                        <circle cx="104" cy="76" r="7" fill="#A0616A"/>
                        <path fill="#F67B23" d="M98.732 85.457c-.413-.21-.858-.352-1.316-.416-.342-.05-.688-.054-1.03-.015-1.79.203-3.245 1.54-3.608 3.31L91 97h6.953l1.299-.534 1.617-6.233c.484-1.898-.403-3.88-2.137-4.776z"/>
                        <path fill="#FF8834" d="M113.53 92.077c-.015-2.487-1.426-4.765-3.67-5.926-.09-.048-.183-.09-.276-.133-.8-.372-1.665-.588-2.55-.636l-6.766-.371c-.956-.054-1.912.09-2.808.422-.218.08-.431.17-.64.273-.653.315-1.251.732-1.77 1.233-1.383 1.338-2.125 3.185-2.044 5.087l.122 2.81.85 2.164h18.92c.235-.279.439-.58.608-.902.65-1.262.659-2.75.023-4.02z"/>
                        <path fill="#F67B23" d="M112.897 88.345c-.31-.657-.796-1.22-1.407-1.63-.441-.294-.936-.504-1.457-.618-.209-.045-.42-.074-.634-.088-.42-.028-.842.008-1.25.105-1.237.3-2.264 1.139-2.786 2.273-.521 1.135-.48 2.44.113 3.542l2.614 4.83.131.241H117l-4.103-8.655z"/>
                        <path fill="#2F2E41" d="M96.736 74.883c2.197-.18 4.022-2.416 3.793-4.65-.053 1.906 1.304 3.55 3.157 3.823 1.008.113 2.113-.197 2.99.32.972.575 1.283 1.968 2.296 2.464.978.478 2.22-.175 2.704-1.165.483-.99.365-2.179.044-3.235-.929-3.064-3.367-5.408-6.424-6.175-3.057-.767-6.285.156-8.504 2.43-.925.947-1.658 2.153-1.777 3.483-.12 1.33.486 2.773 1.658 3.37l.063-.665z"/>
                        <path fill="#E6E6E6" d="M170.73 87h-37.46c-1.254 0-2.27-.895-2.27-2s1.016-2 2.27-2h37.46c1.254 0 2.27.895 2.27 2s-1.016 2-2.27 2z"/>
                        <path fill="#00C8D8" d="M153.727 77h-20.454c-1.255 0-2.273-.895-2.273-2s1.018-2 2.273-2h20.454c1.255 0 2.273.895 2.273 2s-1.018 2-2.273 2zM165.5 95c-4.144.008-7.5 3.363-7.5 7.5 0 4.137 3.356 7.492 7.5 7.5 4.144-.008 7.5-3.363 7.5-7.5 0-4.137-3.356-7.492-7.5-7.5z"/>
                        <path fill="#FFF" d="M164.13 105c-.207 0-.409-.067-.575-.19l-.01-.009-2.169-1.654c-.421-.323-.5-.926-.177-1.347.323-.421.927-.501 1.35-.179l1.404 1.074 3.319-4.319c.155-.202.385-.334.638-.368.254-.033.51.035.712.19l-.02.03.021-.03c.422.324.502.927.178 1.348l-3.903 5.078c-.183.237-.467.376-.767.375V105z"/>
                    </g>
                </g>
            </g>
        </g>
    </g>
</svg>
