<svg xmlns="http://www.w3.org/2000/svg" width="8" height="10" viewBox="0 0 8 10">
    <g fill="none" fill-rule="evenodd">
        <g stroke="#FB7B4B">
            <g>
                <g>
                    <g>
                        <g>
                            <g transform="translate(-880 -791) translate(820 626) translate(20 134) translate(0 10) translate(40 20) translate(0 1)">
                                <path d="M3.929 4.429c.945 0 1.8.395 2.419 1.032.624.642 1.01 1.529 1.01 2.508-.291.493-.511.623-.773.734-.698.298-1.678.44-2.656.44-.978 0-1.958-.142-2.657-.44C1.01 8.593.79 8.462.644 8.3.5 6.99.884 6.103 1.51 5.461c.62-.637 1.474-1.032 2.42-1.032z"/>
                                <circle cx="3.929" cy="1.786" r="1.286"/>
                            </g>
                        </g>
                    </g>
                </g>
            </g>
        </g>
    </g>
</svg>
