<svg xmlns="http://www.w3.org/2000/svg" width="34" height="33" viewBox="0 0 34 33">
    <g fill="none" fill-rule="evenodd">
        <g stroke="#9B9B9B" stroke-width="2">
            <g>
                <g>
                    <g>
                        <g>
                            <g>
                                <g>
                                    <g>
                                        <g>
                                            <g transform="translate(-747 -315) translate(-83) translate(385 213) translate(36) translate(0 92) translate(366) translate(5 10) translate(39) matrix(-1 0 0 1 32 0) translate(5)">
                                                <path d="M11 12c2.758 0 5.254 1.152 7.061 3.01C19.878 16.88 21 19.463 21 22.315c0 .452-.194.845-.507 1.192-.443.492-1.104.894-1.897 1.232C16.598 25.588 13.797 26 11 26c-2.797 0-5.598-.411-7.596-1.262-.793-.338-1.454-.74-1.897-1.232-.313-.347-.507-.74-.507-1.192 0-2.852 1.122-5.434 2.939-7.303C5.746 13.152 8.242 12 11 12z"/>
                                                <circle cx="11" cy="5" r="4"/>
                                            </g>
                                            <path fill-rule="nonzero" stroke-linecap="round" stroke-linejoin="round" d="M30.222 23c.982 0 1.778.591 1.778 1.32v6.36c0 .729-.796 1.32-1.778 1.32H1.778C.796 32 0 31.409 0 30.68v-6.36C0 23.591.796 23 1.778 23" transform="translate(-747 -315) translate(-83) translate(385 213) translate(36) translate(0 92) translate(366) translate(5 10) translate(39) matrix(-1 0 0 1 32 0)"/>
                                        </g>
                                    </g>
                                </g>
                            </g>
                        </g>
                    </g>
                </g>
            </g>
        </g>
    </g>
</svg>
