<svg xmlns="http://www.w3.org/2000/svg" xmlns:xlink="http://www.w3.org/1999/xlink" width="238" height="142" viewBox="0 0 238 142">
    <defs>
        <path id="7iphcqscaa" d="M22.075.116c.604-.156 1.24-.155 1.844.005 1.917.499 6.214 1.82 7.135 3.83 1.195 2.608 5.375 6.662 5.375 6.662s5.674 5.503 4.48 9.269c-1.195 3.765-5.674 8.11-5.674 8.11s1.194 17.956-4.778 22.59c-5.972 4.634-8.36 1.448-8.36 5.793 0 4.344-18.514 17.957-22.097 9.558 0 0 1.792-15.64 1.194-21.143-.588-5.424.273-39.262 20.88-44.674z"/>
    </defs>
    <g fill="none" fill-rule="evenodd">
        <g>
            <g>
                <g>
                    <g>
                        <g fill-rule="nonzero" transform="translate(-955 -1090) translate(40 956) translate(900 114) translate(15 20) translate(109)">
                            <circle cx="19" cy="45" r="12" fill="#FF7122"/>
                            <path fill="#3F3D56" d="M122 29H52V15h70v14zm-69.692-.295h69.384v-13.41H52.308v13.41z"/>
                            <path fill="#00C8D8" d="M47 18H116V32H47z"/>
                            <circle cx="3" cy="3" r="1" fill="#7CA5FF"/>
                            <circle cx="7" cy="3" r="1" fill="#7CA5FF"/>
                            <circle cx="11" cy="3" r="1" fill="#7CA5FF"/>
                            <path fill="#3F3D56" d="M129 84H0V0h129v84zM.306 83.693h128.388V.307H.306v83.386z"/>
                            <path fill="#3F3D56" d="M0 4.847H128V5.847H0zM3.5 4C2.672 4 2 3.328 2 2.5S2.672 1 3.5 1 5 1.672 5 2.5c-.001.828-.672 1.499-1.5 1.5zm0-2.625c-.621 0-1.125.504-1.125 1.125S2.879 3.625 3.5 3.625 4.625 3.121 4.625 2.5 4.121 1.376 3.5 1.375zM7.5 4C6.672 4 6 3.328 6 2.5S6.672 1 7.5 1 9 1.672 9 2.5c-.001.828-.672 1.499-1.5 1.5zm0-2.625c-.621 0-1.125.504-1.125 1.125S6.879 3.625 7.5 3.625 8.625 3.121 8.625 2.5 8.121 1.376 7.5 1.375zM10.5 4C9.672 4 9 3.328 9 2.5S9.672 1 10.5 1s1.5.672 1.5 1.5c-.001.828-.672 1.499-1.5 1.5zm0-2.625c-.455 0-.865.274-1.04.694-.173.42-.077.905.245 1.226.321.322.805.418 1.226.244.42-.174.694-.584.694-1.039 0-.621-.504-1.124-1.125-1.125z"/>
                            <path fill="#3F3D56" d="M40.847 5H41.847V84H40.847z"/>
                            <path fill="#F2F2F2" d="M54 43H77V46H54zM90 43H113V46H90z"/>
                            <path fill="#3F3D56" d="M79 45H56v-4h23v4zm-22.691-.364H78.69v-3.272H56.31v3.272z"/>
                            <path fill="#F2F2F2" d="M54 68H77V71H54z"/>
                            <path fill="#3F3D56" d="M79 69H56v-4h23v4zm-22.691-.364H78.69v-3.272H56.31v3.272z"/>
                            <path fill="#F2F2F2" d="M56 55H113V58H56z"/>
                            <path fill="#3F3D56" d="M114 58H56v-4h58v4zm-57.695-.364h57.39v-3.272h-57.39v3.272zM114 45H91v-4h23v4zm-22.691-.364h22.382v-3.272H91.31v3.272zM21.5 54C14.596 54 9 48.404 9 41.5S14.596 29 21.5 29 34 34.596 34 41.5c-.008 6.9-5.6 12.492-12.5 12.5zm0-24.621c-6.694 0-12.121 5.427-12.121 12.121 0 6.694 5.427 12.121 12.121 12.121 6.694 0 12.121-5.427 12.121-12.121-.007-6.691-5.43-12.114-12.121-12.121z"/>
                        </g>
                        <g>
                            <g fill="#FADCD2">
                                <path d="M17.77 36.45C-13.033 31.508-5.545 9.43 57.689 9.43c63.233 0-9.658-9.353 62.81-9.353 72.469 0 92.288 20.633 65.863 29.989-26.425 9.356-137.786 11.323-168.59 6.383z" transform="translate(-955 -1090) translate(40 956) translate(900 114) translate(15 20) matrix(-1 0 0 1 204 21) translate(6 81)"/>
                            </g>
                            <g transform="translate(-955 -1090) translate(40 956) translate(900 114) translate(15 20) matrix(-1 0 0 1 204 21) matrix(-1 0 0 1 176 0)">
                                <path fill="#565D84" fill-rule="nonzero" d="M32.145 72.787h8.215l20.245-7.856s14.377-5.819 13.204 5.237c-1.174 11.056-3.228 25.894-3.228 25.894s-6.455-2.91-9.976-2.037c-3.52.873-1.173-17.747-1.173-17.747S30.678 89.952 28.037 88.207c-2.64-1.746-3.228-13.966-3.228-13.966l7.336-1.454z"/>
                                <path fill="#FE9D8E" fill-rule="nonzero" d="M44.895 48.031l9.991 14.267 23.293 19.34s21.524 4.983 18.576 8.5C93.806 93.653 75.82 86.62 75.82 86.62S48.99 67.28 48.104 65.815C47.22 64.349 37.49 50.576 37.49 50.576l7.405-2.545z"/>
                                <path fill="#FFF" fill-rule="nonzero" d="M44.895 48.031l9.991 14.267 23.293 19.34s21.524 4.983 18.576 8.5C93.806 93.653 75.82 86.62 75.82 86.62S48.99 67.28 48.104 65.815C47.22 64.349 37.49 50.576 37.49 50.576l7.405-2.545z" opacity=".1"/>
                                <path fill="#FFBD24" fill-rule="nonzero" d="M38.978 36.504l6.506 12.854s-1.479 6.278-3.844 6.876c-2.366.598-12.42-7.772-12.42-7.772l9.758-11.958z"/>
                                <path fill="#2F2E41" fill-rule="nonzero" d="M117.227 65.973l1.845 7.882c.02.088.017.18-.01.266l-8.367 27.088c-.068.221-.276.363-.499.34-.223-.023-.4-.204-.425-.434l-1.158-10.553c-.008-.07 0-.14.02-.208l7.68-24.418c.066-.209.258-.347.47-.339.213.009.394.162.444.376z"/>
                                <path fill="#FF5814" fill-rule="nonzero" d="M116.225 67.792L117.982 74.341 110.367 98.258 108.61 90.855z"/>
                                <path fill="#2F2E41" fill-rule="nonzero" d="M79.436 103.421c.288.892 29.94-.297 30.228-.594.25-.372.463-.771.633-1.19.27-.594.518-1.188.518-1.188l-1.151-9.624L80.3 89.75s-.734 8.156-.884 11.889c-.037.942-.037 1.605.02 1.783z"/>
                                <path fill="#000" fill-rule="nonzero" d="M105.841 93.317L106.405 101.551 93.724 101.551 93.724 93.317zM88.678 95.803L88.762 95.788 88.363 99.356 80.493 99.356 80.493 95.803zM78.059 103.408c.292.928 30.441-.31 30.734-.619.255-.388.471-.802.644-1.238H78.038c-.038.981-.038 1.671.02 1.857z" opacity=".1"/>
                                <ellipse cx="43.83" cy="18.389" fill="#FFC4BB" fill-rule="nonzero" rx="13.507" ry="13.449"/>
                                <path fill="#FFC4BB" fill-rule="nonzero" d="M43.279 30.669s-4.347 7.869-5.216 12.106c-.869 4.237-13.038-8.474-13.038-8.474l-1.594-4.389s11.445-5.599 10.576-10.138c-.87-4.54 9.272 10.895 9.272 10.895zM44.57 52.697l11.933 16.132 28.524 21.807s20.665 4.481 16.008 7.767c-4.657 3.286-18.046-2.987-18.046-2.987S54.174 79.583 48.062 73.011c-6.112-6.572-17.464-17.625-17.464-17.625l13.971-2.69z"/>
                                <path fill="#565D84" fill-rule="nonzero" d="M29.435 77.822l3.485 5.475 20.802-6.493c4.565-1.424 9.57-.9 13.618 1.63 3.631 2.27 5.955 5.871.726 11.202-10.456 10.66-17.427 4.898-17.427 4.898s-35.146 16.424-40.956 8.356c-5.809-8.068-6.1-12.102-6.1-12.102s22.366-13.83 25.852-12.966z"/>
                                <path fill="#212549" fill-rule="nonzero" d="M73.552 97.296s9.227 6.08-1.73 8.976c-10.956 2.896-19.029-1.158-19.029-1.158s-9.514 0-9.514-4.923c0-4.922 3.171-5.501 3.171-5.501l9.803 1.448s11.821-3.186 17.3 1.158zM55.308 16.457c.898.412 1.79.9 2.766 1.02.977.119 2.09-.232 2.552-1.125.25-.483.278-1.05.29-1.597.035-1.658-.082-3.45-1.102-4.733-.65-.816-1.599-1.33-2.271-2.127-.482-.57-.803-1.263-1.148-1.93C55.087 3.438 53.151 1.01 50.46.28c-1.124-.304-2.303-.29-3.465-.273l-6.777.099c-1.097.016-2.21.034-3.26.36-2.182.68-3.77 2.567-5.225 4.372-1.088 1.35-2.18 2.715-2.996 4.255-1.171 2.247-1.763 4.766-1.72 7.315-.01.654.073 1.306.244 1.936.2.578.447 1.137.739 1.67 1.27 2.57 2.026 5.778.594 8.256 2.487-1.045 4.947-2.416 6.587-4.604.734-.98 1.309-2.125 2.287-2.844.978-.718 2.571-.78 3.198.274.216.427.327.9.324 1.382.046.791.044 1.613.37 2.331.327.719 1.103 1.298 1.845 1.083 1.277-.37 1.155-2.387 2.139-3.303.747-.696 1.9-.563 2.86-.879 1.118-.368 1.957-1.365 2.435-2.468.363-.839.358-3.034 1.046-3.488.862-.57 2.823.336 3.623.703z"/>
                                <g transform="translate(0 28.27)">
                                    <use fill="#FFBD24" fill-rule="nonzero" xlink:href="#7iphcqscaa"/>
                                </g>
                                <path fill="#FDD35C" fill-rule="nonzero" d="M30.903 35.907s17.329 13.286 14.204 18.895c0 0-10.51 5.314-12.783 5.02-2.273-.296-11.08-10.63-13.352-11.515-2.272-.886-3.409-16.829 11.931-12.4z"/>
                                <path stroke="#212549" d="M13.78 93.866c1.472 1.098 3.678 1.739 6.619 1.922 2.94.183 19.574-4.48 49.903-13.988"/>
                            </g>
                            <path fill="#0098A7" fill-rule="nonzero" d="M22.559 106.128C21.052 112.203 15.77 116 15.77 116s-2.837-6.053-1.33-12.128C15.948 97.797 21.23 94 21.23 94s2.837 6.053 1.33 12.128z" transform="translate(-955 -1090) translate(40 956) translate(900 114) translate(15 20) matrix(-1 0 0 1 204 21) matrix(-1 0 0 1 37 0)"/>
                            <path fill="#00BED0" fill-rule="nonzero" d="M6.14 101.348C.619 107.148 0 116 0 116s8.336-.55 13.86-6.348C19.381 103.852 20 95 20 95s-8.336.55-13.86 6.348z" transform="translate(-955 -1090) translate(40 956) translate(900 114) translate(15 20) matrix(-1 0 0 1 204 21) matrix(-1 0 0 1 20 0)"/>
                        </g>
                    </g>
                </g>
            </g>
        </g>
    </g>
</svg>
